<?xml version="1.0" encoding="utf-8"?><svg xmlns="http://www.w3.org/2000/svg" xmlns:xlink="http://www.w3.org/1999/xlink"><symbol viewBox="0 0 10 5" id="arr-down"><path d="M10.001.946L8.834 0 5.001 3.108 1.168 0 0 .946 5 5z"/></symbol><symbol viewBox="0 0 18.7 35.4" id="arrow"><path d="M18.7 17L1.5 0 .1 1.4l16.2 16.3L0 34l1.6 1.4 17.1-17z"/></symbol><symbol viewBox="0 0 11 9" id="arrow-2" xmlns="http://www.w3.org/2000/svg"><path d="M6.098.016a.215.215 0 0 0-.142.199v2.35H.23c-.126 0-.229.096-.229.215v3.432c0 .118.103.214.229.214h5.727v2.36c0 .086.056.164.141.198a.24.24 0 0 0 .25-.046l4.586-4.28A.208.208 0 0 0 11 4.506a.21.21 0 0 0-.067-.151L6.348.063a.24.24 0 0 0-.25-.047z"/></symbol><symbol viewBox="0 0 40 40" id="back2top"><path d="M40 20c0 11.045-8.955 20-20 20C8.953 40 0 31.044 0 20 0 8.953 8.954 0 20 0c11.045 0 20 8.954 20 20zm-19.42-5.765a.821.821 0 0 0-.573-.24.798.798 0 0 0-.574.24l-5.178 5.15a.805.805 0 0 0 0 1.146.815.815 0 0 0 1.153 0l3.784-3.77v8.434c0 .45.362.81.815.81a.81.81 0 0 0 .814-.81V16.76l3.79 3.77a.816.816 0 0 0 1.153 0 .805.805 0 0 0 0-1.147z"/></symbol><symbol viewBox="0 0 15 19" id="basket"><path d="M1.085 4.627h12.83l-.675 13.457c-.023.512-.47.916-1.012.916H2.772c-.543 0-.989-.404-1.012-.916zm8.554 11.03a.4.4 0 0 0 .411.389h.658c.227 0 .412-.174.412-.389V7.97a.4.4 0 0 0-.412-.388h-.658a.4.4 0 0 0-.411.388zM6.759 7.97v7.688a.4.4 0 0 0 .412.389h.658a.4.4 0 0 0 .411-.389V7.97a.4.4 0 0 0-.411-.388h-.658a.4.4 0 0 0-.411.388zM3.88 15.657a.4.4 0 0 0 .412.389h.658a.4.4 0 0 0 .41-.389V7.97a.4.4 0 0 0-.41-.388h-.658a.4.4 0 0 0-.412.388zM15 1.58v1.885H0V1.579c0-.332.284-.6.635-.6h4.362V.2c0-.11.095-.2.213-.2h4.58c.117 0 .212.09.212.2v.78h4.362c.351 0 .636.268.636.6z"/></symbol><symbol viewBox="0 0 16 16" id="calendar"><path d="M5.78 8.827v1.267c0 .2-.166.363-.371.363H4.113a.367.367 0 0 1-.371-.363V8.827c0-.2.166-.363.37-.363H5.41c.205 0 .371.163.371.363zm3.24 1.267c0 .2-.167.363-.372.363H7.352a.367.367 0 0 1-.371-.363V8.827c0-.2.166-.363.37-.363h1.297c.205 0 .371.163.371.363zm3.238 0c0 .2-.166.363-.37.363H10.59a.367.367 0 0 1-.371-.363V8.827c0-.2.166-.363.371-.363h1.296c.205 0 .371.163.371.363zm-6.478 1.9v1.267c0 .2-.166.364-.371.364H4.113a.367.367 0 0 1-.371-.364v-1.267c0-.2.166-.363.37-.363H5.41c.205 0 .371.163.371.363zm3.24 1.267c0 .2-.167.364-.372.364H7.352a.367.367 0 0 1-.371-.364v-1.267c0-.2.166-.363.37-.363h1.297c.205 0 .371.163.371.363zm3.238-1.267v1.267c0 .2-.166.364-.37.364H10.59a.367.367 0 0 1-.371-.364v-1.267c0-.2.166-.363.371-.363h1.296c.205 0 .371.163.371.363zM16 3.214v11.343c0 .791-.658 1.443-1.467 1.443H1.467C.657 16 0 15.35 0 14.557V3.215c0-.778.642-1.41 1.424-1.434v1.936c0 .875.726 1.58 1.62 1.58h1.023c.894 0 1.63-.705 1.63-1.58V1.775h4.606v1.942c0 .875.736 1.58 1.63 1.58h1.023c.894 0 1.62-.705 1.62-1.58V1.78c.782.023 1.424.656 1.424 1.434zm-1.899 10.637V7.992a.627.627 0 0 0-.634-.62H2.505a.627.627 0 0 0-.634.62v5.859c0 .342.284.62.634.62h10.962c.35 0 .634-.278.634-.62zM2.485 3.716V.543c0-.3.249-.543.556-.543h1.01a.55.55 0 0 1 .557.543v3.173a.55.55 0 0 1-.556.543H3.04a.55.55 0 0 1-.556-.543zm8.88 0V.543c0-.3.249-.543.555-.543h1.011a.55.55 0 0 1 .556.543v3.173a.55.55 0 0 1-.556.543h-1.01a.55.55 0 0 1-.556-.543z"/></symbol><symbol viewBox="0 0 21 21" id="clock" xmlns="http://www.w3.org/2000/svg"><path d="M21 10.5C21 16.298 16.299 21 10.5 21 4.7 21 0 16.298 0 10.5 0 4.7 4.7 0 10.5 0 16.299 0 21 4.701 21 10.5zm-5.235 1.27a.726.726 0 0 0-.726-.726h-3.813V4.357a.726.726 0 0 0-1.453 0v7.414c0 .4.326.726.727.726.015 0 .029-.004.044-.004.015 0 .029.004.044.004h4.451a.726.726 0 0 0 .726-.726z"/></symbol><symbol viewBox="0 0 15.642 15.642" id="close"><path d="M8.882 7.821l6.541-6.541A.75.75 0 1 0 14.362.219L7.821 6.76 1.28.22A.75.75 0 1 0 .219 1.281L6.76 7.822l-6.54 6.54a.75.75 0 0 0 1.06 1.061l6.541-6.541 6.541 6.541a.75.75 0 1 0 1.06-1.061l-6.54-6.541z"/></symbol><symbol viewBox="0 0 9 11" id="decor-01"><path d="M0 11V0h4c1.445 0 2.573.253 3.384.759.81.506 1.216 1.26 1.216 2.263 0 .524-.13.99-.392 1.398-.261.408-.664.715-1.208.921.682.146 1.186.44 1.512.88A2.5 2.5 0 0 1 9 7.744c0 1.073-.381 1.883-1.144 2.432-.763.55-1.856.824-3.28.824zm2.712-6.414h1.344c.613-.01 1.072-.122 1.376-.337.304-.214.456-.527.456-.94 0-.469-.155-.81-.464-1.024-.31-.214-.784-.32-1.424-.32H2.712zm0 4.45h1.864c.576 0 1.008-.107 1.296-.322.288-.214.432-.542.432-.985 0-.479-.124-.84-.372-1.085-.248-.244-.65-.366-1.204-.366H2.712z"/></symbol><symbol viewBox="0 0 5 12" id="decor-02"><path d="M2.668 12H0L2.332 0H5z"/></symbol><symbol viewBox="0 0 13 13" id="decor-03"><path d="M2.317 6.598V0h2.374v6.598c0 .62.16 1.08.48 1.378.32.299.77.448 1.354.448.579 0 1.017-.148 1.33-.444.312-.297.454-.757.454-1.382V0h2.374v6.598c0 1.153-.382 2.046-1.148 2.68-.766.635-1.768.952-3.01.952-1.254 0-2.273-.317-3.041-.951-.769-.635-1.167-1.528-1.167-2.681zM0 11.135h13V13H0z"/></symbol><symbol viewBox="0 0 12 13" id="decor-04"><path d="M0 11.143h12V13H0zm0-3.714h9.443v1.857H0zm0-3.715h12v1.857H0zM0 0h6.835v1.857H0z"/></symbol><symbol viewBox="0 0 13 13" id="decor-05"><path d="M.904 11.143h11.192V13H.904zM0 7.429h13v1.857H0zM2.77 3.77h7.46v1.857H2.77zM0 0h13v1.857H0z"/></symbol><symbol viewBox="0 0 12 13" id="decor-06"><path d="M12 13H0v-1.857h12zm0-3.714H2.556V7.429H12zm0-3.715H0V3.714h12zm0-3.714H5.165V0H12z"/></symbol><symbol viewBox="0 0 13 13" id="decor-07"><path d="M0 11.15h13V13H0zm0-3.698h13v1.85H0zm0-3.698h13v1.85H0zM0 0h13v1.85H0z"/></symbol><symbol viewBox="0 0 17 13" id="decor-08"><path d="M3.643 10.246h13.186v2.523H3.643zm0-4.97h13.186V7.8H3.643zm0-5.122h13.186v2.523H3.643zM0 10.323h2.404v2.523H0zm0-5.046h2.404V7.8H0zM0 .154h2.404v2.523H0z"/></symbol><symbol viewBox="0 0 17 15" id="decor-09"><path d="M.99 6.852H.186L.18 6.84a1.18 1.18 0 0 1 .322-.869c.222-.239.517-.358.885-.358.39 0 .694.1.912.301.219.2.328.476.328.824 0 .235-.058.444-.174.624-.116.18-.33.451-.642.806l-.48.545.007.03h1.334v.605H.213v-.532l1.154-1.254a2.68 2.68 0 0 0 .333-.464.816.816 0 0 0 .102-.354.528.528 0 0 0-.104-.342c-.069-.085-.172-.128-.31-.128a.328.328 0 0 0-.292.162.791.791 0 0 0-.106.416zM1.01.876H.213V.26L1.877 0v3.07h.796v.68H.213v-.68h.796zm1.563 12.5c.108.15.161.327.161.534 0 .34-.124.606-.373.8-.248.195-.566.29-.953.29-.333 0-.624-.096-.874-.278-.25-.183-.37-.456-.362-.803l.005-.033H.98c0 .152.045.236.133.317.089.08.197.137.323.137a.47.47 0 0 0 .346-.128.438.438 0 0 0 .13-.324c0-.18-.045-.316-.136-.398a.549.549 0 0 0-.381-.133h-.386v-.605h.386a.454.454 0 0 0 .341-.132.499.499 0 0 0 .12-.354.423.423 0 0 0-.108-.294c-.071-.08-.175-.116-.312-.116a.447.447 0 0 0-.283.103c-.08.065-.121.112-.121.263h-.8l-.005-.028a.858.858 0 0 1 .334-.732c.232-.183.514-.275.846-.275.385 0 .693.092.924.276.23.185.346.446.346.784a.79.79 0 0 1-.15.465c-.1.142-.234.252-.4.332.19.074.338.184.445.333zm1.331-2.213H17v2.496H3.903zm0-4.916H17v2.496H3.903zm0-5.068H17v2.496H3.903z"/></symbol><symbol viewBox="0 0 13 13" id="decor-10"><path d="M0 11.143h13V13H0zm5.596-3.658H13v1.857H5.596zm0-3.77H13V5.57H5.596zM0 0h13v1.857H0zm4.01 8.329L.24 6.472l3.77-1.858z"/></symbol><symbol viewBox="0 0 13 13" id="decor-11"><path d="M0 11.143h13V13H0zm5.596-3.658H13v1.857H5.596zm0-3.77H13V5.57H5.596zM0 0h13v1.857H0zm-.01 4.67l3.77 1.858-3.77 1.857z"/></symbol><symbol viewBox="0 0 13 13" id="decor-12"><path d="M0 11.135h13V13H0zm4.32-.905H1.93L5.233 0h2.553l3.312 10.23h-2.39l-.584-1.978H4.896zm1.104-3.843h2.173l-1.07-3.618h-.041z"/></symbol><symbol viewBox="0 0 14 14" id="decor-13"><path d="M7.034 4.727l1.049 3.576H5.95l1.043-3.576zM14 0v14H0V0zm-2.48 12.06L8.27 2H5.763L2.52 12.06h2.347l.565-2h3.169l.573 2z"/></symbol><symbol viewBox="0 0 16 16" id="decor-15" xmlns="http://www.w3.org/2000/svg"><path d="M13.662 13.657c-3.121 3.12-8.199 3.12-11.32 0-3.12-3.12-3.12-8.196 0-11.316 3.121-3.12 8.199-3.12 11.32.001 3.12 3.12 3.12 8.196 0 11.315zm-.873-10.443a6.779 6.779 0 0 0-9.573 0 6.774 6.774 0 0 0 0 9.571 6.779 6.779 0 0 0 9.573 0 6.774 6.774 0 0 0 0-9.57zm-7.772 2.62a.936.936 0 1 1 1.871 0 .936.936 0 0 1-1.871 0zm4.241 0a.936.936 0 1 1 1.872.001.936.936 0 0 1-1.872 0zm2.212 3.83c-.58 1.34-1.938 2.207-3.459 2.207-1.554 0-2.92-.87-3.48-2.218a.452.452 0 1 1 .837-.347c.418 1.009 1.456 1.66 2.643 1.66 1.16 0 2.192-.652 2.628-1.66a.453.453 0 0 1 .831.358z"/></symbol><symbol viewBox="0 0 18 14" id="decor-16" xmlns="http://www.w3.org/2000/svg"><path d="M18 .281V13.72a.283.283 0 0 1-.285.281H.285A.283.283 0 0 1 0 13.719V.28C0 .126.128 0 .285 0h17.43c.157 0 .285.126.285.281zm-1.711 11.477V1.688H1.71v9.643l4.113-5.442a.117.117 0 0 1 .184-.003l3.477 4.221 2.72-2.36a.118.118 0 0 1 .162.006zM10.582 4.37c0-.762.626-1.38 1.4-1.38a1.39 1.39 0 0 1 1.398 1.38 1.39 1.39 0 0 1-1.399 1.38 1.39 1.39 0 0 1-1.399-1.38z"/></symbol><symbol viewBox="0 0 17 17" id="edit"><path d="M17 8.5A8.5 8.5 0 1 1-.001 8.499a8.5 8.5 0 0 1 17 0zm-4.46-2.728l-1.298-1.299a.244.244 0 0 0-.345 0L4.41 10.96l.008.008a.319.319 0 0 0-.146.203l-.342 1.532a.318.318 0 0 0 .38.38l1.533-.341a.32.32 0 0 0 .203-.146l.008.007.401-.401-1.643-1.644.623-.623 1.644 1.643 4.03-4.03-1.643-1.644.624-.623 1.643 1.643.807-.808a.244.244 0 0 0 0-.344z"/></symbol><symbol viewBox="0 0 11 18" id="fb"><path d="M9.878.003L7.454 0C4.731 0 2.972 1.74 2.972 4.43v2.043H.535a.374.374 0 0 0-.381.367V9.8c0 .202.17.367.38.367h2.438v7.467c0 .203.17.367.38.367h3.18c.21 0 .381-.164.381-.367v-7.467h2.85c.21 0 .38-.165.38-.367l.002-2.96a.36.36 0 0 0-.112-.26.388.388 0 0 0-.27-.107h-2.85V4.74c0-.832.207-1.254 1.332-1.254h1.633c.21 0 .38-.165.38-.368V.37a.374.374 0 0 0-.38-.367z"/></symbol><symbol viewBox="0 0 15 17" id="friend"><path d="M7.5 0c2.285 0 4.138 1.765 4.138 3.942 0 2.177-1.853 3.942-4.138 3.942S3.362 6.119 3.362 3.942C3.362 1.765 5.215 0 7.5 0zM15 17H0c0-3.946 3.358-7.145 7.5-7.145 4.142 0 7.5 3.199 7.5 7.145z"/></symbol><symbol viewBox="0 0 35 22" id="hat"><path d="M34.193 17.189c.471.95.802 2.9.802 3.456 0 .741-.591 1.343-1.318 1.343-.728 0-1.32-.602-1.32-1.343 0-.557.33-2.505.802-3.456a1.347 1.347 0 0 1-.801-1.236c0-.528.306-.976.743-1.195V6.965l-15.53 6.162a.999.999 0 0 1-.72 0L.17 6.51a.253.253 0 0 1-.159-.24.252.252 0 0 1 .165-.235L16.88.033a.975.975 0 0 1 .662 0l16.705 6.003c.096.035.163.13.163.236a.25.25 0 0 1-.158.239v8.248a1.34 1.34 0 0 1-.06 2.43zM16.85 14.386a.973.973 0 0 0 .72 0l11.46-4.544c-.003 1.903-.003 4.143-.003 4.497 0 3.545-5.235 6.425-11.815 6.607-6.582-.182-11.816-3.064-11.816-6.607l-.002-4.497z"/></symbol><symbol viewBox="0 0 24 24" id="info"><path d="M24.014 12.013c0 6.627-5.374 12-12.001 12S.012 18.64.012 12.014 5.386.012 12.012.012c6.628 0 12.002 5.374 12.002 12zm-9.297 5.757a3.49 3.49 0 0 1-.514.173c-.238.066-.448.1-.636.1-.397 0-.68-.066-.84-.198-.163-.131-.243-.379-.243-.739 0-.144.024-.358.074-.638.051-.278.108-.527.17-.747l.77-2.722a4.23 4.23 0 0 0 .154-.825c.028-.298.042-.508.042-.627 0-.573-.203-1.039-.604-1.398-.404-.357-.977-.539-1.72-.539-.41 0-.847.074-1.31.222-.462.147-.947.323-1.453.53l-.204.841a8.7 8.7 0 0 1 .538-.18c.21-.061.415-.09.614-.09.407 0 .68.067.826.204.144.137.216.381.216.728 0 .195-.023.41-.07.643-.046.232-.105.48-.173.745l-.773 2.73a8.476 8.476 0 0 0-.15.771c-.03.227-.045.451-.045.67 0 .561.206 1.024.62 1.389.415.363.997.547 1.745.547.487 0 .915-.064 1.282-.192.369-.128.86-.313 1.478-.556zm.197-11.423c0-.472-.18-.878-.539-1.215a1.824 1.824 0 0 0-1.296-.505c-.503 0-.938.168-1.3.505-.359.337-.542.743-.542 1.215 0 .474.182.88.542 1.213.362.333.797.5 1.3.5.505 0 .938-.167 1.296-.5.358-.333.539-.738.539-1.213z"/></symbol><symbol viewBox="0 0 19 18" id="inst"><path d="M15.23 4.224a1.1 1.1 0 0 1-2.198 0 1.1 1.1 0 0 1 2.199 0zm-1.249 4.775a4.647 4.647 0 0 1-4.645 4.637 4.648 4.648 0 0 1-4.645-4.637 4.646 4.646 0 0 1 9.29 0zm-1.962 0a2.683 2.683 0 0 0-5.364 0 2.683 2.683 0 0 0 5.364 0zm6.335-4.46v8.92A4.55 4.55 0 0 1 13.805 18H4.87a4.551 4.551 0 0 1-4.55-4.543V4.54A4.552 4.552 0 0 1 4.87-.002h8.936a4.551 4.551 0 0 1 4.55 4.542zm-1.962 0a2.587 2.587 0 0 0-2.587-2.582H4.87A2.586 2.586 0 0 0 2.282 4.54v8.92a2.588 2.588 0 0 0 2.587 2.583h8.936a2.589 2.589 0 0 0 2.587-2.584z"/></symbol><symbol viewBox="0 0 19 19" id="invite"><path d="M19 9.5c0 5.225-4.275 9.5-9.5 9.5S0 14.725 0 9.5 4.275 0 9.5 0 19 4.275 19 9.5zm-4.75-.95h-3.8v-3.8h-1.9v3.8h-3.8v1.9h3.8v3.8h1.9v-3.8h3.8z"/></symbol><symbol viewBox="0 0 16 19" id="lock" xmlns="http://www.w3.org/2000/svg"><path d="M9.38 12.779c0 .419-.192.796-.502 1.042l.352 1.7a.314.314 0 0 1-.31.368H7.063a.31.31 0 0 1-.31-.369l.36-1.715a1.317 1.317 0 0 1-.469-1.248 1.356 1.356 0 0 1 1.188-1.116c.059-.008.118-.008.168-.008.761 0 1.372.599 1.38 1.346zm2.185-6.64l.008 2.134H4.527V6.238c0-1.798 1.356-3.365 3.18-3.538.117-.008.234-.016.343-.016 1.941 0 3.523 1.551 3.515 3.455zM16 17.383V9.89c0-.895-.737-1.617-1.649-1.617h-.041V6.139C14.31 2.75 11.498 0 8.05 0c-.084 0-.159.008-.243.008C4.418.131 1.79 2.963 1.79 6.287v1.986h-.142C.736 8.273 0 8.995 0 9.89v7.493C0 18.278.736 19 1.648 19h12.703c.912 0 1.649-.722 1.649-1.617z"/></symbol><symbol viewBox="0 0 14 13" id="magnific"><path d="M13.75 12.808a.807.807 0 0 1-.53.191.8.8 0 0 1-.55-.21L9.198 9.547a6.25 6.25 0 0 1-3.35.95c-3.225 0-5.849-2.355-5.849-5.249C-.002 2.354 2.623 0 5.848 0c3.224 0 5.848 2.355 5.848 5.25 0 1.238-.486 2.427-1.372 3.373l3.447 3.218a.637.637 0 0 1-.02.968zM1.523 5.248c0 2.139 1.94 3.879 4.323 3.879 2.383 0 4.322-1.74 4.322-3.879 0-2.139-1.939-3.88-4.322-3.88-2.384 0-4.323 1.741-4.323 3.88z"/></symbol><symbol viewBox="0 0 27 25" id="messages"><path d="M11.25 0C17.463 0 22.5 4.246 22.5 9.483c0 5.238-5.037 9.484-11.25 9.484-.597 0-1.182-.04-1.754-.115-2.417 2.507-5.207 2.957-7.996 3.023v-.614c1.506-.765 2.719-2.16 2.719-3.753 0-.222-.017-.44-.048-.654C1.627 15.115 0 12.46 0 9.484 0 4.245 5.037 0 11.25 0zm12.094 21.257c0 1.366.85 2.56 2.156 3.217V25c-2.417-.057-4.636-.442-6.73-2.591-.495.065-1.003.099-1.52.099-2.238 0-4.299-.63-5.944-1.686 3.39-.012 6.592-1.144 9.02-3.19 1.223-1.032 2.188-2.242 2.869-3.598a10.063 10.063 0 0 0 1.057-5.312C25.952 10.186 27 12.18 27 14.38c0 2.55-1.41 4.827-3.615 6.317-.027.183-.041.37-.041.56z"/></symbol><symbol viewBox="0 0 14 16" id="paper" xmlns="http://www.w3.org/2000/svg"><path d="M13.965 5.333H8.4V.03c.598.104 1.08.33 1.444.677l3.412 3.25c.364.348.601.806.71 1.376zm.033 1.333v8.335a.942.942 0 0 1-.306.708 1.038 1.038 0 0 1-.743.292H1.052c-.292 0-.54-.097-.744-.292a.942.942 0 0 1-.306-.708V.999C.002.72.104.485.308.29c.204-.195.452-.292.744-.292H7v5.667c0 .278.102.514.306.709.204.194.452.291.744.291z"/></symbol><symbol viewBox="0 0 20 19" id="pen"><path d="M12.437 3.17l4.068 3.884-10.298 9.832-4.067-3.884zm7.155.94l-2.027 1.935-4.069-3.885L15.234.501a1.861 1.861 0 0 1 2.544 0l1.814 1.732c.544.52.544 1.357 0 1.876zM1.039 14.052l4.066 3.884-4.534 1.05c-.333.077-.634-.208-.56-.526z"/></symbol><symbol viewBox="0 0 16.877 16.877" id="phone"><path d="M5.301 5.587L1.404 1.688 2.913.177A.598.598 0 0 1 3.756.17l3.036 3.039a.6.6 0 0 1-.003.848l-.665.664-.619.619a1.705 1.705 0 0 0-.204.247zm3.206 6.351a34.186 34.186 0 0 1-1.844-1.725 34.655 34.655 0 0 1-1.724-1.848c-.45-.52-.538-1.273-.303-1.907l-4-4.001c-.931.957-.812 3.33.208 5.415.438.902 1.006 1.716 1.593 2.49a22.316 22.316 0 0 0 1.906 2.176 21.258 21.258 0 0 0 2.171 1.913c.774.589 1.59 1.153 2.486 1.59 2.088 1.019 4.462 1.131 5.418.199l-4.001-4.001c-.634.235-1.388.148-1.91-.301zm8.195 1.181l-3.036-3.037a.605.605 0 0 0-.848.003h-.002l-.667.666-.615.618a1.866 1.866 0 0 1-.247.205l3.896 3.898c.504-.505 1.007-1.007 1.512-1.51a.594.594 0 0 0 .007-.843z"/></symbol><symbol viewBox="0 0 21 18" id="photo" xmlns="http://www.w3.org/2000/svg"><path d="M21 6.216V15.2c0 1.526-1.27 2.8-2.815 2.8H2.815C1.27 18 0 16.726 0 15.2V6.216c0-1.525 1.27-2.778 2.815-2.778l2.043-.011 2.18-3.12A.698.698 0 0 1 7.604 0h5.688a.7.7 0 0 1 .577.319l2.112 3.108 2.203.011C19.732 3.438 21 4.691 21 6.216zM19.615 15.2h-.011V6.216c0-.774-.646-1.412-1.43-1.412l-2.586-.022a.714.714 0 0 1-.565-.308l-2.1-3.097h-4.95l-2.18 3.12a.698.698 0 0 1-.566.307H2.815c-.784 0-1.43.638-1.43 1.412V15.2c0 .774.646 1.435 1.43 1.435h15.37c.784 0 1.43-.66 1.43-1.435zm-4.154-5.283c0 2.664-2.203 4.84-4.903 4.84-2.7 0-4.904-2.176-4.904-4.84 0-2.664 2.192-4.838 4.904-4.838 2.7 0 4.903 2.174 4.903 4.838zm-1.384 0c0-1.912-1.58-3.472-3.52-3.472-1.938 0-3.519 1.56-3.519 3.472 0 1.913 1.581 3.473 3.52 3.473 1.938 0 3.519-1.56 3.519-3.473zm3.046-3.096c.147 0 .265.117.265.261a.264.264 0 0 1-.265.262.264.264 0 0 1-.265-.262c0-.144.118-.261.265-.261zm.958.261a.95.95 0 0 1-.958.946.95.95 0 0 1-.958-.946.95.95 0 0 1 .958-.945.95.95 0 0 1 .958.945zm-.531 0a.43.43 0 0 0-.427-.42.43.43 0 0 0-.427.42c0 .228.185.422.427.422a.423.423 0 0 0 .427-.422z"/></symbol><symbol viewBox="0 0 16 16" id="rss" xmlns="http://www.w3.org/2000/svg"><path d="M16 16h-3.076c0-7.13-5.796-12.932-12.918-12.932V0C8.824 0 16 7.18 16 16zM5.29 10.698A7.427 7.427 0 0 0 .002 8.502V5.435c5.822 0 10.56 4.739 10.56 10.565h-3.08c0-2.005-.78-3.89-2.192-5.302zM0 13.858a2.132 2.132 0 0 1 4.263 0A2.126 2.126 0 0 1 2.13 15.98 2.126 2.126 0 0 1 0 13.857z"/></symbol><symbol viewBox="0 0 20 20" id="smile"><path d="M17.05 17.045c-3.896 3.894-10.234 3.894-14.129 0-3.895-3.895-3.896-10.231 0-14.126 3.895-3.894 10.233-3.894 14.13.001 3.894 3.894 3.894 10.23-.001 14.125zM15.96 4.009C12.666.715 7.306.716 4.01 4.01c-3.294 3.293-3.294 8.653 0 11.947 3.295 3.293 8.656 3.293 11.95 0 3.295-3.294 3.295-8.653 0-11.947zM6.26 7.28a1.168 1.168 0 1 1 2.336 0 1.168 1.168 0 0 1-2.336 0zm5.295 0a1.168 1.168 0 1 1 2.336.001 1.168 1.168 0 0 1-2.336 0zm2.76 4.781c-.724 1.673-2.418 2.755-4.317 2.755-1.94 0-3.645-1.087-4.344-2.769a.565.565 0 1 1 1.044-.433c.523 1.259 1.818 2.072 3.3 2.072 1.448 0 2.735-.814 3.28-2.073a.565.565 0 1 1 1.037.448z"/></symbol><symbol viewBox="0 0 27 25" id="star" xmlns="http://www.w3.org/2000/svg"><defs><clipPath id="bna"><path d="M20.98 25c-.158 0-.317-.025-.47-.078l-7.01-2.414-7.012 2.414c-.433.15-.916.082-1.29-.18a1.34 1.34 0 0 1-.575-1.133l.204-7.204L.29 10.694A1.319 1.319 0 0 1 .068 9.45a1.38 1.38 0 0 1 .935-.88l7.136-2.038L12.346.588A1.413 1.413 0 0 1 13.5 0c.46 0 .892.22 1.153.588l4.207 5.944 7.137 2.038c.442.126.792.456.934.88.143.425.06.89-.221 1.244l-4.538 5.711.205 7.204c.013.446-.203.87-.576 1.133a1.43 1.43 0 0 1-.822.259z"/></clipPath></defs><path fill="none" d="M20.98 25c-.158 0-.317-.025-.47-.078l-7.01-2.414-7.012 2.414c-.433.15-.916.082-1.29-.18a1.34 1.34 0 0 1-.575-1.133l.204-7.204L.29 10.694A1.319 1.319 0 0 1 .068 9.45a1.38 1.38 0 0 1 .935-.88l7.136-2.038L12.346.588A1.413 1.413 0 0 1 13.5 0c.46 0 .892.22 1.153.588l4.207 5.944 7.137 2.038c.442.126.792.456.934.88.143.425.06.89-.221 1.244l-4.538 5.711.205 7.204c.013.446-.203.87-.576 1.133a1.43 1.43 0 0 1-.822.259z" clip-path="url(#bna)"/></symbol><symbol viewBox="0 0 23 13" id="vk"><path d="M21.448 9.853c-.666-.774-1.45-1.434-2.192-2.134-.67-.633-.711-1-.173-1.729.587-.796 1.218-1.561 1.81-2.354.554-.74 1.12-1.479 1.41-2.365.185-.565.022-.814-.576-.913a1.91 1.91 0 0 0-.314-.018L17.867.336c-.437-.006-.678.178-.833.553a20.73 20.73 0 0 1-.672 1.501c-.563 1.108-1.193 2.18-2.075 3.086-.195.2-.41.453-.735.349-.407-.144-.527-.793-.52-1.012L13.028.851c-.079-.566-.208-.818-.789-.928H8.556c-.492 0-.738.185-1 .482-.152.172-.198.284.114.34.61.113.955.496 1.047 1.09.146.947.136 1.9.052 2.851a2.578 2.578 0 0 1-.189.815c-.178.408-.465.49-.843.24-.342-.227-.582-.548-.818-.87A18.947 18.947 0 0 1 4.757.991C4.59.595 4.304.355 3.87.349A92.528 92.528 0 0 0 .68.35c-.64.011-.83.312-.57.874 1.159 2.495 2.449 4.92 4.132 7.13.864 1.134 1.857 2.135 3.139 2.844 1.453.804 3.017 1.046 4.664.972.771-.035 1.003-.23 1.039-.974.024-.509.084-1.015.343-1.472.255-.45.64-.535 1.085-.256.223.14.41.318.587.506.434.46.853.934 1.303 1.378.565.557 1.235.885 2.077.818h3.259c.525-.033.797-.656.496-1.223-.212-.397-.49-.751-.785-1.094z"/></symbol><symbol viewBox="0 0 18 16" id="wallet"><path d="M17.293 12.343l.073-.002v2.496c0 .642-.54 1.163-1.206 1.163H1.206C.54 16 0 15.479 0 14.837V4.326c0-.643.54-1.164 1.206-1.164H16.16c.666 0 1.206.521 1.206 1.164v2.496a1.64 1.64 0 0 0-.073-.002h-4.076c-.863 0-1.564.677-1.564 1.508v2.506c0 .832.701 1.508 1.564 1.509zM18 8.328v2.506a.695.695 0 0 1-.707.682h-4.076a.695.695 0 0 1-.707-.682V8.328c0-.376.316-.682.707-.682h4.076c.39 0 .707.306.707.682zm-2.358 1.253c0-.544-.457-.984-1.02-.984-.564 0-1.021.44-1.021.984s.457.985 1.02.985c.564 0 1.02-.441 1.02-.985zm-1.24-7.552H5.965L12.093.076c.816-.26 1.697.168 1.967.956z"/></symbol><symbol viewBox="0 0 20 20" id="whats" xmlns="http://www.w3.org/2000/svg"><path d="M20 10c0 5.514-4.411 10-9.835 10a9.635 9.635 0 0 1-5.412-1.653L.97 19.577l1.226-3.716A10.037 10.037 0 0 1 .324 10c0-5.515 4.411-10 9.836-10h.005C15.589 0 20 4.486 20 10zm-3.943 2.734c-.07-.124-.26-.194-.55-.342-.288-.146-1.694-.852-1.96-.946-.26-.1-.509-.065-.705.218-.277.393-.549.793-.769 1.035-.173.187-.456.21-.693.11-.319-.134-1.21-.452-2.307-1.445-.851-.77-1.43-1.73-1.596-2.017-.168-.293-.018-.463.115-.622.145-.183.283-.313.428-.483.145-.17.226-.258.319-.458.098-.194.028-.394-.042-.542-.07-.147-.647-1.582-.884-2.163-.191-.464-.336-.482-.625-.494-.098-.005-.208-.011-.33-.011-.376 0-.768.112-1.006.358-.289.3-1.006 1-1.006 2.434 0 1.435 1.03 2.823 1.169 3.016.145.194 2.007 3.18 4.898 4.398 2.26.952 2.931.864 3.445.752.752-.165 1.693-.73 1.93-1.41.238-.683.238-1.265.17-1.388z"/></symbol><symbol viewBox="0 0 20 14" id="youtube"><path d="M20 5.317v3.365c0 2.134-.338 3.367-1.128 4.121-.772.737-1.963 1.037-4.114 1.037H5.753c-4.43 0-5.242-1.737-5.242-5.158V5.317c0-1.765 0-3.041.684-3.907C1.895.522 3.216.16 5.753.16h9.005c2.48 0 3.779.34 4.482 1.174.707.838.76 2.121.76 3.983zm-6.64 1.59a.627.627 0 0 0-.338-.555l-4.09-2.118a.63.63 0 0 0-.918.557V9.04a.627.627 0 0 0 .92.556l4.089-2.132a.627.627 0 0 0 .338-.556z"/></symbol></svg>