<svg xmlns="http://www.w3.org/2000/svg" width="43" height="30"><path fill="#fff" d="M43 11.31v7.38c0 4.679-.745 7.382-2.49 9.037C38.81 29.341 36.18 30 31.434 30H11.566C1.79 30 0 26.19 0 18.69v-7.38c0-3.872 0-6.67 1.508-8.568C3.054.794 5.968 0 11.566 0h19.867c5.473 0 8.339.746 9.891 2.575C42.884 4.412 43 7.226 43 11.31zm-14.65 3.488c0-.512-.288-.982-.747-1.218L18.58 8.936a1.397 1.397 0 0 0-1.359.045c-.414.25-.667.695-.667 1.175v9.318c0 .481.254.927.669 1.176a1.395 1.395 0 0 0 1.36.043l9.022-4.674c.458-.238.745-.708.745-1.22z"/></svg>