<svg viewBox="0 0 17 17">
    <path d="M17 8.5c0 4.714-3.786 8.5-8.5 8.5A8.476 8.476 0 0 1 0 8.5C0 3.786 3.786 0 8.5 0S17 3.786 17 8.5zm-3.516-1.507c0-1.082-.85-1.932-1.932-1.932-.502 0-1.004.232-1.352.58L6.645 9.195a.374.374 0 0 0 0 .541l.541.541a.418.418 0 0 0 .27.116.418.418 0 0 0 .271-.116l3.555-3.554c.038-.039.116-.116.27-.116.232 0 .387.154.387.386a.35.35 0 0 1-.116.27L7.61 11.475c-.618.58-1.622.58-2.202 0-.309-.27-.464-.696-.464-1.082 0-.386.155-.773.464-1.082l4.675-4.675a.373.373 0 0 0 0-.54l-.54-.542a.35.35 0 0 0-.271-.116.35.35 0 0 0-.27.116L4.326 8.23c-.58.619-.888 1.353-.888 2.203 0 .85.309 1.622.888 2.202.618.58 1.352.889 2.202.889.85 0 1.623-.31 2.203-.889l4.211-4.211c.386-.387.58-.85.541-1.43z" />
</svg>