<svg viewBox="0 0 36 36">
    <path d="M36 18v11.032h-5.807V36H0V0h21.724l8.47 8.47V18zM22.064 8.129h6.147l-6.147-6.147zm6.968 20.903h-1.161v-1.161h-.921l-.58.58H15.318l-1.366-2.762-.115-.46-2.225 1.884v6.564h-9.29v-9.29h9.29v1.205l1.911-1.618-.764-3.057.7-3.498h6.119l-.418-1.742v-1.853l1.349-3.372h3.296v3.927l1.62 3.239 2.058 1.543h.387V18h1.161V9.29h-8.129V1.161H1.161V34.84h27.871zm-7.966-10.451h-6.655l-.462 2.308 1.115 4.457.972 1.944h9.853l.58-.58h1.402v-6.388h-.774l-2.587-1.94-1.865-3.729v-3.04h-1.349l-.974 2.434v1.559zM4.162 29.354l.966-.644.989 1.483h.057l4.278-3.619v-1.026H3.484v6.968h6.968v-4.42L6.6 31.355H5.496zM34.839 19.16h-5.807v8.71h5.807zm-23.226-7.548h-9.29v-9.29h9.29v1.204L13.56 1.88l.75.887-2.698 2.282zm-1.161-8.13H3.484v6.969h6.968v-4.42L6.6 9.29H5.496l-1.334-2 .966-.645.989 1.484h.057l4.278-3.62zm1.16 19.162h-9.29v-9.29h9.29v1.205l1.949-1.649.75.887-2.698 2.282zm-1.16-8.129H3.484v6.968h6.968v-4.42L6.6 20.321H5.496l-1.334-2 .966-.644.989 1.483h.057l4.278-3.619z" />
</svg>