<svg viewBox="0 0 20 13">
    <path d="M11.086 12.134c0-.432.363-.78.811-.78h5.863c.448 0 .811.348.811.78 0 .43-.363.78-.81.78h-5.864c-.448 0-.81-.35-.81-.78zm0-5.584c0-.432.363-.78.811-.78h3.918c.448 0 .81.348.81.78 0 .43-.362.78-.81.78h-3.918c-.448 0-.81-.35-.81-.78zm0 2.791c0-.43.363-.78.811-.78h7.292c.448 0 .81.35.81.78 0 .432-.362.781-.81.781h-7.292c-.448 0-.81-.35-.81-.78zm0-5.585c0-.431.363-.78.811-.78h7.292c.448 0 .81.349.81.78 0 .43-.362.78-.81.78h-7.292c-.448 0-.81-.35-.81-.78zm0-2.792c0-.432.363-.78.811-.78h7.292c.448 0 .81.348.81.78 0 .431-.362.78-.81.78h-7.292c-.448 0-.81-.349-.81-.78zM0 11.829V1.17C0 .525.545 0 1.216 0h7.183c.67 0 1.216.525 1.216 1.17v10.66c0 .645-.545 1.17-1.216 1.17H1.216C.543 13 0 12.477 0 11.83z" />
</svg>