<svg viewBox="0 0 15 19">
    <path d="M1.085 4.627h12.83l-.675 13.457c-.023.512-.47.916-1.012.916H2.772c-.543 0-.989-.404-1.012-.916zm8.554 11.03c0 .215.184.389.411.389h.658c.227 0 .412-.174.412-.389V7.97a.4.4 0 0 0-.412-.388h-.658a.4.4 0 0 0-.411.388zM6.759 7.97v7.688a.4.4 0 0 0 .412.389h.658a.4.4 0 0 0 .411-.389V7.97a.4.4 0 0 0-.411-.388h-.658a.4.4 0 0 0-.411.388zM3.88 15.657a.4.4 0 0 0 .412.389h.658a.4.4 0 0 0 .41-.389V7.97a.4.4 0 0 0-.41-.388h-.658a.4.4 0 0 0-.412.388zM15 1.58v1.885H0V1.579c0-.332.284-.6.635-.6h4.362V.2c0-.11.095-.2.213-.2h4.58c.117 0 .212.09.212.2V.98h4.362c.351 0 .636.268.636.6z" />
</svg>