<svg viewBox="0 0 19 14">
    <path d="M8.879 2.69c.06.094.093.21.093.331v10.29c-1.829-1.846-4.48-2.164-6.063-2.168a.67.67 0 0 1-.68-.655V.655c0-.175.07-.34.2-.465A.683.683 0 0 1 2.904 0h.001C4.493.003 7.377.358 8.88 2.69zm7.212 8.453c-1.583.004-4.234.322-6.063 2.168V3.021c0-.122.032-.237.093-.332C11.622.358 14.507.003 16.094 0h.001c.18 0 .349.068.476.191.13.124.2.29.2.465v9.833a.67.67 0 0 1-.68.655zM19 2.923v10.42c0 .201-.093.388-.256.513a.698.698 0 0 1-.576.126c-1.629-.358-4.487-.774-7.198-.134 1.568-1.43 3.781-1.683 5.123-1.687.956-.002 1.734-.753 1.734-1.673v-8.22h.493c.375 0 .68.293.68.655zM2.906 12.16c1.343.003 3.556.256 5.124 1.687-2.711-.64-5.57-.224-7.198.134a.697.697 0 0 1-.576-.127.643.643 0 0 1-.256-.512V2.923c0-.362.305-.656.68-.656h.493v8.22c0 .921.777 1.672 1.733 1.674z" />
</svg>