<svg viewBox="0 0 16 16">
    <path d="M5.78 8.827v1.267c0 .2-.166.363-.371.363H4.113a.367.367 0 0 1-.371-.363V8.827c0-.2.166-.363.37-.363H5.41c.205 0 .371.163.371.363zm3.24 1.267c0 .2-.167.363-.372.363H7.352a.367.367 0 0 1-.371-.363V8.827c0-.2.166-.363.37-.363h1.297c.205 0 .371.163.371.363zm3.238 0c0 .2-.166.363-.37.363H10.59a.367.367 0 0 1-.371-.363V8.827c0-.2.166-.363.371-.363h1.296c.205 0 .371.163.371.363zm-6.478 1.9v1.267c0 .2-.166.364-.371.364H4.113a.367.367 0 0 1-.371-.364v-1.267c0-.2.166-.363.37-.363H5.41c.205 0 .371.163.371.363zm3.24 1.267c0 .2-.167.364-.372.364H7.352a.367.367 0 0 1-.371-.364v-1.267c0-.2.166-.363.37-.363h1.297c.205 0 .371.163.371.363zm3.238-1.267v1.267c0 .2-.166.364-.37.364H10.59a.367.367 0 0 1-.371-.364v-1.267c0-.2.166-.363.371-.363h1.296c.205 0 .371.163.371.363zM16 3.214v11.343c0 .791-.658 1.443-1.467 1.443H1.467C.657 16 0 15.35 0 14.557V3.215c0-.778.642-1.41 1.424-1.434v1.936c0 .875.726 1.58 1.62 1.58h1.023c.894 0 1.63-.705 1.63-1.58V1.775h4.606v1.942c0 .875.736 1.58 1.63 1.58h1.023c.894 0 1.62-.705 1.62-1.58V1.78c.782.023 1.424.656 1.424 1.434zm-1.899 10.637V7.992a.627.627 0 0 0-.634-.62H2.505a.627.627 0 0 0-.634.62v5.859c0 .342.284.62.634.62h10.962c.35 0 .634-.278.634-.62zM2.485 3.716V.543c0-.3.249-.543.556-.543h1.01a.55.55 0 0 1 .557.543v3.173a.55.55 0 0 1-.556.543H3.04a.55.55 0 0 1-.556-.543zm8.88 0V.543c0-.3.249-.543.555-.543h1.011a.55.55 0 0 1 .556.543v3.173a.55.55 0 0 1-.556.543h-1.01a.55.55 0 0 1-.556-.543z" />
</svg>