<svg xmlns="http://www.w3.org/2000/svg" width="20" height="17" viewBox="0 0 20 17"><g><g><path fill="#99a1ba" d="M20 9.17l-.024 3.104v3.15c0 .447-.36.8-.817.8a.75.75 0 0 1-.457-.141l-2.693-1.528c-.024 0-.024-.024-.048-.024l-.649-.376V10.44l.697-.4 2.741-1.552c.409-.235.913-.094 1.13.282.096.118.12.259.12.4zM0 3.785C0 1.693 1.73 0 3.87 0s3.87 1.693 3.87 3.785c0 2.093-1.73 3.786-3.87 3.786S-.025 5.878 0 3.785zm2.283 0c0 .847.721 1.552 1.587 1.552.865 0 1.586-.682 1.586-1.552 0-.846-.697-1.551-1.586-1.551-.89 0-1.61.681-1.587 1.551zM14.64 9.358v5.737c0 1.035-.865 1.905-1.947 1.905h-9.88c-1.058 0-1.947-.847-1.947-1.905V9.358c0-.658.385-1.27.937-1.575.625.329 1.323.493 2.068.493.913 0 1.779-.258 2.5-.728h2.74c.721.47 1.587.728 2.5.728.746 0 1.443-.188 2.068-.493.553.305.937.917.961 1.575zM7.74 3.785C7.74 1.693 9.47 0 11.61 0s3.87 1.693 3.87 3.785c0 2.093-1.73 3.786-3.87 3.786S7.74 5.878 7.74 3.785zm2.284 0c0 .847.72 1.552 1.586 1.552.866 0 1.587-.682 1.587-1.552 0-.846-.697-1.551-1.587-1.551s-1.586.681-1.586 1.551z"/></g></g></svg>