<svg viewBox="0 0 16 16">
    <path d="M13.662 13.657c-3.121 3.12-8.199 3.12-11.32 0-3.12-3.12-3.12-8.196 0-11.316 3.121-3.12 8.199-3.12 11.32.001 3.12 3.12 3.12 8.196 0 11.315zm-.873-10.443a6.779 6.779 0 0 0-9.573 0 6.774 6.774 0 0 0 0 9.571 6.779 6.779 0 0 0 9.573 0 6.774 6.774 0 0 0 0-9.57zm-7.772 2.62a.936.936 0 1 1 1.871 0 .936.936 0 0 1-1.871 0zm4.241 0a.936.936 0 1 1 1.872.001.936.936 0 0 1-1.872 0zm2.212 3.83c-.58 1.34-1.938 2.207-3.459 2.207-1.554 0-2.92-.87-3.48-2.218a.452.452 0 1 1 .837-.347c.418 1.009 1.456 1.66 2.643 1.66 1.16 0 2.192-.652 2.628-1.66a.453.453 0 0 1 .831.358z" />
</svg>