<svg viewBox="0 0 9 11">
    <path d="M0 11V0h4c1.445 0 2.573.253 3.384.759.81.506 1.216 1.26 1.216 2.263 0 .524-.13.99-.392 1.398-.261.408-.664.715-1.208.921.682.146 1.186.44 1.512.88.325.441.488.949.488 1.523 0 1.073-.381 1.883-1.144 2.432-.763.55-1.856.824-3.28.824zm2.712-6.414h1.344c.613-.01 1.072-.122 1.376-.337.304-.214.456-.527.456-.94 0-.469-.155-.81-.464-1.024-.31-.214-.784-.32-1.424-.32H2.712zm0 4.45h1.864c.576 0 1.008-.107 1.296-.322.288-.214.432-.542.432-.985 0-.479-.124-.84-.372-1.085-.248-.244-.65-.366-1.204-.366H2.712z" />
</svg>