<svg viewBox="0 0 17 15">
    <path d="M.99 6.852H.186L.18 6.84c-.008-.343.099-.63.322-.869.222-.239.517-.358.885-.358.39 0 .694.1.912.301.219.2.328.476.328.824 0 .235-.058.444-.174.624-.116.18-.33.451-.642.806l-.48.545.007.03h1.334v.605H.213v-.532l1.154-1.254a2.68 2.68 0 0 0 .333-.464.816.816 0 0 0 .102-.354.528.528 0 0 0-.104-.342c-.069-.085-.172-.128-.31-.128a.328.328 0 0 0-.292.162.791.791 0 0 0-.106.416zM1.01.876H.213V.26L1.877 0v3.07h.796v.68H.213v-.68h.796zm1.563 12.5c.108.15.161.327.161.534 0 .34-.124.606-.373.8-.248.195-.566.29-.953.29-.333 0-.624-.096-.874-.278-.25-.183-.37-.456-.362-.803l.005-.033H.98c0 .152.045.236.133.317.089.08.197.137.323.137.145 0 .26-.043.346-.128a.438.438 0 0 0 .13-.324c0-.18-.045-.316-.136-.398a.549.549 0 0 0-.381-.133h-.386v-.605h.386a.454.454 0 0 0 .341-.132.499.499 0 0 0 .12-.354.423.423 0 0 0-.108-.294c-.071-.08-.175-.116-.312-.116a.447.447 0 0 0-.283.103c-.08.065-.121.112-.121.263h-.8l-.005-.028a.858.858 0 0 1 .334-.732c.232-.183.514-.275.846-.275.385 0 .693.092.924.276.23.185.346.446.346.784a.79.79 0 0 1-.15.465c-.1.142-.234.252-.4.332.19.074.338.184.445.333zm1.331-2.213H17v2.496H3.903zm0-4.916H17v2.496H3.903zm0-5.068H17v2.496H3.903z" />
</svg>