<svg viewBox="0 0 21 15">
    <path d="M11.947 8.417H.95c-.524 0-.95-.41-.95-.917 0-.506.426-.917.95-.917h10.998L10.72 5.398a.895.895 0 0 1 0-1.297.973.973 0 0 1 1.342 0l2.848 2.75a.935.935 0 0 1 .063.067l.012.016c.015.018.03.037.043.056l.01.016.038.061.005.011a.922.922 0 0 1 .035.07l.002.007.03.078.001.008a.908.908 0 0 1 .02.079l.004.021a.925.925 0 0 1 .015.159.901.901 0 0 1-.015.158l-.003.022a.924.924 0 0 1-.02.078l-.003.01a.853.853 0 0 1-.028.076l-.003.007a.872.872 0 0 1-.034.07l-.006.012a.887.887 0 0 1-.038.061l-.01.016a.915.915 0 0 1-.043.056l-.012.016a.965.965 0 0 1-.063.066l-2.847 2.75a.963.963 0 0 1-.672.27.964.964 0 0 1-.671-.27.895.895 0 0 1 0-1.296zm8.937-.917c0 4.135-3.483 7.5-7.765 7.5-2.583 0-4.99-1.236-6.438-3.306a.898.898 0 0 1 .255-1.273.97.97 0 0 1 1.318.246c1.094 1.565 2.913 2.5 4.865 2.5 3.235 0 5.867-2.543 5.867-5.667 0-3.124-2.632-5.666-5.867-5.666-1.958 0-3.78.938-4.873 2.51a.97.97 0 0 1-1.317.25.898.898 0 0 1-.259-1.273C8.117 1.24 10.528 0 13.12 0c4.28 0 7.764 3.364 7.764 7.5z" />
</svg>