<svg viewBox="0 0 10 11">
    <path d="M2.952 8.098a.977.977 0 0 1 .277.701c0 .275-.092.51-.277.702a.884.884 0 0 1-.66.288.882.882 0 0 1-.665-.288.983.983 0 0 1-.273-.702c0-.275.09-.508.273-.7a.88.88 0 0 1 .664-.29c.256 0 .477.097.661.29zM1.777 6.497a.977.977 0 0 1-.736.323.978.978 0 0 1-.736-.323A1.09 1.09 0 0 1 0 5.72c0-.303.102-.562.306-.777a.977.977 0 0 1 .736-.323c.287 0 .532.107.736.323.204.216.306.474.306.777 0 .302-.102.561-.306.777zm5.98-3.468a.545.545 0 0 1-.153-.389c0-.151.052-.28.153-.388a.489.489 0 0 1 .369-.162c.143 0 .265.054.367.162a.545.545 0 0 1 .153.388c0 .151-.05.28-.153.389a.489.489 0 0 1-.367.161.489.489 0 0 1-.369-.161zM3.102 1.784a1.2 1.2 0 0 1 .335.856 1.2 1.2 0 0 1-.335.856 1.076 1.076 0 0 1-.81.354c-.318 0-.588-.118-.811-.354a1.2 1.2 0 0 1-.336-.856c0-.334.112-.62.336-.856.223-.236.493-.354.81-.354.317 0 .587.118.811.354zm6.899 3.936c0 .183-.061.34-.183.467a.586.586 0 0 1-.442.193.586.586 0 0 1-.443-.193.654.654 0 0 1-.182-.467c0-.184.06-.34.182-.468a.587.587 0 0 1 .443-.192c.173 0 .32.064.442.192a.654.654 0 0 1 .183.468zM8.64 8.256a.762.762 0 0 1 .215.543.762.762 0 0 1-.215.544.684.684 0 0 1-.514.226.684.684 0 0 1-.515-.226.762.762 0 0 1-.215-.544c0-.21.072-.391.215-.543a.684.684 0 0 1 .515-.227c.2 0 .37.076.514.227zM5.798 9.497c.162.172.244.38.244.622 0 .243-.082.45-.244.622a.782.782 0 0 1-.59.258.782.782 0 0 1-.59-.258.871.871 0 0 1-.243-.622c0-.243.081-.45.244-.622a.783.783 0 0 1 .59-.258c.23 0 .426.086.589.258zM6.094.385c.243.257.364.569.364.935 0 .367-.121.679-.364.935a1.174 1.174 0 0 1-.886.385c-.347 0-.642-.128-.885-.385a1.31 1.31 0 0 1-.365-.935c0-.366.122-.678.365-.935.243-.256.538-.384.885-.384.348 0 .643.128.886.384z" />
</svg>