<svg xmlns="http://www.w3.org/2000/svg" width="48" height="39" viewBox="0 0 48 39"><g><g><path fill="#4d4ce0" d="M47.541 8.859A.708.708 0 0 1 48 9.52v3.232a.708.708 0 0 1-.459.661l-7.271 2.752v11.149a.706.706 0 0 1-.267.552 25.441 25.441 0 0 1-3.326 2.239v3.612a2.697 2.697 0 0 1 1.996 2.594c0 1.482-1.215 2.689-2.709 2.689-1.493 0-2.708-1.207-2.708-2.69 0-1.237.847-2.282 1.995-2.593v-2.865A25.838 25.838 0 0 1 24 33.445a25.803 25.803 0 0 1-16.002-5.579.705.705 0 0 1-.267-.552v-5.865a.71.71 0 0 1 .712-.708.71.71 0 0 1 .713.708v5.522A24.37 24.37 0 0 0 24 32.029c3.927 0 7.799-.964 11.251-2.763v-11.2l-10.997 4.162a.721.721 0 0 1-.508 0l-14.59-5.522v1.912a.71.71 0 0 1-.713.708.71.71 0 0 1-.712-.708v-2.452L.459 13.413a.708.708 0 0 1-.46-.66V9.52c0-.293.184-.557.46-.661L23.746.044a.719.719 0 0 1 .508 0l5.5 2.082c.368.14.552.548.412.914a.716.716 0 0 1-.92.409L24 1.463 2.714 9.52 24 17.577 34.11 13.75 23.706 9.073a.706.706 0 0 1-.355-.937.715.715 0 0 1 .943-.353l11.694 5.257 9.298-3.52-13.432-5.084a.706.706 0 0 1-.412-.913.715.715 0 0 1 .92-.41zM37.247 36.31a1.28 1.28 0 0 0-1.283-1.274 1.28 1.28 0 0 0-1.283 1.274 1.28 1.28 0 0 0 1.283 1.273 1.28 1.28 0 0 0 1.283-1.273zM1.426 12.264l21.86 8.275v-1.717l-21.86-8.275zM35.25 16.55v-1.717l-10.538 3.99v1.716zm3.593.155l-2.167.82v10.936a23.882 23.882 0 0 0 2.167-1.49zm7.73-4.44v-1.718l-9.897 3.747v1.716z"/></g></g></svg>