<svg viewBox="0 0 35 22">
    <path d="M34.193 17.189c.471.95.802 2.9.802 3.456 0 .741-.591 1.343-1.318 1.343-.728 0-1.32-.602-1.32-1.343 0-.557.33-2.505.802-3.456a1.347 1.347 0 0 1-.801-1.236c0-.528.306-.976.743-1.195V6.965l-15.53 6.162a.999.999 0 0 1-.72 0L.17 6.51a.253.253 0 0 1-.159-.24.252.252 0 0 1 .165-.235L16.88.033a.975.975 0 0 1 .662 0l16.705 6.003c.096.035.163.13.163.236a.25.25 0 0 1-.158.239v8.248a1.34 1.34 0 0 1-.06 2.43zM16.85 14.386a.973.973 0 0 0 .72 0l11.46-4.544c-.003 1.903-.003 4.143-.003 4.497 0 3.545-5.235 6.425-11.815 6.607-6.582-.182-11.816-3.064-11.816-6.607l-.002-4.497z" />
</svg>