<svg viewBox="0 0 24 24">
    <path d="M24.014 12.013c0 6.627-5.374 12-12.001 12S.012 18.64.012 12.014 5.386.012 12.012.012c6.628 0 12.002 5.374 12.002 12zm-9.297 5.757c-.107.05-.277.108-.514.173-.238.066-.448.1-.636.1-.397 0-.68-.066-.84-.198-.163-.131-.243-.379-.243-.739 0-.144.024-.358.074-.638.051-.278.108-.527.17-.747l.77-2.722a4.23 4.23 0 0 0 .154-.825c.028-.298.042-.508.042-.627 0-.573-.203-1.039-.604-1.398-.404-.357-.977-.539-1.72-.539-.41 0-.847.074-1.31.222-.462.147-.947.323-1.453.53l-.204.841a8.7 8.7 0 0 1 .538-.18c.21-.061.415-.09.614-.09.407 0 .68.067.826.204.144.137.216.381.216.728 0 .195-.023.41-.07.643-.046.232-.105.48-.173.745l-.773 2.73a8.476 8.476 0 0 0-.15.771c-.03.227-.045.451-.045.67 0 .561.206 1.024.62 1.389.415.363.997.547 1.745.547.487 0 .915-.064 1.282-.192.369-.128.86-.313 1.478-.556zm.197-11.423c0-.472-.18-.878-.539-1.215a1.824 1.824 0 0 0-1.296-.505c-.503 0-.938.168-1.3.505-.359.337-.542.743-.542 1.215 0 .474.182.88.542 1.213.362.333.797.5 1.3.5.505 0 .938-.167 1.296-.5.358-.333.539-.738.539-1.213z" />
</svg>