<svg viewBox="0 0 19 18">
    <path d="M15.23 4.224a1.1 1.1 0 0 1-2.198 0 1.1 1.1 0 0 1 2.199 0zm-1.249 4.775a4.647 4.647 0 0 1-4.645 4.637 4.648 4.648 0 0 1-4.645-4.637 4.646 4.646 0 0 1 9.29 0zm-1.962 0a2.683 2.683 0 0 0-5.364 0 2.683 2.683 0 0 0 5.364 0zm6.335-4.46v8.92A4.55 4.55 0 0 1 13.805 18H4.87a4.551 4.551 0 0 1-4.55-4.543V4.54a4.552 4.552 0 0 1 4.55-4.542h8.936a4.551 4.551 0 0 1 4.55 4.542zm-1.962 0a2.587 2.587 0 0 0-2.587-2.582H4.87A2.586 2.586 0 0 0 2.282 4.54v8.92a2.588 2.588 0 0 0 2.587 2.583h8.936a2.589 2.589 0 0 0 2.587-2.584z" />
</svg>