<svg viewBox="0 0 16 19">
    <path d="M9.38 12.779c0 .419-.192.796-.502 1.042l.352 1.7a.314.314 0 0 1-.31.368H7.063a.31.31 0 0 1-.31-.369l.36-1.715a1.317 1.317 0 0 1-.469-1.248 1.356 1.356 0 0 1 1.188-1.116c.059-.008.118-.008.168-.008.761 0 1.372.599 1.38 1.346zm2.185-6.64l.008 2.134H4.527V6.238c0-1.798 1.356-3.365 3.18-3.538.117-.008.234-.016.343-.016 1.941 0 3.523 1.551 3.515 3.455zM16 17.383V9.89c0-.895-.737-1.617-1.649-1.617h-.041V6.139C14.31 2.75 11.498 0 8.05 0c-.084 0-.159.008-.243.008C4.418.131 1.79 2.963 1.79 6.287v1.986h-.142C.736 8.273 0 8.995 0 9.89v7.493C0 18.278.736 19 1.648 19h12.703c.912 0 1.649-.722 1.649-1.617z" />
</svg>