<svg viewBox="0 0 18 18">
    <path d="M11.99 8.915l.005.42c-.094 1.823-1.393 3.365-3.369 3.365-1.772 0-3.123-1.356-3.123-3.502 0-1.917 1.117-3.605 3.131-3.605H8.7c1.745 0 3.19 1.248 3.29 3.322zM8.645 3.737c-2.66 0-5 2.522-5 5.383 0 2.833 2.34 5.326 5 5.326 1.346 0 2.581-.573 3.51-1.554l.013.529c-.012 1.617 1.968 2.698 3.301 1.587 2.942-2.443 3.119-8.73.102-12.087C12.684-.289 7.897-.927 4.267 1.375-.478 4.383-.573 10.19 1.216 13.49c2.648 4.888 8.317 4.98 10.354 4.057 1.348-.611.749-2.48-.55-1.922-2.563 1.103-6.875-.003-8.382-3.708-1.383-3.398.04-7.016 2.265-8.65 2.092-1.537 6.026-1.987 8.958.747 3.147 2.932 1.811 7.994.695 9.216-.286.312-.802.061-.756-.424l-.003-7.407c0-.209-.135-.867-.788-.867h-.106c-.418 0-.719.36-.719.836v-.004c-.929-.992-2.194-1.626-3.54-1.626z" />
</svg>