<svg viewBox="0 0 27 25">
    <path d="M11.25 0C17.463 0 22.5 4.246 22.5 9.483c0 5.238-5.037 9.484-11.25 9.484-.597 0-1.182-.04-1.754-.115-2.417 2.507-5.207 2.957-7.996 3.023v-.614c1.506-.765 2.719-2.16 2.719-3.753 0-.222-.017-.44-.048-.654C1.627 15.115 0 12.46 0 9.484 0 4.245 5.037 0 11.25 0zm12.094 21.257c0 1.366.85 2.56 2.156 3.217V25c-2.417-.057-4.636-.442-6.73-2.591-.495.065-1.003.099-1.52.099-2.238 0-4.299-.63-5.944-1.686 3.39-.012 6.592-1.144 9.02-3.19 1.223-1.032 2.188-2.242 2.869-3.598a10.063 10.063 0 0 0 1.057-5.312C25.952 10.186 27 12.18 27 14.38c0 2.55-1.41 4.827-3.615 6.317-.027.183-.041.37-.041.56z" />
</svg>