<svg xmlns="http://www.w3.org/2000/svg" width="50" height="50" viewBox="0 0 50 50">
    <path class="rupor" fill="#9a9be9" d="M25 0c13.807 0 25 11.193 25 25S38.807 50 25 50 0 38.807 0 25 11.193 0 25 0z" />
    <path fill="#fff" d="M25.508 33.74c0 .466-.275.889-.705 1.086a1.245 1.245 0 0 1-1.304-.162l-6.703-5.437h-3.57a1.214 1.214 0 0 1-1.226-1.2v-4.783c0-.663.549-1.2 1.226-1.2h3.57l6.703-5.438c.367-.297.874-.36 1.304-.162.43.198.705.621.705 1.086v16.21zm4.712-1.876c-.03.002-.059.004-.088.004-.324 0-.637-.126-.867-.352l-.165-.161a1.181 1.181 0 0 1-.118-1.564 6.832 6.832 0 0 0 1.403-4.156c0-1.62-.55-3.141-1.592-4.397a1.181 1.181 0 0 1 .085-1.605l.164-.16c.244-.24.573-.371.928-.35.346.017.67.176.888.439a9.371 9.371 0 0 1 2.208 6.074c0 2.089-.675 4.078-1.952 5.75-.213.279-.54.454-.894.478zm5.069 3.71a1.237 1.237 0 0 1-.937.426 1.24 1.24 0 0 1-.867-.352l-.161-.157a1.182 1.182 0 0 1-.072-1.622 12.651 12.651 0 0 0 3.067-8.234c0-3.128-1.166-6.14-3.283-8.48a1.182 1.182 0 0 1 .05-1.642l.16-.158c.239-.234.548-.364.904-.353.338.01.657.156.881.403A15.207 15.207 0 0 1 39 25.635a15.23 15.23 0 0 1-3.71 9.939z" />
</svg>