<svg viewBox="0 0 18 18">
    <path d="M9.001-.005c4.962 0 9 3.826 9 8.53 0 4.702-4.038 8.527-9 8.527a9.339 9.339 0 0 1-3.672-.742C3.287 17.552.465 17.979.343 17.997a.298.298 0 0 1-.309-.173.327.327 0 0 1 .056-.363c.69-.726 1.164-2.26 1.343-4.325A8.156 8.156 0 0 1 .002 8.524c0-4.703 4.037-8.529 9-8.529zm-4.2 9.793c.663 0 1.2-.568 1.2-1.264 0-.697-.537-1.265-1.2-1.265-.661 0-1.199.568-1.199 1.265 0 .696.538 1.264 1.2 1.264zm4.2 0c.662 0 1.2-.568 1.2-1.264 0-.697-.538-1.265-1.2-1.265-.662 0-1.2.568-1.2 1.265 0 .696.538 1.264 1.2 1.264zm4.2 0c.662 0 1.199-.568 1.199-1.264 0-.697-.537-1.265-1.2-1.265-.661 0-1.2.568-1.2 1.265 0 .696.539 1.264 1.2 1.264z" />
</svg>