<svg xmlns="http://www.w3.org/2000/svg" width="40" height="30" viewBox="0 0 40 30"><g><g opacity=".5"><path fill="#fff" d="M24.412 1.08V28.92c0 .6-.494 1.08-1.113 1.08-2.763 0-5.468-.712-7.835-2.065a15.345 15.345 0 0 1-5.213-4.892H4.346c-2.4 0-4.346-1.89-4.346-4.219v-7.646c0-2.33 1.946-4.22 4.346-4.22h5.905a15.347 15.347 0 0 1 5.213-4.892A15.793 15.793 0 0 1 23.299 0c.619 0 1.113.488 1.113 1.08zM9.765 9.12H4.346c-1.17 0-2.12.92-2.12 2.058v7.646c0 1.137.95 2.057 2.12 2.057h5.419zm12.42-6.91c-4.181.344-7.991 2.627-10.193 6.133v13.323c2.202 3.507 6.012 5.789 10.193 6.133zm11.102 12.81c0 3.331-1.691 6.462-4.512 8.375-.19.129-.412.193-.635.193-.355 0-.7-.16-.915-.465a1.069 1.069 0 0 1 .28-1.505c2.227-1.505 3.555-3.98 3.555-6.605 0-2.626-1.328-5.1-3.555-6.606a1.055 1.055 0 0 1-.28-1.505 1.127 1.127 0 0 1 1.55-.272c2.82 1.906 4.512 5.06 4.512 8.39zM40 15.005c0 5.116-2.59 9.92-6.92 12.85-.19.128-.412.192-.635.192-.354 0-.7-.16-.915-.464a1.069 1.069 0 0 1 .28-1.506c3.736-2.521 5.963-6.669 5.963-11.072 0-4.404-2.227-8.543-5.963-11.073a1.055 1.055 0 0 1-.28-1.505 1.128 1.128 0 0 1 1.55-.273C37.418 5.083 40 9.887 40 15.003z"/></g></g></svg>