<svg xmlns="http://www.w3.org/2000/svg" width="19" height="18" viewBox="0 0 19 18"><g><g><path fill="#99a1ba" d="M18.734 3.194l-1.36 1.339L14.404 1.6 15.762.26a.903.903 0 0 1 .636-.26c.23 0 .461.087.637.26l1.7 1.678a.879.879 0 0 1 0 1.255zm-4.968-.965l2.973 2.932-8.189 8.077-2.972-2.933zM7.909 13.865L4.3 14.49l.635-3.557zm5.245-4.081l1.945-1.92v8.89c0 .685-.566 1.244-1.258 1.244H1.258c-.692 0-1.258-.56-1.258-1.243V4.32c0-.684.566-1.244 1.258-1.244h10.547L9.855 5h-7.91v11.075h11.209z"/></g></g></svg>