<svg viewBox="0 0 12 20">
    <path d="M3.52 5.087a2.468 2.468 0 0 1 2.476-2.502 2.463 2.463 0 0 1 2.47 2.472A2.459 2.459 0 0 1 6.009 7.54 2.464 2.464 0 0 1 3.52 5.087zM.944 5.05c-.016 2.77 2.25 5.064 5.012 5.073 2.79.01 5.07-2.231 5.085-4.996.014-2.83-2.23-5.12-5.025-5.128C3.226-.008.96 2.25.944 5.05zm10.814 5.592c-.286-.467-.784-.664-1.318-.526-.274.07-.511.21-.733.379-2.236 1.506-5.296 1.464-7.524-.069a2.425 2.425 0 0 0-.343-.203c-.618-.292-1.212-.156-1.566.352-.414.594-.362 1.17.162 1.674.135.13.288.243.437.359 1.195.936 2.591 1.318 4.14 1.48-.11.117-.18.197-.255.273-1.136 1.14-2.27 2.281-3.409 3.42-.235.234-.404.497-.42.84-.025.508.29 1.013.783 1.253.466.226.942.154 1.343-.241.892-.882 1.78-1.768 2.653-2.668.219-.225.337-.275.585-.015.85.89 1.735 1.75 2.603 2.624.226.229.481.391.808.414.517.035 1.043-.295 1.278-.798.215-.46.133-.95-.257-1.346-1.146-1.16-2.302-2.313-3.452-3.47-.08-.08-.14-.149-.268-.288.847-.102 1.703-.255 2.485-.558.826-.32 1.57-.78 2.188-1.416.403-.415.407-.936.08-1.47z" />
</svg>