<svg xmlns="http://www.w3.org/2000/svg" width="44" height="44" viewBox="0 0 44 44"><g><g><path fill="#4d4ce0" d="M44 8.067v35.2a.733.733 0 0 1-.733.733h-35.2a.733.733 0 0 1-.734-.733v-17.6c0-.406.329-.734.734-.734h6.6a.733.733 0 0 1 .695.965l-.308.922a1.907 1.907 0 1 0 3.625 0l-.308-.922a.732.732 0 0 1 .696-.965h5.866v-5.866a.734.734 0 0 1 .965-.696l.922.308a1.906 1.906 0 1 0 0-3.625l-.922.308a.734.734 0 0 1-.965-.695v-6.6c0-.405.329-.734.734-.734h17.6c.405 0 .733.329.733.734zM25.898 35.97l.922.308a1.906 1.906 0 1 0 0-3.625l-.922.308a.734.734 0 0 1-.965-.695V26.4h-4.85a3.374 3.374 0 1 1-6.434 0H8.8v16.133h16.134v-5.866a.733.733 0 0 1 .965-.695zm16.635 6.562V26.4h-5.866a.732.732 0 0 1-.696-.965l.308-.922a1.907 1.907 0 1 0-3.625 0l.308.922a.733.733 0 0 1-.695.965H26.4v4.85a3.374 3.374 0 1 1 0 6.434v4.85zm0-33.733H26.4v4.85a3.373 3.373 0 0 1 2.999 5.955c-.866.63-1.98.809-3 .479v4.85h4.85a3.373 3.373 0 1 1 6.435 0h4.85zm-19.235 1.748a3.373 3.373 0 0 1-4.231 2.202v5.583a.733.733 0 0 1-.734.734H12.75a3.373 3.373 0 1 1-6.434 0H.733A.733.733 0 0 1 0 18.333V.733C0 .328.328 0 .733 0h17.6c.405 0 .734.328.734.733v5.583a3.374 3.374 0 0 1 4.231 4.232zM21.892 8.94a1.907 1.907 0 0 0-2.405-1.219l-.922.307a.733.733 0 0 1-.965-.695V1.467H1.467V17.6h5.866a.732.732 0 0 1 .695.965l-.307.922a1.907 1.907 0 1 0 3.624 0l-.307-.922a.733.733 0 0 1 .695-.965H17.6v-5.867a.733.733 0 0 1 .965-.695l.922.307a1.906 1.906 0 0 0 2.405-2.405z"/></g></g></svg>