<svg xmlns="http://www.w3.org/2000/svg" width="50" height="36" viewBox="0 0 50 36"><g><g><path fill="#4d4ce0" d="M44.44 17.169a.734.734 0 0 1-.982.321c-1.158-.568-3.548-.692-4.371-.692a.725.725 0 0 1-.732-.719c0-.396.327-.718.732-.718.135 0 3.325.01 5.026.844a.712.712 0 0 1 .328.964zM50 29.339v5.943a.726.726 0 0 1-.732.718.725.725 0 0 1-.733-.718v-5.943c0-.704-.482-1.331-1.173-1.525l-3.025-.848a1.761 1.761 0 0 1-.311-.12l-1.857 1.82v6.615a.725.725 0 0 1-.733.719.726.726 0 0 1-.732-.718v-6.615l-1.87-1.835c-.25.12-.5.19-.682.242l-.18.05a3.76 3.76 0 0 1 1.083 2.629v5.529a.725.725 0 0 1-.733.718.726.726 0 0 1-.732-.718v-5.53c0-.985-.635-1.874-1.58-2.211l-4.751-1.695-1.978 2.91a1.515 1.515 0 0 1-1.263.662c-.4 0-.783-.155-1.07-.436L25.742 27.8v7.482a.725.725 0 0 1-.733.719.725.725 0 0 1-.732-.719V27.8l-1.207 1.183a1.525 1.525 0 0 1-1.221.428 1.515 1.515 0 0 1-1.112-.654l-1.977-2.91-4.752 1.694a2.364 2.364 0 0 0-1.58 2.213v5.528a.725.725 0 0 1-.732.719.726.726 0 0 1-.732-.719v-5.528c0-.725.213-1.416.589-2.006l-.798-.391-.852.793a3.106 3.106 0 0 1-2.123.832 3.106 3.106 0 0 1-2.123-.832l-.85-.793-2.448 1.2c-.552.27-.894.814-.894 1.418v5.307A.725.725 0 0 1 .732 36 .726.726 0 0 1 0 35.281v-5.307c0-1.152.653-2.188 1.704-2.703l1.965-.964C1.56 25.407.892 24.144.86 24.08a.706.706 0 0 1 0-.642c.528-1.036.592-2.934.644-4.46.017-.507.033-.987.064-1.414.25-3.446 2.92-6.044 6.212-6.044s5.963 2.598 6.213 6.044c.03.427.047.907.064 1.415.051 1.525.115 3.423.643 4.459a.706.706 0 0 1 0 .643c-.032.062-.699 1.327-2.805 2.226l.707.347c.276-.19.58-.348.906-.465l4.506-1.607a.71.71 0 0 1 .2-.55l1.364-1.406v-2.415a8.709 8.709 0 0 1-3.132-6.7v-1.621a8.17 8.17 0 0 1-.784-3.492V6.863C15.662 3.079 18.802 0 22.66 0h10.964c.404 0 .732.322.732.718v7.68a8.17 8.17 0 0 1-.783 3.492v1.885a8.356 8.356 0 0 1-3.133 6.492v2.36l1.365 1.406a.71.71 0 0 1 .2.55l4.269 1.523 1.476-.414c.605-.17.605-.236.605-.396v-1.038a5.572 5.572 0 0 1-2.35-4.532v-1.173l-.375-.735a3.75 3.75 0 0 1-.408-1.696v-.043c0-2.513 2.085-4.558 4.648-4.558h7.048c.405 0 .733.321.733.718v3.702a4.51 4.51 0 0 1-.491 2.039l-.292.573v1.367c0 1.453-.586 2.81-1.65 3.823-.219.209-.454.396-.7.563v.99c0 .134.091.252.222.289l3.025.847C49.08 26.802 50 27.996 50 29.34zM4.699 24.303a5.379 5.379 0 0 1-1.933-2.34c-.088.62-.218 1.208-.418 1.72.293.353.98.997 2.35 1.48zm4.877 2.17a1.465 1.465 0 0 1-.179-.702v-.765a5.548 5.548 0 0 1-3.233 0v.765c0 .251-.064.49-.178.702l.68.635a1.64 1.64 0 0 0 2.229 0zm2.122-5.949c-1.185-2.559-4.231-2.906-5.178-2.952l-1.1 1.118a.743.743 0 0 1-1.035.019.709.709 0 0 1-.02-1.016l1.322-1.344a.74.74 0 0 1 .507-.22 9.36 9.36 0 0 1 2.786.434c1.59.5 2.82 1.388 3.618 2.592a37.706 37.706 0 0 0-.066-1.489c-.094-1.29-.62-2.48-1.48-3.348a4.57 4.57 0 0 0-3.271-1.36 4.57 4.57 0 0 0-3.271 1.36c-.861.869-1.387 2.058-1.48 3.349a36.77 36.77 0 0 0-.068 1.545.725.725 0 0 1 .853.708c0 2.145 1.779 3.89 3.966 3.89 1.967 0 3.62-1.4 3.917-3.286zm1.515 3.16c-.2-.512-.33-1.098-.417-1.716a5.335 5.335 0 0 1-1.934 2.341v.857c1.369-.483 2.06-1.134 2.35-1.482zm11.322-2.961a7.14 7.14 0 0 0 4.753-1.391l.013-.009c.193-.145.381-.3.562-.467 1.448-1.33 2.245-3.135 2.245-5.08V11.73c0-.108.025-.215.073-.312.471-.957.71-1.973.71-3.019V1.437H22.66c-3.05 0-5.533 2.434-5.533 5.426v1.536c0 1.046.24 2.061.71 3.019a.707.707 0 0 1 .073.312v1.782c0 3.808 2.91 6.975 6.625 7.21zm-.668 5.446l-3.456-2.317-.732.755 2.277 3.352c.004.006.014.02.038.021.023.003.035-.009.04-.014zm5.109-3.634v-1.312a8.62 8.62 0 0 1-4.535.933 8.373 8.373 0 0 1-3.398-.962v1.341l3.966 2.66zm1.364 2.073l-.733-.756-3.456 2.317 1.833 1.798c.005.004.017.017.04.014a.046.046 0 0 0 .038-.022zm12.766 1.107a1.685 1.685 0 0 1-.053-.419v-.289a5.543 5.543 0 0 1-1.783.237 5.228 5.228 0 0 1-1.45-.251v.303c0 .156-.017.297-.046.427l1.662 1.63zm2.297-5.795v-1.536c0-.112.026-.222.077-.321l.37-.726c.22-.43.336-.914.336-1.396v-2.983H39.87c-1.755 0-3.183 1.4-3.183 3.122v.042c0 .364.087.728.253 1.053l.453.888c.05.1.077.21.077.32v1.344c0 2.188 1.724 4.019 3.844 4.081a3.98 3.98 0 0 0 2.884-1.096 3.823 3.823 0 0 0 1.205-2.792zm1.464 10.753v4.608a.725.725 0 0 1-.732.718.726.726 0 0 1-.732-.718v-4.608c0-.397.328-.718.732-.718.405 0 .732.321.732.718zm-42.27.95v3.658a.725.725 0 0 1-.732.718.726.726 0 0 1-.733-.718v-3.659c0-.396.328-.718.733-.718.404 0 .732.322.732.718zM31.01 9.674a.742.742 0 0 1-1.036 0c-.978-.96-2.633-1.522-4.917-1.671-1.94-.127-3.814.088-4.758.228-.022.003-.038.024-.038.048v1.655a.726.726 0 0 1-.733.718.725.725 0 0 1-.732-.718V8.28c0-.74.54-1.359 1.285-1.469 2.363-.35 8.159-.869 10.929 1.848a.709.709 0 0 1 0 1.016zM17.127 32.209v3.072a.726.726 0 0 1-.732.719.726.726 0 0 1-.733-.719V32.21c0-.397.328-.718.733-.718.404 0 .732.321.732.718zm17.229 0v3.072a.726.726 0 0 1-.732.719.726.726 0 0 1-.733-.719V32.21c0-.397.328-.718.733-.718.404 0 .732.321.732.718z"/></g></g></svg>