<svg viewBox="0 0 20 16">
    <path d="M12.624 13.41v.838a.953.953 0 0 1-.951.957H1.613a.953.953 0 0 1-.952-.957v-.839a3.021 3.021 0 0 1 3.015-3.028h.78a.733.733 0 0 0 .73-.735.56.56 0 0 0-.167-.4c-.445-.436-.821-1.02-1.096-1.65a.292.292 0 0 1-.151.043c-.438 0-.95-.97-.95-1.63 0-.662.06-1.198.497-1.198.037 0 .077.009.117.017C3.47 3.037 3.8.804 6.644.804c2.726 0 3.177 2.237 3.208 4.03a.67.67 0 0 1 .162-.023c.438 0 .498.536.498 1.197S9.998 7.64 9.56 7.64a.311.311 0 0 1-.184-.071c-.276.64-.656 1.235-1.109 1.679a.553.553 0 0 0-.167.399c0 .405.327.735.731.735h.778a3.02 3.02 0 0 1 3.014 3.028zM19.34 2.78v1.124a.706.706 0 0 1-.706.708h-7.52c-.11-.217-.246-.397-.426-.509-.072-.824-.246-1.49-.49-2.031h8.436c.39 0 .706.318.706.708zm-.001 4.63v1.124a.706.706 0 0 1-.706.708H9.853V8.57c.02-.038.044-.071.064-.109.68-.21 1.17-1.003 1.37-1.76h7.348c.39 0 .706.317.705.709zm0 4.63v1.124a.706.706 0 0 1-.705.708H13.5v-.466c0-.762-.222-1.473-.6-2.075h5.735c.39 0 .706.317.706.708z" />
</svg>