<svg viewBox="0 0 21 18">
    <path d="M21 6.216V15.2c0 1.526-1.27 2.8-2.815 2.8H2.815C1.27 18 0 16.726 0 15.2V6.216c0-1.525 1.27-2.778 2.815-2.778l2.043-.011 2.18-3.12A.698.698 0 0 1 7.604 0h5.688a.7.7 0 0 1 .577.319l2.112 3.108 2.203.011C19.732 3.438 21 4.691 21 6.216zM19.615 15.2h-.011V6.216c0-.774-.646-1.412-1.43-1.412l-2.586-.022a.714.714 0 0 1-.565-.308l-2.1-3.097h-4.95l-2.18 3.12a.698.698 0 0 1-.566.307H2.815c-.784 0-1.43.638-1.43 1.412V15.2c0 .774.646 1.435 1.43 1.435h15.37c.784 0 1.43-.66 1.43-1.435zm-4.154-5.283c0 2.664-2.203 4.84-4.903 4.84-2.7 0-4.904-2.176-4.904-4.84 0-2.664 2.192-4.838 4.904-4.838 2.7 0 4.903 2.174 4.903 4.838zm-1.384 0c0-1.912-1.58-3.472-3.52-3.472-1.938 0-3.519 1.56-3.519 3.472 0 1.913 1.581 3.473 3.52 3.473 1.938 0 3.519-1.56 3.519-3.473zm3.046-3.096c.147 0 .265.117.265.261a.264.264 0 0 1-.265.262.264.264 0 0 1-.265-.262c0-.144.118-.261.265-.261zm.958.261a.95.95 0 0 1-.958.946.95.95 0 0 1-.958-.946.95.95 0 0 1 .958-.945.95.95 0 0 1 .958.945zm-.531 0a.43.43 0 0 0-.427-.42.43.43 0 0 0-.427.42c0 .228.185.422.427.422a.423.423 0 0 0 .427-.422z" />
</svg>