<svg viewBox="0 0 36 36">
    <path d="M36 .703v27.633a.703.703 0 0 1-.909.672l-9.76-2.986-5.19 5.071a.703.703 0 0 1-1.107-.164l-4.513-8.214-10.228-3.129a.703.703 0 0 1-.152-1.277l12.55-7.421a.703.703 0 1 1 .715 1.21l-11.178 6.61 8.566 2.62L32.014 3.46 22.77 8.927a.703.703 0 0 1-.716-1.21L34.94.097A.703.703 0 0 1 36 .703zm-6.498 7.39L15.866 22.243l3.081 5.608v-4.3c0-.144.044-.284.125-.401zm-5.703 17.46L20.354 24.5v4.42zm10.795-22.34L20.777 23.158l13.817 4.227zM11.56 25.433l-6.564 6.564a.701.701 0 0 1-.995 0 .703.703 0 0 1 0-.994l6.564-6.564a.703.703 0 0 1 .995.994zm-8.744 8.744l-1.617 1.617a.701.701 0 0 1-.995 0 .703.703 0 0 1 0-.994l1.618-1.618a.704.704 0 0 1 .994.995zm7.419 1.078a.709.709 0 0 1-.206.497.708.708 0 0 1-.497.206.708.708 0 0 1-.498-.206.709.709 0 0 1-.206-.497.708.708 0 0 1 .704-.703.707.707 0 0 1 .703.703zm5.025-4.734l-3.476 3.477a.702.702 0 0 1-.995 0 .703.703 0 0 1 0-.995l3.477-3.476a.703.703 0 0 1 .994.994zm12-.267l-3.486 3.486a.701.701 0 0 1-.995 0 .703.703 0 0 1 0-.994l3.487-3.486a.703.703 0 0 1 .994.994zm-7.121-20.172a.707.707 0 0 1-.703.702.706.706 0 0 1-.704-.702.708.708 0 0 1 .703-.704c.186 0 .367.075.498.206.13.13.206.312.206.498z" />
</svg>