<?xml version="1.0" encoding="utf-8"?>
<!-- Generator: Adobe Illustrator 21.1.0, SVG Export Plug-In . SVG Version: 6.00 Build 0)  -->
<svg version="1.1" id="Слой_1" xmlns="http://www.w3.org/2000/svg" xmlns:xlink="http://www.w3.org/1999/xlink" x="0px" y="0px"
	 viewBox="0 0 32 31" style="enable-background:new 0 0 32 31;" xml:space="preserve">
<style type="text/css">
	.st0{fill:#FFFFFF;}
	.st1{fill:none;}
	.st2{fill-opacity:0.15;}
	.st3{fill:#FC4C3B;}
	.st4{clip-path:url(#SVGID_2_);fill:none;stroke:#FFFFFF;stroke-width:2;stroke-miterlimit:50;}
</style>
<path class="st0" d="M1,1h30v29H1V1z"/>
<path d="M30.3,14.1c0.6-0.6,0.8-1.4,0.5-2.2c-0.2-0.8-0.9-1.4-1.7-1.5l-7.3-1.1c-0.3,0-0.6-0.2-0.7-0.5l-3.2-6.6
	C17.6,1.5,16.8,1,16,1c-0.8,0-1.6,0.5-1.9,1.2l-3.2,6.6c-0.1,0.3-0.4,0.5-0.7,0.5l-7.3,1.1c-0.8,0.1-1.5,0.7-1.7,1.5
	c-0.3,0.8,0,1.6,0.5,2.2l5.3,5.2c0.2,0.2,0.3,0.5,0.3,0.8l-1.2,7.3c-0.2,1.2,0.6,2.3,1.8,2.5c0.5,0.1,0.9,0,1.4-0.2l6.5-3.4
	c0.3-0.1,0.6-0.1,0.9,0l6.5,3.4c0.3,0.2,0.7,0.3,1,0.3c0.6,0,1.2-0.3,1.6-0.8c0.4-0.5,0.6-1.1,0.5-1.8l-1.2-7.3
	c-0.1-0.3,0-0.6,0.3-0.8L30.3,14.1z"/>
<g>
	<g>
		<g>
			<path class="st1" d="M30.3,14.1c0.6-0.6,0.8-1.4,0.5-2.2c-0.2-0.8-0.9-1.4-1.7-1.5l-7.3-1.1c-0.3,0-0.6-0.2-0.7-0.5l-3.2-6.6
				C17.6,1.5,16.8,1,16,1c-0.8,0-1.6,0.5-1.9,1.2l-3.2,6.6c-0.1,0.3-0.4,0.5-0.7,0.5l-7.3,1.1c-0.8,0.1-1.5,0.7-1.7,1.5
				c-0.3,0.8,0,1.6,0.5,2.2l5.3,5.2c0.2,0.2,0.3,0.5,0.3,0.8l-1.2,7.3c-0.2,1.2,0.6,2.3,1.8,2.5c0.5,0.1,0.9,0,1.4-0.2l6.5-3.4
				c0.3-0.1,0.6-0.1,0.9,0l6.5,3.4c0.3,0.2,0.7,0.3,1,0.3c0.6,0,1.2-0.3,1.6-0.8c0.4-0.5,0.6-1.1,0.5-1.8l-1.2-7.3
				c-0.1-0.3,0-0.6,0.3-0.8L30.3,14.1z"/>
			<path class="st2" d="M30.3,14.1c0.6-0.6,0.8-1.4,0.5-2.2c-0.2-0.8-0.9-1.4-1.7-1.5l-7.3-1.1c-0.3,0-0.6-0.2-0.7-0.5l-3.2-6.6
				C17.6,1.5,16.8,1,16,1c-0.8,0-1.6,0.5-1.9,1.2l-3.2,6.6c-0.1,0.3-0.4,0.5-0.7,0.5l-7.3,1.1c-0.8,0.1-1.5,0.7-1.7,1.5
				c-0.3,0.8,0,1.6,0.5,2.2l5.3,5.2c0.2,0.2,0.3,0.5,0.3,0.8l-1.2,7.3c-0.2,1.2,0.6,2.3,1.8,2.5c0.5,0.1,0.9,0,1.4-0.2l6.5-3.4
				c0.3-0.1,0.6-0.1,0.9,0l6.5,3.4c0.3,0.2,0.7,0.3,1,0.3c0.6,0,1.2-0.3,1.6-0.8c0.4-0.5,0.6-1.1,0.5-1.8l-1.2-7.3
				c-0.1-0.3,0-0.6,0.3-0.8L30.3,14.1z"/>
		</g>
		<path class="st3" d="M30.3,14.1c0.6-0.6,0.8-1.4,0.5-2.2c-0.2-0.8-0.9-1.4-1.7-1.5l-7.3-1.1c-0.3,0-0.6-0.2-0.7-0.5l-3.2-6.6
			C17.6,1.5,16.8,1,16,1c-0.8,0-1.6,0.5-1.9,1.2l-3.2,6.6c-0.1,0.3-0.4,0.5-0.7,0.5l-7.3,1.1c-0.8,0.1-1.5,0.7-1.7,1.5
			c-0.3,0.8,0,1.6,0.5,2.2l5.3,5.2c0.2,0.2,0.3,0.5,0.3,0.8l-1.2,7.3c-0.2,1.2,0.6,2.3,1.8,2.5c0.5,0.1,0.9,0,1.4-0.2l6.5-3.4
			c0.3-0.1,0.6-0.1,0.9,0l6.5,3.4c0.3,0.2,0.7,0.3,1,0.3c0.6,0,1.2-0.3,1.6-0.8c0.4-0.5,0.6-1.1,0.5-1.8l-1.2-7.3
			c-0.1-0.3,0-0.6,0.3-0.8L30.3,14.1z"/>
		<g>
			<defs>
				<path id="SVGID_1_" d="M30.3,14.1c0.6-0.6,0.8-1.4,0.5-2.2c-0.2-0.8-0.9-1.4-1.7-1.5l-7.3-1.1c-0.3,0-0.6-0.2-0.7-0.5l-3.2-6.6
					C17.6,1.5,16.8,1,16,1c-0.8,0-1.6,0.5-1.9,1.2l-3.2,6.6c-0.1,0.3-0.4,0.5-0.7,0.5l-7.3,1.1c-0.8,0.1-1.5,0.7-1.7,1.5
					c-0.3,0.8,0,1.6,0.5,2.2l5.3,5.2c0.2,0.2,0.3,0.5,0.3,0.8l-1.2,7.3c-0.2,1.2,0.6,2.3,1.8,2.5c0.5,0.1,0.9,0,1.4-0.2l6.5-3.4
					c0.3-0.1,0.6-0.1,0.9,0l6.5,3.4c0.3,0.2,0.7,0.3,1,0.3c0.6,0,1.2-0.3,1.6-0.8c0.4-0.5,0.6-1.1,0.5-1.8l-1.2-7.3
					c-0.1-0.3,0-0.6,0.3-0.8L30.3,14.1z"/>
			</defs>
			<clipPath id="SVGID_2_">
				<use xlink:href="#SVGID_1_"  style="overflow:visible;"/>
			</clipPath>
			<path class="st4" d="M30.3,14.1c0.6-0.6,0.8-1.4,0.5-2.2c-0.2-0.8-0.9-1.4-1.7-1.5l-7.3-1.1c-0.3,0-0.6-0.2-0.7-0.5l-3.2-6.6
				C17.6,1.5,16.8,1,16,1c-0.8,0-1.6,0.5-1.9,1.2l-3.2,6.6c-0.1,0.3-0.4,0.5-0.7,0.5l-7.3,1.1c-0.8,0.1-1.5,0.7-1.7,1.5
				c-0.3,0.8,0,1.6,0.5,2.2l5.3,5.2c0.2,0.2,0.3,0.5,0.3,0.8l-1.2,7.3c-0.2,1.2,0.6,2.3,1.8,2.5c0.5,0.1,0.9,0,1.4-0.2l6.5-3.4
				c0.3-0.1,0.6-0.1,0.9,0l6.5,3.4c0.3,0.2,0.7,0.3,1,0.3c0.6,0,1.2-0.3,1.6-0.8c0.4-0.5,0.6-1.1,0.5-1.8l-1.2-7.3
				c-0.1-0.3,0-0.6,0.3-0.8L30.3,14.1z"/>
		</g>
	</g>
</g>
</svg>
