<svg xmlns="http://www.w3.org/2000/svg" width="20" height="18" viewBox="0 0 20 18"><g><g><path fill="#fff" d="M1.905 7.2H0C.19 4.32 1.714 1.8 4 .18l1.333 1.26c-2 1.26-3.238 3.33-3.428 5.76zm12.857-5.76L16.095.18C18.381 1.8 19.81 4.32 20 7.2h-1.905c-.19-2.43-1.428-4.5-3.333-5.76zM16.19 12.6l1.905 1.8v.9H1.905v-.9l1.904-1.8V7.65c0-2.79 2-5.04 4.762-5.67v-.63C8.571.63 9.238 0 10 0s1.428.63 1.428 1.35v.63c2.762.63 4.762 2.88 4.762 5.67zm-8.095 3.6h3.81c0 .27-.096.54-.19.72-.191.54-.667.99-1.334 1.08H10c-1.048 0-1.905-.81-1.905-1.8z"/></g></g></svg>