<svg viewBox="0 0 30 40">
    <path d="M20.326 5.83a.62.62 0 0 1-.838.28c-3.87-1.978-8.532-1.222-11.6 1.88-3.567 3.606-3.925 9.355-.832 13.372a.635.635 0 0 1-.11.885.617.617 0 0 1-.874-.11c-3.479-4.519-3.077-10.984.933-15.038 3.45-3.488 8.693-4.338 13.046-2.115.307.157.43.536.275.847zm2.61 17.375a11.197 11.197 0 0 1-7.975 3.333c-2.428 0-4.863-.788-6.899-2.39a.635.635 0 0 1-.109-.884.62.62 0 0 1 .875-.11c3.974 3.126 9.66 2.765 13.226-.84a10.191 10.191 0 0 0 1.862-11.727.634.634 0 0 1 .276-.847.62.62 0 0 1 .838.278 11.46 11.46 0 0 1-2.094 13.187zm.428-14.698a.617.617 0 0 1-.88-.054 10.25 10.25 0 0 0-.887-.897.635.635 0 0 1-.054-.89.619.619 0 0 1 .88-.055 11.513 11.513 0 0 1 .996 1.007c.228.26.203.659-.055.89zm5.503 9.135a.896.896 0 0 0-.117.6l.244 1.57c.125.8-.2 1.594-.848 2.07l-1.272.935a.888.888 0 0 0-.336.509l-.37 1.547a2.127 2.127 0 0 1-1.566 1.581l-.615.15 4.327 9.757a.636.636 0 0 1-.067.632.62.62 0 0 1-.576.252l-3.48-.42-2.004 2.905a.622.622 0 0 1-1.08-.103l-4.422-9.971-.58.357a2.105 2.105 0 0 1-2.21 0l-.56-.345-4.417 9.96A.624.624 0 0 1 8.35 40a.622.622 0 0 1-.511-.27l-2.004-2.906-3.48.421a.62.62 0 0 1-.576-.252.636.636 0 0 1-.066-.632l4.324-9.75-.64-.157a2.127 2.127 0 0 1-1.564-1.582l-.37-1.547a.888.888 0 0 0-.337-.508l-1.271-.935a2.149 2.149 0 0 1-.849-2.07l.245-1.57a.895.895 0 0 0-.118-.6l-.82-1.36a2.16 2.16 0 0 1 0-2.236l.82-1.36a.895.895 0 0 0 .118-.599l-.245-1.571c-.124-.8.201-1.594.85-2.07l1.27-.935a.888.888 0 0 0 .337-.508l.37-1.547a2.127 2.127 0 0 1 1.565-1.582l1.53-.374c.202-.05.381-.17.503-.34l.925-1.286a2.105 2.105 0 0 1 2.048-.858l1.553.247a.87.87 0 0 0 .593-.118l1.345-.83c.682-.42 1.53-.42 2.212 0l1.345.83a.87.87 0 0 0 .593.119l1.554-.248a2.104 2.104 0 0 1 2.047.858l.925 1.286c.122.17.301.29.503.34l1.53.375c.777.19 1.377.796 1.565 1.581l.37 1.547a.888.888 0 0 0 .337.509l1.27.934a2.15 2.15 0 0 1 .85 2.07l-.245 1.571c-.032.207.01.42.117.6l.82 1.36c.417.689.417 1.545.001 2.235zM12.235 29.067a.871.871 0 0 0-.28-.002l-1.553.247c-.21.033-.42.034-.623.006l-2.066 4.66a.623.623 0 0 1-.824.317.633.633 0 0 1-.314-.833l2.074-4.677a2.163 2.163 0 0 1-.295-.331l-.925-1.286a.877.877 0 0 0-.19-.191L3.3 35.86l2.757-.333a.62.62 0 0 1 .586.265l1.588 2.303zm10.544-2.105a.878.878 0 0 0-.21.207l-.924 1.285c-.083.115-.176.22-.276.314l2.081 4.694a.633.633 0 0 1-.568.888.623.623 0 0 1-.57-.372l-2.067-4.664a2.117 2.117 0 0 1-.648-.002l-1.553-.247a.876.876 0 0 0-.255-.002l4.005 9.033 1.589-2.303a.62.62 0 0 1 .585-.265l2.758.333zm5.844-12.26l-.82-1.36a2.17 2.17 0 0 1-.285-1.45l.245-1.572a.887.887 0 0 0-.35-.854L26.14 8.53a2.15 2.15 0 0 1-.815-1.232l-.37-1.546a.878.878 0 0 0-.646-.653l-1.53-.375a2.126 2.126 0 0 1-1.218-.824l-.925-1.285a.869.869 0 0 0-.845-.354l-1.554.247a2.107 2.107 0 0 1-1.436-.288l-1.346-.83a.866.866 0 0 0-.913 0l-1.345.83c-.429.264-.939.367-1.436.288L10.21 2.26a.868.868 0 0 0-.846.355L8.44 3.9a2.126 2.126 0 0 1-1.218.824l-1.53.374a.878.878 0 0 0-.646.653L4.675 7.3a2.15 2.15 0 0 1-.816 1.231l-1.271.935a.887.887 0 0 0-.35.855l.244 1.571a2.169 2.169 0 0 1-.285 1.451l-.82 1.36a.892.892 0 0 0 0 .923l.82 1.36c.262.435.363.95.285 1.452l-.245 1.57a.887.887 0 0 0 .35.855l1.272.935c.407.3.696.737.815 1.232l.37 1.546a.878.878 0 0 0 .646.654l1.53.374c.49.12.922.412 1.218.824l.925 1.285c.194.27.518.407.845.355l1.554-.248a2.093 2.093 0 0 1 1.436.288l1.345.83a.866.866 0 0 0 .913 0l1.346-.83c.429-.264.939-.366 1.435-.288l1.554.248a.868.868 0 0 0 .845-.355l.925-1.285a2.124 2.124 0 0 1 1.218-.824l1.53-.374a.878.878 0 0 0 .646-.653l.37-1.547c.119-.494.408-.932.815-1.231l1.272-.935a.887.887 0 0 0 .35-.855l-.244-1.57a2.17 2.17 0 0 1 .285-1.452l.82-1.36a.891.891 0 0 0 0-.923zm-6.633-.311l-2.774 2.593.736 3.747c.087.44-.083.88-.443 1.143-.36.264-.824.292-1.212.073L15 20.08l-3.297 1.866a1.112 1.112 0 0 1-1.213-.072 1.134 1.134 0 0 1-.443-1.144l.737-3.747-2.774-2.593a1.136 1.136 0 0 1-.307-1.188c.138-.428.497-.726.94-.78l3.751-.449 1.583-3.469A1.115 1.115 0 0 1 15 7.844c.445 0 .837.253 1.023.661l1.582 3.469 3.752.45c.442.053.802.351.94.779.137.428.02.883-.307 1.188zm-1.038-.747l-3.84-.46a.624.624 0 0 1-.493-.362L15 9.273l-1.619 3.55a.624.624 0 0 1-.492.361l-3.84.46 2.839 2.654c.159.15.23.371.188.586l-.754 3.834 3.374-1.91a.616.616 0 0 1 .61 0l3.373 1.91-.753-3.834a.635.635 0 0 1 .188-.586z" />
</svg>