<svg viewBox="0 0 45 53">
    <path d="M44.949 14.38c.118 6.226.264 13.974-2.325 21.014-1.42 3.86-3.568 7.217-6.384 9.976-3.207 3.14-7.406 5.635-12.48 7.415a3.842 3.842 0 0 1-1.258.215 3.772 3.772 0 0 1-1.255-.214c-5.08-1.777-9.284-4.27-12.493-7.411C5.936 42.616 3.788 39.26 2.37 35.4-.21 28.382-.063 20.65.055 14.435l.003-.096c.023-.513.038-1.051.047-1.646.043-2.923 2.36-5.34 5.273-5.503C11.454 6.85 16.154 4.862 20.17.936l.034-.032a3.374 3.374 0 0 1 4.596 0l.035.032C28.85 4.862 33.55 6.85 39.626 7.19c2.914.164 5.23 2.58 5.274 5.503.009.6.024 1.138.047 1.647zm-5.234 19.938c2.384-6.484 2.253-13.588 2.134-19.858a56.674 56.674 0 0 1-.05-1.721 2.493 2.493 0 0 0-2.345-2.444c-3.439-.193-6.46-.859-9.235-2.037-2.771-1.177-5.233-2.836-7.525-5.071a.285.285 0 0 0-.384 0c-2.291 2.235-4.753 3.894-7.525 5.07-2.775 1.179-5.795 1.845-9.233 2.038a2.493 2.493 0 0 0-2.347 2.443 56.33 56.33 0 0 1-.049 1.722v.034c-.12 6.263-.254 13.362 2.123 19.832 2.719 7.398 8.276 12.476 16.99 15.523a.73.73 0 0 0 .37.027.736.736 0 0 0 .098-.027c8.703-3.052 14.257-8.133 16.978-15.531zM22.502 13.293c7.261 0 13.169 5.925 13.169 13.208S29.763 39.709 22.5 39.709c-7.261 0-13.169-5.925-13.169-13.208s5.908-13.208 13.17-13.208zm0 23.306c5.551 0 10.068-4.53 10.068-10.098 0-5.568-4.517-10.098-10.068-10.098-5.552 0-10.069 4.53-10.069 10.098 0 5.568 4.517 10.098 10.069 10.098zM26.286 22.4a1.546 1.546 0 0 1 2.193 0 1.559 1.559 0 0 1 0 2.2l-7.213 7.234a1.543 1.543 0 0 1-2.192 0l-2.757-2.765a1.559 1.559 0 0 1 0-2.199 1.547 1.547 0 0 1 2.192 0l1.66 1.665z" />
</svg>