<svg xmlns="http://www.w3.org/2000/svg" width="16" height="16" viewBox="0 0 16 16"><g><g><path fill="#4d4ce0" d="M16 11.512a4.486 4.486 0 0 1-6.842 3.82 7.422 7.422 0 0 1-8.49-8.49A4.485 4.485 0 0 1 6.842.667a7.423 7.423 0 0 1 8.49 8.49c.423.684.668 1.49.668 2.354zm-4.004-1.666c0-.47-.091-.871-.274-1.199a2.272 2.272 0 0 0-.76-.809 4.82 4.82 0 0 0-1.17-.54 16.315 16.315 0 0 0-1.53-.405c-.448-.105-.77-.185-.965-.24a3.007 3.007 0 0 1-.571-.225 1.31 1.31 0 0 1-.44-.338.709.709 0 0 1-.155-.457c0-.286.151-.53.465-.74.313-.206.726-.312 1.243-.312.559-.001.96.097 1.204.286.25.192.465.46.644.806.142.248.274.424.399.536.128.115.313.17.549.17a.877.877 0 0 0 .66-.278.893.893 0 0 0 .266-.627c0-.25-.07-.505-.208-.767-.14-.26-.358-.51-.656-.746-.3-.236-.674-.424-1.123-.567-.45-.142-.983-.213-1.598-.213-.77 0-1.441.108-2.012.322-.572.214-1.011.522-1.315.923-.303.401-.455.861-.455 1.376 0 .54.144.996.432 1.363.287.363.675.65 1.162.86.487.21 1.088.393 1.806.55.535.112.962.22 1.28.32.316.1.571.244.769.43.196.186.291.424.291.724 0 .376-.177.686-.546.941-.366.254-.846.382-1.439.382-.433 0-.78-.063-1.04-.19a1.62 1.62 0 0 1-.61-.478 3.613 3.613 0 0 1-.408-.731c-.105-.253-.233-.443-.386-.574a.837.837 0 0 0-.563-.198.945.945 0 0 0-.674.252.817.817 0 0 0-.265.609c0 .4.146.809.432 1.227.287.419.659.755 1.117 1.005.645.349 1.464.52 2.452.52.824 0 1.538-.125 2.142-.38.603-.254 1.064-.607 1.378-1.06.315-.45.473-.96.472-1.528z"/></g></g></svg>