<svg viewBox="0 0 20 20">
    <path d="M17.05 17.045c-3.896 3.894-10.234 3.894-14.129 0-3.895-3.895-3.896-10.231 0-14.126 3.895-3.894 10.233-3.894 14.13.001 3.894 3.894 3.894 10.23-.001 14.125zM15.96 4.009C12.666.715 7.306.716 4.01 4.01c-3.294 3.293-3.294 8.653 0 11.947 3.295 3.293 8.656 3.293 11.95 0 3.295-3.294 3.295-8.653 0-11.947zM6.26 7.28a1.168 1.168 0 1 1 2.336 0 1.168 1.168 0 0 1-2.336 0zm5.295 0a1.168 1.168 0 1 1 2.336.001 1.168 1.168 0 0 1-2.336 0zm2.76 4.781c-.724 1.673-2.418 2.755-4.317 2.755-1.94 0-3.645-1.087-4.344-2.769a.565.565 0 1 1 1.044-.433c.523 1.259 1.818 2.072 3.3 2.072 1.448 0 2.735-.814 3.28-2.073a.565.565 0 1 1 1.037.448z" />
</svg>