<svg xmlns="http://www.w3.org/2000/svg" width="27" height="25" viewBox="0 0 27 25"><defs><clipPath id="9s44a"><path fill="#fff" d="M20.98 25c-.158 0-.317-.025-.47-.078l-7.01-2.414-7.012 2.414c-.433.15-.916.082-1.29-.18a1.34 1.34 0 0 1-.575-1.133l.204-7.204L.29 10.694A1.319 1.319 0 0 1 .068 9.45a1.38 1.38 0 0 1 .935-.88l7.136-2.038L12.346.588A1.413 1.413 0 0 1 13.5 0c.46 0 .892.22 1.153.588l4.207 5.944 7.137 2.038c.442.126.792.456.934.88.143.425.06.89-.221 1.244l-4.538 5.711.205 7.204c.013.446-.203.87-.576 1.133a1.43 1.43 0 0 1-.822.259z"/></clipPath></defs><g><g><path fill="none" stroke="#4d4ce0" stroke-miterlimit="50" stroke-width="2" d="M20.98 25c-.158 0-.317-.025-.47-.078l-7.01-2.414v0l-7.012 2.414c-.433.15-.916.082-1.29-.18a1.34 1.34 0 0 1-.575-1.133l.204-7.204v0L.29 10.694A1.319 1.319 0 0 1 .068 9.45a1.38 1.38 0 0 1 .935-.88l7.136-2.038v0L12.346.588A1.413 1.413 0 0 1 13.5 0c.46 0 .892.22 1.153.588l4.207 5.944v0l7.137 2.038c.442.126.792.456.934.88.143.425.06.89-.221 1.244l-4.538 5.711v0l.205 7.204c.013.446-.203.87-.576 1.133a1.43 1.43 0 0 1-.822.259z" clip-path="url(&quot;#9s44a&quot;)"/></g></g></svg>