<svg viewBox="0 0 23 13">
    <path d="M21.448 9.853c-.666-.774-1.45-1.434-2.192-2.134-.67-.633-.711-1-.173-1.729.587-.796 1.218-1.561 1.81-2.354.554-.74 1.12-1.479 1.41-2.365.185-.565.022-.814-.576-.913a1.91 1.91 0 0 0-.314-.018L17.867.336c-.437-.006-.678.178-.833.553a20.73 20.73 0 0 1-.672 1.501c-.563 1.108-1.193 2.18-2.075 3.086-.195.2-.41.453-.735.349-.407-.144-.527-.793-.52-1.012L13.028.851c-.079-.566-.208-.818-.789-.928H8.556c-.492 0-.738.185-1 .482-.152.172-.198.284.114.34.61.113.955.496 1.047 1.09.146.947.136 1.9.052 2.851a2.578 2.578 0 0 1-.189.815c-.178.408-.465.49-.843.24-.342-.227-.582-.548-.818-.87C6.036 3.663 5.331 2.36 4.757.991 4.59.595 4.304.355 3.87.349A92.528 92.528 0 0 0 .68.35c-.64.011-.83.312-.57.874 1.159 2.495 2.449 4.92 4.132 7.13.864 1.134 1.857 2.135 3.139 2.844 1.453.804 3.017 1.046 4.664.972.771-.035 1.003-.23 1.039-.974.024-.509.084-1.015.343-1.472.255-.45.64-.535 1.085-.256.223.14.41.318.587.506.434.46.853.934 1.303 1.378.565.557 1.235.885 2.077.818h3.259c.525-.033.797-.656.496-1.223-.212-.397-.49-.751-.785-1.094z" />
</svg>