<svg viewBox="0 0 18 16">
    <path d="M17.293 12.343l.073-.002v2.496c0 .642-.54 1.163-1.206 1.163H1.206C.54 16 0 15.479 0 14.837V4.326c0-.643.54-1.164 1.206-1.164H16.16c.666 0 1.206.521 1.206 1.164v2.496a1.64 1.64 0 0 0-.073-.002h-4.076c-.863 0-1.564.677-1.564 1.508v2.506c0 .832.701 1.508 1.564 1.509zM18 8.328v2.506a.695.695 0 0 1-.707.682h-4.076a.695.695 0 0 1-.707-.682V8.328c0-.376.316-.682.707-.682h4.076c.39 0 .707.306.707.682zm-2.358 1.253c0-.544-.457-.984-1.02-.984-.564 0-1.021.44-1.021.984s.457.985 1.02.985c.564 0 1.02-.441 1.02-.985zm-1.24-7.552H5.965L12.093.076c.816-.26 1.697.168 1.967.956z" />
</svg>