<svg viewBox="0 0 20 20">
    <path d="M20 10c0 5.514-4.411 10-9.835 10-2.001 0-3.857-.605-5.412-1.653L.97 19.577l1.226-3.716A10.037 10.037 0 0 1 .324 10c0-5.515 4.411-10 9.836-10h.005C15.589 0 20 4.486 20 10zm-3.943 2.734c-.07-.124-.26-.194-.55-.342-.288-.146-1.694-.852-1.96-.946-.26-.1-.509-.065-.705.218-.277.393-.549.793-.769 1.035-.173.187-.456.21-.693.11-.319-.134-1.21-.452-2.307-1.445-.851-.77-1.43-1.73-1.596-2.017-.168-.293-.018-.463.115-.622.145-.183.283-.313.428-.483.145-.17.226-.258.319-.458.098-.194.028-.394-.042-.542-.07-.147-.647-1.582-.884-2.163-.191-.464-.336-.482-.625-.494-.098-.005-.208-.011-.33-.011-.376 0-.768.112-1.006.358-.289.3-1.006 1-1.006 2.434 0 1.435 1.03 2.823 1.169 3.016.145.194 2.007 3.18 4.898 4.398 2.26.952 2.931.864 3.445.752.752-.165 1.693-.73 1.93-1.41.238-.683.238-1.265.17-1.388z" />
</svg>