<svg xmlns="http://www.w3.org/2000/svg" width="46" height="42" viewBox="0 0 46 42"><g><g><path fill="#4d4ce0" d="M23 9.13c.495 0 .898.409.898.913a.906.906 0 0 1-.898.913.906.906 0 0 1-.899-.913c0-.504.403-.913.899-.913zM8.086 25.565a.907.907 0 0 1-.899-.913c0-.504.403-.913.899-.913.495 0 .898.409.898.913a.907.907 0 0 1-.898.913zM30.187 0C38.197 0 46 5.762 46 13.695c0 3.191-1.243 6.282-3.505 8.732a5.615 5.615 0 0 0 1.445 5.231c.256.261.333.654.194.995a.899.899 0 0 1-.83.564 9.827 9.827 0 0 1-6.866-2.82c-1.548.536-3.505.889-5.386.973-.515 7.137-7.153 12.803-15.24 12.803-2.131 0-4.463-.375-6.25-.994a9.827 9.827 0 0 1-6.867 2.82.899.899 0 0 1-.83-.563.923.923 0 0 1 .195-.995 5.614 5.614 0 0 0 1.444-5.232C1.242 32.76 0 29.67 0 26.478c0-7.635 7.244-13.28 14.947-13.673C15.46 5.667 22.099 0 30.187 0zM15.812 38.347c7.431 0 13.477-5.324 13.477-11.87 0-6.799-6.303-11.869-13.477-11.869-7.597 0-14.015 5.436-14.015 11.87 0 2.79 1.122 5.501 3.16 7.635a.913.913 0 0 1 .22.386 7.491 7.491 0 0 1-.547 5.434 8.083 8.083 0 0 0 4.032-2.431.888.888 0 0 1 .995-.232c1.618.654 4.035 1.077 6.155 1.077zm25.23-17.017c2.038-2.133 3.16-4.845 3.16-7.635 0-6.434-6.418-11.87-14.015-11.87-7.092 0-12.923 4.851-13.439 10.984a16.54 16.54 0 0 1 6.687 1.8h14.479c.496 0 .898.408.898.912a.906.906 0 0 1-.898.913h-11.72c2.898 2.41 4.593 5.655 4.855 9.108 1.89-.095 3.89-.488 5.293-1.055a.89.89 0 0 1 .996.232 8.078 8.078 0 0 0 4.032 2.431 7.492 7.492 0 0 1-.548-5.434.92.92 0 0 1 .22-.386zM23 23.74c.496 0 .898.409.898.913a.906.906 0 0 1-.898.913H11.68a.906.906 0 0 1-.899-.913c0-.504.402-.913.898-.913zm0 5.478c.496 0 .898.409.898.913a.906.906 0 0 1-.898.913H8.086a.906.906 0 0 1-.899-.913c0-.504.403-.913.899-.913zM37.914 9.13c.496 0 .898.409.898.913a.906.906 0 0 1-.898.913h-11.32a.906.906 0 0 1-.899-.913c0-.504.402-.913.899-.913z"/></g></g></svg>