<svg xmlns="http://www.w3.org/2000/svg" width="34" height="43" viewBox="0 0 34 43"><g><g><path fill="#4d4ce0" d="M34 .693v41.613a.7.7 0 0 1-.707.694h-.942a.7.7 0 0 1-.706-.694.7.7 0 0 1 .706-.694h.236V1.387h-.236a.7.7 0 0 1-.706-.694A.7.7 0 0 1 32.35 0h.942A.7.7 0 0 1 34 .693zM25.52 13.64a.7.7 0 0 1-.706.694H5.417a.7.7 0 0 1-.706-.694.7.7 0 0 1 .706-.693h19.397a.7.7 0 0 1 .706.693zm0 11.097a.7.7 0 0 1-.706.694H5.417a.7.7 0 0 1-.706-.694.7.7 0 0 1 .706-.693h19.397a.7.7 0 0 1 .706.693zm0 3.7a.7.7 0 0 1-.706.693H17a.7.7 0 0 1-.707-.694.7.7 0 0 1 .707-.693h7.814a.7.7 0 0 1 .707.693zM30.232.692v41.613a.7.7 0 0 1-.706.694H.707A.7.7 0 0 1 0 42.306V7.166a.66.66 0 0 1 .011-.12l.003-.016c.004-.02.009-.039.015-.058l.002-.008a.693.693 0 0 1 .02-.056l.003-.007a.752.752 0 0 1 .025-.051l.005-.01a.673.673 0 0 1 .027-.045l.008-.014a.556.556 0 0 1 .03-.04l.012-.015a.676.676 0 0 1 .041-.044l.005-.006L6.802.203l.004-.004a.743.743 0 0 1 .047-.042l.014-.01.042-.03.012-.007a.666.666 0 0 1 .047-.028l.01-.004A.715.715 0 0 1 7.095.03c.002 0 .005 0 .007-.002l.06-.014L7.18.01A.646.646 0 0 1 7.302 0h22.223a.7.7 0 0 1 .706.693zM2.413 6.473h4.182V2.368zm26.405 35.14V1.386H8.008v5.78a.7.7 0 0 1-.706.693H1.413v33.752zM9.422 7.165a.7.7 0 0 1 .706-.693h14.686a.7.7 0 0 1 .706.693.7.7 0 0 1-.706.694H10.128a.7.7 0 0 1-.706-.694zM25.52 17.34a.7.7 0 0 1-.707.693H17a.7.7 0 0 1-.707-.693.7.7 0 0 1 .707-.694h7.814a.7.7 0 0 1 .707.694zm0 3.698a.7.7 0 0 1-.707.694H17a.7.7 0 0 1-.707-.694.7.7 0 0 1 .707-.693h7.814a.7.7 0 0 1 .707.693zM6.124 29.13v6.01h6.4v-3.93a.7.7 0 0 1 .707-.693.7.7 0 0 1 .707.693v4.624a.7.7 0 0 1-.707.693H5.417a.7.7 0 0 1-.706-.693v-7.398a.7.7 0 0 1 .706-.693h7.814a.7.7 0 0 1 .707.693.7.7 0 0 1-.707.694zm-1.413-8.092a.7.7 0 0 1 .706-.693h7.814a.7.7 0 0 1 .707.693.7.7 0 0 1-.707.694H5.417a.7.7 0 0 1-.706-.694zM20.81 35.833a.7.7 0 0 1-.707.693H17a.7.7 0 0 1-.707-.693.7.7 0 0 1 .707-.694h3.103a.7.7 0 0 1 .707.694zm4.71-3.7a.7.7 0 0 1-.706.695H17a.7.7 0 0 1-.707-.694.7.7 0 0 1 .707-.694h7.814a.7.7 0 0 1 .707.694zM4.71 17.34a.7.7 0 0 1 .707-.694h7.814a.7.7 0 0 1 .707.694.7.7 0 0 1-.707.693H5.417a.7.7 0 0 1-.706-.693z"/></g></g></svg>