<svg xmlns="http://www.w3.org/2000/svg" width="45" height="45" viewBox="0 0 45 45"><g><g><path fill="#4d4ce0" d="M27.138 40.797a3.63 3.63 0 0 1 2.62 3.476v.726H15.242v-.726a3.63 3.63 0 0 1 2.62-3.476l2.46-.703V39.9a3.636 3.636 0 0 1-1.451-2.89v-1.452c0-1.015.429-1.991 1.177-2.678a3.644 3.644 0 0 1 2.774-.94c1.855.161 3.307 1.816 3.307 3.768v1.302a3.636 3.636 0 0 1-1.452 2.89v.194zm1.041 2.75a2.173 2.173 0 0 0-1.44-1.353l-3.513-1.004v-2.095l.36-.21a2.156 2.156 0 0 0 1.091-1.875v-1.302c0-1.205-.87-2.224-1.98-2.32a2.156 2.156 0 0 0-1.667.563c-.45.412-.708.997-.708 1.607v1.452c0 .776.408 1.477 1.091 1.875l.361.21v2.095l-3.513 1.004a2.17 2.17 0 0 0-1.44 1.353zm14.2-2.75A3.63 3.63 0 0 1 45 44.273v.726H30.485v-.726a3.63 3.63 0 0 1 2.62-3.476l2.46-.703V39.9a3.636 3.636 0 0 1-1.451-2.89v-1.452a3.64 3.64 0 0 1 1.177-2.677 3.647 3.647 0 0 1 2.774-.94c1.855.16 3.307 1.815 3.307 3.768v1.3a3.636 3.636 0 0 1-1.452 2.891v.194zm1.042 2.75a2.173 2.173 0 0 0-1.44-1.353l-3.513-1.004v-2.095l.36-.21a2.156 2.156 0 0 0 1.091-1.875v-1.301c0-1.205-.87-2.225-1.98-2.321a2.155 2.155 0 0 0-1.668.563c-.449.412-.707.997-.707 1.607v1.452c0 .776.408 1.477 1.091 1.875l.361.21v2.095l-3.513 1.004a2.17 2.17 0 0 0-1.44 1.353zm-31.525-2.75a3.63 3.63 0 0 1 2.62 3.476v.726H0v-.726a3.63 3.63 0 0 1 2.62-3.476l2.46-.703V39.9a3.636 3.636 0 0 1-1.451-2.89v-1.452a3.64 3.64 0 0 1 1.177-2.677 3.646 3.646 0 0 1 2.774-.94c1.855.16 3.307 1.815 3.307 3.768v1.3A3.636 3.636 0 0 1 9.435 39.9v.194zm1.041 2.75a2.173 2.173 0 0 0-1.44-1.353L7.984 41.19v-2.095l.36-.21a2.156 2.156 0 0 0 1.091-1.875v-1.301c0-1.205-.87-2.225-1.98-2.321a2.156 2.156 0 0 0-1.667.563c-.45.412-.707.997-.707 1.607v1.452c0 .776.407 1.477 1.09 1.875l.361.21v2.095L3.02 42.194a2.17 2.17 0 0 0-1.44 1.353zm7.385-23.69l6.704 3.354-6.704 3.354zm1.452 4.358l2.006-1.004-2.006-1.004zm21.774-21.34c.8 0 1.452.651 1.452 1.452v2.18c0 .8-.651 1.451-1.452 1.451v22.516h-1.451V7.958h-3.63V6.506h5.081V4.327H31.04l2.078 1.188c.393.225.676.582.84.991h.882c1.2 0 2.177.978 2.177 2.18v4.357h.547l1.63 5.81a2.907 2.907 0 0 1-2.903 2.905 2.907 2.907 0 0 1-2.903-2.905l.028-.199 1.602-5.611h.547V8.685c0-.4-.326-.727-.725-.727h-.883c-.163.41-.446.767-.84.991L31.21 10.04v6.27l-.29.219c-.078.058-1.23.9-3.296 1.555a7.232 7.232 0 0 1 2.134 5.127c0 4.004-3.256 7.263-7.258 7.263-4.002 0-7.258-3.259-7.258-7.263 0-1.95.784-3.778 2.134-5.127-2.066-.654-3.219-1.498-3.296-1.555l-.29-.218v-6.27L11.883 8.95a1.982 1.982 0 0 1-.996-1.718c0-.707.382-1.366.996-1.717l2.078-1.188H1.45v2.18h7.975v1.451H2.903v22.516H1.452V7.958C.65 7.958 0 7.308 0 6.506V4.327c0-.8.65-1.453 1.452-1.453H16.5L20.783.426a3.512 3.512 0 0 1 3.433 0l4.283 2.448zm-7.08 11.62h-.356l-1.27 4.45c.047.758.678 1.36 1.448 1.36.77 0 1.402-.602 1.449-1.36zm-8.162 8.716a5.79 5.79 0 0 0-2.394-4.688c-1.002.198-2.14.33-3.412.33-1.272 0-2.41-.132-3.412-.331a5.792 5.792 0 0 0-2.395 4.689 5.815 5.815 0 0 0 5.807 5.81 5.815 5.815 0 0 0 5.806-5.81zm1.452-12.34l-5.542 3.168a3.454 3.454 0 0 1-3.432 0l-5.542-3.169v4.687c.827.504 3.386 1.843 7.258 1.843 3.87 0 6.429-1.338 7.258-1.843zM22.5 7.957V6.506h9.424l-8.428-4.82a2.01 2.01 0 0 0-1.992 0l-8.901 5.09a.528.528 0 0 0 0 .913l8.901 5.09a2.037 2.037 0 0 0 1.992 0l8.428-4.82zM4.355 9.411h5.08v1.453h-5.08zm0 2.905h7.984v1.453H4.355zm0 2.905h7.984v1.453H4.355zm0 2.906h7.984v1.452H4.355zM31.21 29.02h9.435v1.453H31.21zm0-2.905h9.435v1.452H31.21zm0-2.905h9.435v1.452H31.21z"/></g></g></svg>