<svg xmlns="http://www.w3.org/2000/svg" width="101" height="101" viewBox="0 0 101 101"><g><g><path fill="#fff" d="M100.973 50.504c0 27.883-22.604 50.487-50.488 50.487-27.883 0-50.487-22.604-50.487-50.487C-.002 22.62 22.602.016 50.485.016c27.884 0 50.488 22.604 50.488 50.488zM37.9 77.685c-1.891-1.045-7.096-4.444-8.597-10.814a.735.735 0 0 1 .719-.897h7.598a.975.975 0 0 0 .972-.972V65a.975.975 0 0 0-.972-.972H29.8a.9.9 0 0 1-.904-.902c.005-.896.084-1.836.247-2.823.44-2.654 1.344-4.857 2.557-6.757.285-.446.78-.713 1.306-.713h20.507a.975.975 0 0 0 .972-.972v-.003a.975.975 0 0 0-.972-.972H35.144c-.532 0-.788-.646-.407-1.019 2.057-2.005 4.448-3.673 6.843-5.326a2.66 2.66 0 0 1 1.515-.47h5.19a.973.973 0 0 0 0-1.948h-1.841a.486.486 0 0 1-.3-.87c.437-.344.864-.696 1.28-1.057.376-.322.847-.509 1.342-.509h7.243a.977.977 0 0 0 .97-1.04c-.032-.517-.493-.907-1.012-.907h-4.58a.703.703 0 0 1-.559-1.126 16.67 16.67 0 0 0 2.514-4.79c.174-.536.669-.9 1.233-.9h3.398c.527 0 .998-.392 1.027-.92a.974.974 0 0 0-.971-1.027H54.79c-.4 0-.71-.347-.664-.744.096-.82.146-1.685.146-2.6 0-12.336-14.136-19.085-15.44-19.678 1.164.588 12.618 6.708 11.437 18.747C48.68 40.9 24.948 41.974 24.948 58.86c0 11.17 10.173 17.35 12.952 18.826zm14.277-35.563a.974.974 0 0 0 0 1.947h4.806a.973.973 0 0 0 0-1.947zm-8.632 4.38h-.336c-.527 0-.998.396-1.027.923a.971.971 0 0 0 .972 1.024h.39a.973.973 0 0 0 0-1.947zm-1.612 8.763h-1.629a.974.974 0 0 0 0 1.947h1.63a.973.973 0 0 0 0-1.947zm-5.521 0h-.502c-.528 0-1 .395-1.027.922a.971.971 0 0 0 .971 1.025h.558a.973.973 0 0 0 0-1.947zm2.18 22.774s-.082-.038-.234-.114c.15.076.234.114.234.114zm35.515-30.954c-1.266-1.015-2.977-1.541-3.788-4.437-.53-1.894.123-4.768-1.906-8.64-4.144-7.898-12.755-8.684-12.755-8.684s5.354 1.525 8.399 7.189c.207.382-.081.845-.514.845h-7.176c-.522 0-.98.39-1.015.908a.98.98 0 0 0 .285.756c.178.174.42.285.688.285h8.105c.476 0 .9.318 1.024.781.411 1.545.657 3.303.657 5.29a17.86 17.86 0 0 1-.526 4.37 1 1 0 0 1-.968.755h-17.18a.97.97 0 0 0-.972.973c0 .539.433.972.973.972h16.275c.45 0 .747.48.543.879-1.006 2-2.365 3.766-3.927 5.384a1.8 1.8 0 0 1-1.295.552h-13.21a.975.975 0 0 0 0 1.95h10.721c.378-.001.548.474.255.716-.565.455-1.138.909-1.72 1.35-.31.238-.692.365-1.082.365H33.307c-.527 0-.998.395-1.028.922a.975.975 0 0 0 .973 1.028h17.54c.374 0 .53.48.23.7-2.48 1.826-4.867 3.639-6.79 5.639a1.568 1.568 0 0 1-1.134.475H33.88c-.53 0-1.002.395-1.027.922a.97.97 0 0 0 .972 1.023h7.528c.37 0 .59.408.4.722-.684 1.112-1.81 5.545-1.81 8.411 0 9.447 5.499 15.209 14.207 15.536.124.009.247.009.37.013h.004c.14.004.285.004.425.004l.205-.002c.077.003.17.017.241.017l.012-.02h-.285c-3.907-.2-14.514-4.84-11.438-16.996 2.637-12.233 22.937-11.205 26.487-11.396 3.558-.191 3.808-3.431 3.621-3.966-.19-.543-.352-1.94-.16-2.48.19-.539 1.184-1.129 1.184-1.129s.017-.442-.365-.951c-.383-.51-1.138-.586-1.138-.586s.403-.064 1.014-.696c.472-.484.514-1.588.514-1.588s-1.728-.234-1.728-1.97c0-1.737 1.079-1.448 2.39-3.058 1.313-1.609-.127-2.114-1.396-3.133zM41.51 65.975h.72c.48 0 .926-.321 1.012-.792a.974.974 0 0 0-.956-1.156h-.776a.973.973 0 1 0 0 1.947zm15.893-13.143h.95c.527 0 .998-.396 1.027-.923a.973.973 0 0 0-.971-1.024h-1.006a.973.973 0 0 0 0 1.947zm5.08-13.146c.515 0 .978-.377 1.02-.89a.976.976 0 0 0-.969-1.057H59.9a.974.974 0 0 0 0 1.947zm-1.218 2.436h-.394a.974.974 0 0 0 0 1.947h.34c.48 0 .93-.326 1.012-.8a.973.973 0 0 0-.958-1.147z"/></g></g></svg>