<svg xmlns="http://www.w3.org/2000/svg" width="48" height="39" viewBox="0 0 48 39"><g><g><path fill="#4d4ce0" d="M24.807 26.265v-7.163c0-.478.32-.796.8-.796H38.41c.48 0 .8.318.8.796v7.163c0 .478-.32.796-.8.796H25.607c-.48 0-.8-.318-.8-.796zm1.6-.796H37.61v-5.571H26.407zM3.2 15.92c0-.478.32-.797.8-.797h6.402c.48 0 .8.319.8.796 0 .478-.32.796-.8.796H4c-.48 0-.8-.318-.8-.796zm9.602 0c0-.478.32-.797.8-.797h6.402c.48 0 .8.319.8.796 0 .478-.32.796-.8.796h-6.401c-.48 0-.8-.318-.8-.796zm-9.602 3.183c0-.478.32-.796.8-.796h10.403c.48 0 .8.318.8.796 0 .478-.32.796-.8.796H4c-.48 0-.8-.318-.8-.796zm17.604 0c0 .477-.32.796-.8.796h-2.4c-.48 0-.8-.319-.8-.796 0-.478.32-.796.8-.796h2.4c.48 0 .8.318.8.796zm27.208-8.357l-2.4 25.549C45.452 37.806 44.011 39 42.41 39h-.32l-36.97-4.139a3.104 3.104 0 0 1-2.828-3.156C.971 31.313 0 30.09 0 28.653V3.183C0 1.434 1.44 0 3.2 0h36.81c1.761 0 3.201 1.433 3.201 3.184V7.01l1.921.232c.88.08 1.6.477 2.16 1.194.56.636.8 1.512.72 2.308zM1.6 10.347h40.011V5.57H1.601zm0-7.163v.796h40.011v-.796a1.6 1.6 0 0 0-1.6-1.592H3.2c-.88 0-1.6.716-1.6 1.592zm1.6 27.06h36.81a1.6 1.6 0 0 0 1.601-1.591V11.939H1.601v16.714a1.6 1.6 0 0 0 1.6 1.592zM46.093 9.234c-.24-.319-.64-.558-1.04-.558l-1.84-.159v20.137c0 1.751-1.441 3.184-3.201 3.184H3.92c.08.716.64 1.353 1.44 1.432l36.89 4.14c.88.079 1.68-.558 1.76-1.434l2.401-25.549c.08-.397-.08-.875-.32-1.193z"/></g></g></svg>