<svg xmlns="http://www.w3.org/2000/svg" width="34" height="29" viewBox="0 0 34 29"><g><g><path fill="#4d4ce0" d="M15.64 16.957a8.175 8.175 0 0 1 .724 6.137c-.952 3.475-4.081 5.903-7.61 5.903h-.036c-2.86-.114-5.083-1.256-6.606-3.393-2.723-3.818-2.4-9.885-1.294-13.92C2.701 4.803 7.164 0 11.67 0c.28 0 .562.02.84.058a.889.889 0 0 1 .623.403c.142.22.183.491.113.745l-.82 2.997a.899.899 0 0 1-.727.655c-3.754.57-5.639 5.632-6.423 8.565a7.682 7.682 0 0 1 3.12-.653c.815 0 1.652.125 2.49.371 2.04.6 3.729 1.955 4.754 3.815zm18.063 6.137c-.952 3.476-4.082 5.903-7.611 5.903h-.035c-2.86-.114-5.083-1.255-6.607-3.392-2.723-3.819-2.399-9.886-1.294-13.921C20.04 4.804 24.502 0 29.008 0c.28 0 .562.02.84.058a.889.889 0 0 1 .623.403c.142.22.183.491.114.745l-.82 2.997a.899.899 0 0 1-.728.655c-3.754.57-5.639 5.632-6.423 8.565a7.682 7.682 0 0 1 3.12-.653c.815 0 1.652.125 2.49.371a7.954 7.954 0 0 1 4.754 3.815 8.179 8.179 0 0 1 .725 6.137z"/></g></g></svg>