<svg xmlns="http://www.w3.org/2000/svg" width="18" height="18" viewBox="0 0 18 18"><g><g><path fill="#4d4ce0" d="M17.809 8.548l-2.571-2.571a.617.617 0 0 0-.452-.191.618.618 0 0 0-.452.19.618.618 0 0 0-.191.453v1.285h-3.857V3.857h1.285a.617.617 0 0 0 .452-.19.618.618 0 0 0 .191-.452.618.618 0 0 0-.19-.453L9.451.191A.618.618 0 0 0 9 0a.618.618 0 0 0-.452.19L5.976 2.762a.618.618 0 0 0-.19.453c0 .173.063.324.19.451.128.128.278.191.453.191h1.285v3.857H3.857V6.43a.617.617 0 0 0-.19-.452.618.618 0 0 0-.453-.191.618.618 0 0 0-.452.19L.191 8.549A.618.618 0 0 0 0 9c0 .174.064.325.19.452l2.572 2.571c.127.128.278.191.452.191a.618.618 0 0 0 .452-.19.617.617 0 0 0 .191-.453v-1.286h3.857v3.858H6.43a.619.619 0 0 0-.452.19.618.618 0 0 0-.191.452c0 .175.063.325.19.453l2.572 2.57c.127.128.278.192.452.192a.618.618 0 0 0 .452-.191l2.571-2.571a.619.619 0 0 0 .191-.453.618.618 0 0 0-.19-.452.619.619 0 0 0-.453-.19h-1.285v-3.857h3.857v1.285c0 .174.063.325.19.452a.619.619 0 0 0 .453.191.618.618 0 0 0 .452-.19l2.571-2.572A.618.618 0 0 0 18 9a.618.618 0 0 0-.19-.452z"/></g></g></svg>