<svg xmlns="http://www.w3.org/2000/svg" width="26" height="25" viewBox="0 0 26 25"><g><g><path fill="#4aae52" d="M26 2.622v19.027a.535.535 0 0 1-.542.529H15.166v1.586a.54.54 0 0 1-.624.522L.458 22.172A.533.533 0 0 1 0 21.649V3.68a.531.531 0 0 1 .42-.52L14.503-.014a.552.552 0 0 1 .46.106c.129.1.204.253.203.414v1.586h10.292c.3 0 .542.237.542.529zm-10.834 8.985h3.25V9.493h-3.25zm0 3.171h3.25v-2.114h-3.25zm4.334 0h5.417v-2.114H19.5zm5.417-3.171V9.493H19.5v2.114zm0-3.171V6.32H19.5v2.115zm-6.5-2.115h-3.25v2.115h3.25zm-3.25 11.629h3.25v-2.115h-3.25zm4.333 0h5.417v-2.115H19.5zm5.417-14.8H19.5v2.114h5.417zm-9.75 0v2.114h3.25V3.15zM8.22 12.136l2.53-3.95a.522.522 0 0 0-.178-.751.549.549 0 0 0-.74.192l-2.25 3.512-2.25-3.511a.55.55 0 0 0-.77-.174.52.52 0 0 0-.148.733l2.53 3.95-2.529 3.947a.52.52 0 0 0-.082.279.545.545 0 1 0 1.001.28l2.248-3.51 2.249 3.511a.545.545 0 0 0 .744.169.521.521 0 0 0 .175-.728zm6.945 8.985h3.25v-2.114h-3.25zm9.75 0v-2.114H19.5v2.114z"/></g></g></svg>