<svg xmlns="http://www.w3.org/2000/svg" width="46" height="46" viewBox="0 0 46 46"><g><g><path fill="#4d4ce0" d="M42.165 12.459a7.675 7.675 0 0 1-7.667 7.666 7.667 7.667 0 1 1 7.667-7.666zm-1.917 0a5.75 5.75 0 1 0-11.5 0 5.75 5.75 0 0 0 11.5 0zm-2.197-1.24l-3.834 3.834a.958.958 0 0 1-1.354 0l-1.917-1.917 1.355-1.355 1.24 1.24 3.155-3.156zM19.166 24.918h13.416v1.917H19.166zm5.75-9.583a3.833 3.833 0 0 1-3.834 3.833h-5.75v22.041a2.875 2.875 0 0 0 2.875 2.875h23a2.875 2.875 0 0 0 2.874-2.875V27.792h1.917v13.416A4.797 4.797 0 0 1 41.206 46H18.207a4.797 4.797 0 0 1-4.791-4.792v-8.625h-2.875a6.716 6.716 0 0 1-6.06-3.833H.958A.958.958 0 0 1 0 27.792v-.958h3.902a6.772 6.772 0 0 1-.069-.959H5.75a4.797 4.797 0 0 0 4.791 4.792h2.875v-11.5h-2.875V17.25h10.541a1.917 1.917 0 0 0 0-3.833h-10.54A4.797 4.797 0 0 0 5.75 18.21H3.833c0-.326.024-.646.069-.959H0v-.958c0-.53.429-.958.958-.958h3.523a6.716 6.716 0 0 1 6.06-3.833h2.875V8.626c0-.255.101-.498.28-.678L21.364.281a.958.958 0 0 1 .678-.28h19.165a4.797 4.797 0 0 1 4.792 4.791V18.21H44.08V4.792a2.875 2.875 0 0 0-2.875-2.875H23V6.71a2.875 2.875 0 0 1-2.875 2.875h-1.917V7.667h1.917c.53 0 .958-.429.958-.958V3.272l-5.75 5.75v2.479h5.75a3.833 3.833 0 0 1 3.833 3.833zm20.251 9.636l-.001.002L31.87 38.268a.958.958 0 0 1-.247.179v.001l-5.32 2.665a.968.968 0 0 1-.44.095h-6.697v-1.916h6.115l2.395-4.792a.957.957 0 0 1 .18-.246l13.296-13.297a2.907 2.907 0 0 1 4.014 0 2.838 2.838 0 0 1 .001 4.013zm-1.355-2.657h-.001a.944.944 0 0 0-1.304 0l-2.648 2.647 1.305 1.304 2.647-2.647a.922.922 0 0 0 0-1.304zM29.888 34.93l1.304 1.305 8.616-8.617-1.304-1.304zm-1.871 3.174l1.557-.778-.779-.778zM19.166 34.5h5.75v1.917h-5.75zm0-4.791h8.624v1.916h-8.624zm12.457 9.583h8.625v1.916h-8.625zm4.792-4.792h3.833v1.917h-3.833z"/></g></g></svg>