<?xml version="1.0" encoding="utf-8"?>
<!-- Generator: Adobe Illustrator 21.1.0, SVG Export Plug-In . SVG Version: 6.00 Build 0)  -->
<svg version="1.1" id="Layer_1" xmlns="http://www.w3.org/2000/svg" xmlns:xlink="http://www.w3.org/1999/xlink" x="0px" y="0px"
	 viewBox="0 0 440.5 186.9" style="enable-background:new 0 0 440.5 186.9;" xml:space="preserve">
<style type="text/css">
	.st0{fill:#FFFFFF;}
</style>
<g>
	<g>
		<g>
			<path class="st0" d="M72.3,96.4c-0.1,1.1-1.1,1.9-2.2,1.9h-2c-1.1,0-2-0.9-2-2v0c0-1.1,0.9-2,2-2h2.1
				C71.4,94.3,72.3,95.3,72.3,96.4z"/>
			<path class="st0" d="M38.4,124.3c-0.2,1-1.1,1.7-2.1,1.7h-1.5c-1.1,0-2-0.9-2-2v0c0-1.1,0.9-2,2-2h1.6
				C37.6,121.9,38.6,123,38.4,124.3z"/>
			<path class="st0" d="M62,96.3L62,96.3c0,1.1-0.9,2-2,2h-43c-1.1,0-2.1,0.6-2.7,1.5c-2.5,4-4.4,8.6-5.4,14.2
				c-0.3,2.1-0.5,4-0.5,5.9c0,1,0.8,1.9,1.9,1.9h16.4c1.1,0,2,0.9,2,2v0c0,1.1-0.9,2-2,2H10.6c-1,0-1.7,0.9-1.5,1.9
				c3.2,13.4,14.1,20.5,18,22.7C21.3,147.4,0,134.5,0,111c0-35.4,49.8-37.7,53.1-71.7C55.6,14.1,31.6,1.2,29.1,0
				c2.7,1.2,32.4,15.4,32.4,41.3c0,1.9-0.1,3.7-0.3,5.5c-0.1,0.8,0.6,1.6,1.4,1.6l6.8,0c1.2,0,2.1,1,2,2.2c-0.1,1.1-1.1,1.9-2.2,1.9
				h-7.1c-1.2,0-2.2,0.8-2.6,1.9c-1.3,3.8-3.1,7.1-5.3,10.1c-0.7,1,0,2.4,1.2,2.4h9.6c1.1,0,2.1,0.8,2.1,1.9c0,0.6-0.2,1.2-0.6,1.6
				c-0.4,0.4-0.9,0.6-1.4,0.6H50c-1,0-2,0.4-2.8,1.1c-0.9,0.8-1.8,1.5-2.7,2.2c-0.8,0.6-0.3,1.8,0.6,1.8H49c1.1,0,2,0.9,2,2v0
				c0,1.1-0.9,2-2,2H38.1c-1.1,0-2.2,0.3-3.2,1c-5,3.5-10,7-14.4,11.2c-0.8,0.8-0.3,2.1,0.9,2.1h38.5C61.1,94.3,62,95.2,62,96.3z"/>
			<path class="st0" d="M57.1,75.9h10.1c1.1,0,2,0.9,2,2v0c0,1.1-0.9,2-2,2H57.1c-1.1,0-2-0.9-2-2v0C55.1,76.8,56,75.9,57.1,75.9z"
				/>
			<path class="st0" d="M78.2,78.3c-0.2,1-1.1,1.7-2.1,1.7h-0.7c-1.1,0-2-0.9-2-2v0c0-1.1,0.9-2,2-2h0.8
				C77.5,75.9,78.4,77,78.2,78.3z"/>
			<path class="st0" d="M80.9,68.9c-0.1,1.1-1.1,1.9-2.1,1.9l-5.4,0c-1.1,0-2-0.9-2-2v0c0-1.1,0.9-2,2-2h5.5c0.6,0,1.1,0.2,1.4,0.6
				C80.7,67.7,81,68.3,80.9,68.9z"/>
		</g>
		<path class="st0" d="M36.2,87c0.1-1.1,1.1-1.9,2.2-1.9H39c1.1,0,2,0.9,2,2l0,0c0,1.1-0.9,2-2,2h-0.8C37,89.2,36.1,88.2,36.2,87z"
			/>
		<path class="st0" d="M23,103.5h1.1c1.1,0,2,0.9,2,2v0c0,1.1-0.9,2-2,2h-1.2c-1.2,0-2.1-1-2-2.1C20.9,104.3,21.9,103.5,23,103.5z"
			/>
		<path class="st0" d="M37.7,105.5L37.7,105.5c0,1.1-0.9,2-2,2h-3.4c-1.1,0-2-0.9-2-2l0,0c0-1.1,0.9-2,2-2h3.4
			C36.8,103.5,37.7,104.4,37.7,105.5z"/>
		<path class="st0" d="M63.9,186.9h-1.9c-0.3,0-0.5,0-0.8,0c-18.3-0.7-29.8-12.8-29.8-32.6c0-6,2.4-15.3,3.8-17.7
			c0.4-0.7-0.1-1.5-0.8-1.5H18.6c-1.2,0-2.1-1-2-2.1c0.1-1.1,1-1.9,2.2-1.9h19.3c0.9,0,1.8-0.4,2.4-1c4-4.2,9-8,14.2-11.8
			c0.6-0.5,0.3-1.5-0.5-1.5H17.4c-1.2,0-2.1-1-2-2.2c0.1-1.1,1.1-1.9,2.2-1.9H61c0.8,0,1.6-0.3,2.3-0.8c1.2-0.9,2.4-1.9,3.6-2.8
			c0.6-0.5,0.3-1.5-0.5-1.5H43.8c-1.1,0-2-0.9-2-2c0-1.1,0.9-2,2-2h27.7c1,0,2-0.4,2.7-1.2c3.3-3.4,6.1-7.1,8.2-11.3
			c0.4-0.8-0.2-1.8-1.1-1.8H47.2c-1.1,0-2-0.9-2-2c0-1.1,0.9-2,2-2h36.1c1,0,1.8-0.7,2-1.6c0.7-2.8,1.1-5.9,1.1-9.2
			c0-4.2-0.5-7.9-1.4-11.1c-0.3-1-1.1-1.6-2.1-1.6h-17c-0.6,0-1.1-0.2-1.4-0.6c-0.4-0.4-0.6-1-0.6-1.6c0.1-1.1,1-1.9,2.1-1.9H81
			c0.9,0,1.5-1,1.1-1.8c-6.4-11.9-17.6-15.1-17.6-15.1s18.1,1.6,26.8,18.2c4.3,8.1,2.9,14.2,4,18.1c1.7,6.1,5.3,7.2,7.9,9.3
			c2.7,2.1,5.7,3.2,2.9,6.6c-2.8,3.4-5,2.8-5,6.4c0,3.6,3.6,4.1,3.6,4.1s-0.1,2.3-1.1,3.3c-1.3,1.3-2.1,1.5-2.1,1.5s1.6,0.2,2.4,1.2
			c0.8,1.1,0.8,2,0.8,2s-2.1,1.2-2.5,2.4c-0.4,1.1-0.1,4.1,0.3,5.2c0.4,1.1-0.1,7.9-7.6,8.3c-7.4,0.4-50-1.8-55.6,23.9
			C32.7,177.4,56.2,186.9,63.9,186.9z"/>
	</g>
	<g>
		<path class="st0" d="M128.5,66.9c2-2,4.9-3.3,8-3.3c7.1,0,11.2,4.6,11.2,10.7c0,6.3-4.9,11.1-11.1,11.1c-3.3,0-6.4-1.4-8.5-3.8
			l1.9-2.5c1.5,2,3.9,3.3,6.6,3.3c3.7,0,7.1-2.4,8-5.9c-1.2-0.6-2.5-0.7-3.7-0.7h-6.7v-3.1h6.7c1.3,0,2.7,0.1,3.9,0.8
			c-0.6-4.1-3.1-6.8-8.1-6.8c-2.4,0-4.6,0.9-6.1,2.5L128.5,66.9z"/>
		<path class="st0" d="M164.3,84.9h-10.5V64.2h10.5c3.5,0,6.1,2,6.1,5.7c0,1.8-0.6,3.3-1.9,4.1c1.4,0.7,2.9,2.4,2.9,5.3
			C171.4,83.4,167.8,84.9,164.3,84.9z M156.8,73.6c1.3-0.7,2.6-0.8,3.9-0.8h3.6c1.9,0,3.1-0.9,3.1-2.9c0-2-1.3-2.6-3.1-2.6h-7.5
			V73.6z M156.8,81.9h7.8c1.7,0,3.8-0.9,3.8-3c0-2.4-2.1-3-4.1-3h-3.6c-1.3,0-2.7,0.2-3.9,0.8V81.9z"/>
		<path class="st0" d="M187.6,85.4c-6.3,0-11.1-4.9-11.1-11.1c0-6.1,5.2-10.7,11.2-10.7c6.1,0,11.1,4.8,11.1,11
			C198.8,80.7,193.6,85.4,187.6,85.4z M187.6,66.6c-4.6,0-8.2,3.3-8.2,8c0,4.5,3.9,7.8,8.2,7.8c4.4,0,8.1-3.4,8.1-8
			C195.8,69.9,192,66.6,187.6,66.6z"/>
		<path class="st0" d="M219,84.9V67.2h-6c-0.5,5.4-1.8,11.8-5.1,15.7c-1.5,1.8-3.6,1.9-4.7,1.9h-0.6v-3h0.6c0.9,0,2.1-0.2,3.6-2.6
			c2.2-3.6,2.8-7.8,3.3-12h-2.4l-1.3-3.1h15.6v20.7H219z"/>
		<path class="st0" d="M246,85.4c-5.6,0-10-4.2-10.6-9.8h-2.8v9.3h-3V64.2h3v8.4h2.9c0.8-5.4,5.4-9,10.6-9c5.9,0,10.7,4.6,10.7,10.8
			C256.8,80.7,252,85.4,246,85.4z M246,66.6c-4.4,0-7.9,3.1-7.9,7.8c0,4.5,3.7,8,7.9,8c4.4,0,7.8-3.4,7.8-8
			C253.9,69.9,250.3,66.6,246,66.6z"/>
		<path class="st0" d="M305.1,64.2h3v20.7h-3v-16l-12.2,16h-3V64.2h3v16L305.1,64.2z"/>
		<path class="st0" d="M325.4,85.4c-6.3,0-11.1-4.9-11.1-11.1c0-6.1,5.2-10.7,11.2-10.7c6.1,0,11.1,4.8,11.1,11
			C336.6,80.7,331.4,85.4,325.4,85.4z M325.4,66.6c-4.6,0-8.2,3.3-8.2,8c0,4.5,3.9,7.8,8.2,7.8c4.4,0,8.1-3.4,8.1-8
			C333.6,69.9,329.8,66.6,325.4,66.6z"/>
		<path class="st0" d="M345.7,84.9h-3V64.2h3v8.5c0.8-0.4,1.8-0.6,2.6-0.6c1.2,0,4.9,0.6,6.8,0.6c0.9,0,1.9-0.1,2.8-0.5v-8h3v20.7
			h-3v-9.6c-0.9,0.4-1.9,0.5-2.8,0.5c-1.9,0-5.5-0.6-6.8-0.6c-0.9,0-1.8,0.1-2.6,0.6V84.9z"/>
		<path class="st0" d="M383.7,64.2h3v20.7h-3v-16l-12.2,16h-3V64.2h3v16L383.7,64.2z"/>
		<path class="st0" d="M397.2,84.9h-3V64.2h3v8.5h1.4c1.3,0,2.7-0.1,3.9-0.8l5.3-7.7h3.6l-6.8,9.8l3.7,5.6c1.4,2.1,2.5,2.3,3.4,2.3
			c0.2,0,0.4,0,0.7,0v3.1c-2.4,0-4.2,0.3-6.5-3.3l-4-6.4c-1,0.4-2,0.5-3,0.5h-1.8V84.9z"/>
		<path class="st0" d="M424.1,63.8h3.3l10,21.1H434l-1.4-3h-6.3c-3.8,0-5.8,1.2-6.3,2.1l-0.5,1h-3.3l9-18.5L424.1,63.8z M431.3,78.8
			l-4.5-8.8l-4.6,9.9c0.8-0.6,2.4-1.2,5.3-1.2H431.3z"/>
		<path class="st0" d="M439,100.5H284.6c-1.1,0-1.9-1.2-1.4-2.2l0,0c0.3-0.5,0.8-0.9,1.4-0.9H439c0.6,0,1.1,0.3,1.4,0.9l0,0
			C440.8,99.3,440.1,100.5,439,100.5z"/>
		<path class="st0" d="M280,81.9V64.2h-3v17.7h-11.1V64.2h-3v20.7h16.4l-5.6,11.7c-0.2,0.5-0.7,0.8-1.3,0.8H258c0,0,0,0,0,0H129.6
			c-0.6,0-1.1,0.3-1.4,0.9c-0.5,1,0.3,2.2,1.4,2.2h1.3v0h0.8h0c0.3,0,0.6,0,0.9,0c0.3,0,0.6,0,0.9,0h0l138.4,0l1.1,0
			c1.3,0,2.5-0.7,3-1.9l8-16.7H280z"/>
		<g>
			<path class="st0" d="M138.3,123v-7.8H133v7.8h-1.9v-9.7h9.1v9.7H138.3z"/>
			<path class="st0" d="M153.5,122c-0.5,0.5-1.1,0.8-1.8,1c-0.7,0.2-1.4,0.3-2.2,0.3c-0.7,0-1.4-0.1-2.1-0.3c-0.7-0.2-1.3-0.6-1.8-1
				c-0.5-0.4-1-1-1.3-1.6c-0.3-0.6-0.5-1.4-0.5-2.2c0-0.8,0.2-1.6,0.5-2.2s0.8-1.2,1.3-1.6c0.5-0.4,1.1-0.8,1.8-1
				c0.7-0.2,1.4-0.3,2.1-0.3c0.7,0,1.4,0.1,2,0.3c0.6,0.2,1.2,0.5,1.7,0.9l-1.3,1.5c-0.4-0.2-0.7-0.4-1.2-0.5
				c-0.4-0.1-0.8-0.2-1.3-0.2c-0.5,0-0.9,0.1-1.4,0.2c-0.4,0.1-0.8,0.3-1.2,0.6c-0.3,0.3-0.6,0.6-0.8,1c-0.2,0.4-0.3,0.9-0.3,1.4
				s0.1,1,0.3,1.4c0.2,0.4,0.5,0.7,0.8,1c0.3,0.3,0.7,0.5,1.2,0.6c0.4,0.1,0.9,0.2,1.4,0.2c0.5,0,1-0.1,1.5-0.3
				c0.5-0.2,0.9-0.4,1.3-0.8L153.5,122z"/>
			<path class="st0" d="M164.4,113.4h1.9v9.7h-1.9v-7l-5.6,7h-1.9v-9.7h1.9v7L164.4,113.4z"/>
			<path class="st0" d="M172.1,123h-2.6l4.1-5.1l-3.6-4.6h2.6l2.3,2.9l2.3-2.9h2.6l-3.6,4.5l4,5.1h-2.6l-2.7-3.5L172.1,123z"/>
			<path class="st0" d="M194,118.1c0,0.8-0.2,1.6-0.5,2.2c-0.3,0.6-0.8,1.2-1.3,1.6c-0.5,0.4-1.1,0.8-1.8,1
				c-0.7,0.2-1.4,0.4-2.1,0.4c-0.7,0-1.4-0.1-2.1-0.3c-0.7-0.2-1.3-0.6-1.8-1c-0.5-0.4-1-1-1.3-1.6c-0.3-0.6-0.5-1.4-0.5-2.2
				c0-0.8,0.2-1.6,0.5-2.2c0.3-0.6,0.8-1.2,1.3-1.6c0.5-0.4,1.1-0.8,1.8-1c0.7-0.2,1.4-0.3,2.1-0.3c0.7,0,1.4,0.1,2.1,0.3
				c0.7,0.2,1.3,0.5,1.8,1c0.5,0.4,1,1,1.3,1.6C193.8,116.5,194,117.3,194,118.1z M191.9,118.1c0-0.5-0.1-1-0.3-1.4s-0.5-0.7-0.8-1
				c-0.3-0.3-0.7-0.4-1.2-0.6s-0.9-0.2-1.4-0.2c-0.5,0-0.9,0.1-1.4,0.2c-0.4,0.1-0.8,0.3-1.2,0.6c-0.3,0.3-0.6,0.6-0.8,1
				c-0.2,0.4-0.3,0.9-0.3,1.4s0.1,1,0.3,1.4c0.2,0.4,0.5,0.7,0.8,1c0.3,0.3,0.7,0.5,1.2,0.6c0.4,0.1,0.9,0.2,1.4,0.2
				c0.5,0,0.9-0.1,1.3-0.2c0.4-0.1,0.8-0.4,1.2-0.6c0.3-0.3,0.6-0.6,0.8-1C191.8,119.1,191.9,118.6,191.9,118.1z"/>
			<path class="st0" d="M197.5,115.3l-0.8-1.9h9.2v9.7h-2v-7.8h-2.7c-0.1,0.6-0.1,1.2-0.2,1.8c-0.1,0.6-0.2,1.3-0.4,1.9
				c-0.2,0.6-0.4,1.2-0.6,1.7c-0.3,0.6-0.6,1-0.9,1.5c-0.2,0.2-0.3,0.3-0.5,0.4s-0.4,0.2-0.6,0.3c-0.2,0.1-0.4,0.1-0.5,0.1
				c-0.2,0-0.3,0-0.4,0h-1v-1.9h0.5c0.2,0,0.4-0.1,0.7-0.2s0.5-0.4,0.8-0.9c0.2-0.4,0.4-0.8,0.6-1.1c0.1-0.4,0.3-0.7,0.4-1.1
				c0.1-0.4,0.2-0.8,0.2-1.2c0-0.4,0.1-0.8,0.1-1.3H197.5z"/>
			<path class="st0" d="M220.8,118.1c0,0.8-0.2,1.6-0.5,2.2c-0.3,0.6-0.8,1.2-1.3,1.6c-0.5,0.4-1.1,0.8-1.8,1
				c-0.7,0.2-1.4,0.4-2.1,0.4c-0.7,0-1.4-0.1-2.1-0.3c-0.7-0.2-1.3-0.6-1.8-1c-0.5-0.4-1-1-1.3-1.6c-0.3-0.6-0.5-1.4-0.5-2.2
				c0-0.8,0.2-1.6,0.5-2.2c0.3-0.6,0.8-1.2,1.3-1.6c0.5-0.4,1.1-0.8,1.8-1c0.7-0.2,1.4-0.3,2.1-0.3c0.7,0,1.4,0.1,2.1,0.3
				c0.7,0.2,1.3,0.5,1.8,1c0.5,0.4,1,1,1.3,1.6C220.7,116.5,220.8,117.3,220.8,118.1z M218.8,118.1c0-0.5-0.1-1-0.3-1.4
				c-0.2-0.4-0.5-0.7-0.8-1c-0.3-0.3-0.7-0.4-1.2-0.6c-0.4-0.1-0.9-0.2-1.4-0.2c-0.5,0-0.9,0.1-1.4,0.2c-0.4,0.1-0.8,0.3-1.2,0.6
				c-0.3,0.3-0.6,0.6-0.8,1c-0.2,0.4-0.3,0.9-0.3,1.4s0.1,1,0.3,1.4c0.2,0.4,0.5,0.7,0.8,1c0.3,0.3,0.7,0.5,1.2,0.6
				c0.4,0.1,0.9,0.2,1.4,0.2c0.5,0,0.9-0.1,1.3-0.2c0.4-0.1,0.8-0.4,1.2-0.6c0.3-0.3,0.6-0.6,0.8-1
				C218.7,119.1,218.8,118.6,218.8,118.1z"/>
			<path class="st0" d="M226.3,115.3v7.8h-1.9v-9.7h7.1v1.9H226.3z"/>
			<path class="st0" d="M242.5,113.4h1.9v9.7h-1.9v-7l-5.6,7h-1.9v-9.7h1.9v7L242.5,113.4z"/>
			<path class="st0" d="M251.7,121.5c-0.2,0.4-0.4,0.6-0.6,0.9c-0.2,0.2-0.4,0.4-0.7,0.5c-0.2,0.1-0.5,0.2-0.7,0.2
				c-0.3,0-0.5,0-0.8,0h-0.8v-2h1c0.2,0,0.4-0.1,0.6-0.2c0.2-0.1,0.4-0.4,0.7-0.8l0.4-0.6c-0.8-0.2-1.4-0.5-1.9-1
				c-0.4-0.5-0.6-1.2-0.6-2c0-0.5,0.1-0.9,0.2-1.3c0.2-0.4,0.4-0.7,0.7-1c0.3-0.3,0.7-0.5,1.1-0.7c0.4-0.2,0.9-0.2,1.3-0.2h5.9v9.7
				h-2v-2.8c-0.2-0.1-0.4-0.2-0.6-0.3c-0.2-0.1-0.3-0.1-0.5-0.2c-0.2,0-0.4-0.1-0.7-0.1c-0.2,0-0.5,0-0.9-0.1L251.7,121.5z
				 M255.4,115.3l-3.3,0c-0.2,0-0.4,0-0.6,0c-0.2,0-0.4,0.1-0.6,0.1c-0.2,0.1-0.3,0.2-0.4,0.4c-0.1,0.2-0.2,0.4-0.2,0.6
				c0,0.3,0.1,0.5,0.2,0.6c0.1,0.1,0.2,0.3,0.4,0.3c0.2,0.1,0.4,0.1,0.6,0.1c0.2,0,0.4,0,0.6,0c0.7,0,1.3,0,1.8,0.1
				c0.5,0.1,1,0.2,1.4,0.5V115.3z"/>
			<path class="st0" d="M274.5,113.4h1.9v9.7h-1.9v-7l-5.6,7h-1.9v-9.7h1.9v7L274.5,113.4z"/>
			<path class="st0" d="M294.7,122c-0.5,0.5-1.1,0.8-1.8,1c-0.7,0.2-1.4,0.3-2.2,0.3c-0.7,0-1.4-0.1-2.1-0.3c-0.7-0.2-1.3-0.6-1.8-1
				c-0.5-0.4-1-1-1.3-1.6c-0.3-0.6-0.5-1.4-0.5-2.2c0-0.8,0.2-1.6,0.5-2.2s0.8-1.2,1.3-1.6c0.5-0.4,1.1-0.8,1.8-1
				c0.7-0.2,1.4-0.3,2.1-0.3c0.7,0,1.4,0.1,2,0.3c0.6,0.2,1.2,0.5,1.7,0.9l-1.3,1.5c-0.4-0.2-0.7-0.4-1.2-0.5
				c-0.4-0.1-0.8-0.2-1.3-0.2c-0.5,0-0.9,0.1-1.4,0.2c-0.4,0.1-0.8,0.3-1.2,0.6c-0.3,0.3-0.6,0.6-0.8,1c-0.2,0.4-0.3,0.9-0.3,1.4
				s0.1,1,0.3,1.4c0.2,0.4,0.5,0.7,0.8,1c0.3,0.3,0.7,0.5,1.2,0.6c0.4,0.1,0.9,0.2,1.4,0.2c0.5,0,1-0.1,1.5-0.3
				c0.5-0.2,0.9-0.4,1.3-0.8L294.7,122z"/>
			<path class="st0" d="M300.4,113.1h2.1l5.2,9.9h-2.1l-0.8-1.5h-1.2c-0.6,0-1.2,0.1-1.8,0.1c-0.6,0.1-1.1,0.2-1.6,0.4
				c-0.5,0.1-0.9,0.3-1.2,0.4s-0.5,0.3-0.6,0.4l-0.1,0.1h-2l4.6-8.7L300.4,113.1z M303.9,119.8l-1.9-3.6l-2.3,4.4
				c0.3-0.2,0.8-0.3,1.4-0.5c0.6-0.2,1.5-0.3,2.5-0.3H303.9z"/>
			<path class="st0" d="M321.7,114.9v8.1h-2.1v-5.7l-3.4,4.6l-3.4-4.6v5.7h-2.1v-8.1l-1-1.6h2.4l4.1,5.5l4.1-5.5h2.4L321.7,114.9z"
				/>
			<path class="st0" d="M336.3,118.1c0,0.8-0.2,1.6-0.5,2.2c-0.3,0.6-0.8,1.2-1.3,1.6c-0.5,0.4-1.1,0.8-1.8,1
				c-0.7,0.2-1.4,0.4-2.1,0.4s-1.4-0.1-2.1-0.3c-0.7-0.2-1.3-0.6-1.8-1c-0.5-0.4-1-1-1.3-1.6c-0.3-0.6-0.5-1.4-0.5-2.2
				c0-0.8,0.2-1.6,0.5-2.2c0.3-0.6,0.8-1.2,1.3-1.6c0.5-0.4,1.1-0.8,1.8-1c0.7-0.2,1.4-0.3,2.1-0.3c0.7,0,1.4,0.1,2.1,0.3
				c0.7,0.2,1.3,0.5,1.8,1c0.5,0.4,1,1,1.3,1.6C336.1,116.5,336.3,117.3,336.3,118.1z M334.2,118.1c0-0.5-0.1-1-0.3-1.4
				s-0.5-0.7-0.8-1s-0.7-0.4-1.2-0.6s-0.9-0.2-1.4-0.2c-0.5,0-0.9,0.1-1.4,0.2c-0.4,0.1-0.8,0.3-1.2,0.6c-0.3,0.3-0.6,0.6-0.8,1
				c-0.2,0.4-0.3,0.9-0.3,1.4s0.1,1,0.3,1.4c0.2,0.4,0.5,0.7,0.8,1c0.3,0.3,0.7,0.5,1.2,0.6c0.4,0.1,0.9,0.2,1.4,0.2
				c0.5,0,0.9-0.1,1.3-0.2c0.4-0.1,0.8-0.4,1.2-0.6c0.3-0.3,0.6-0.6,0.8-1C334.1,119.1,334.2,118.6,334.2,118.1z"/>
			<path class="st0" d="M347,123v-7.8h-5.3v7.8h-1.9v-9.7h9.1v9.7H347z"/>
			<path class="st0" d="M363.9,118.1c0,0.8-0.2,1.6-0.5,2.2c-0.3,0.6-0.8,1.2-1.3,1.6c-0.5,0.4-1.1,0.8-1.8,1
				c-0.7,0.2-1.4,0.4-2.1,0.4s-1.4-0.1-2.1-0.3c-0.7-0.2-1.3-0.6-1.8-1c-0.5-0.4-1-1-1.3-1.6c-0.3-0.6-0.5-1.4-0.5-2.2
				c0-0.8,0.2-1.6,0.5-2.2c0.3-0.6,0.8-1.2,1.3-1.6c0.5-0.4,1.1-0.8,1.8-1c0.7-0.2,1.4-0.3,2.1-0.3c0.7,0,1.4,0.1,2.1,0.3
				c0.7,0.2,1.3,0.5,1.8,1c0.5,0.4,1,1,1.3,1.6C363.8,116.5,363.9,117.3,363.9,118.1z M361.9,118.1c0-0.5-0.1-1-0.3-1.4
				s-0.5-0.7-0.8-1c-0.3-0.3-0.7-0.4-1.2-0.6s-0.9-0.2-1.4-0.2c-0.5,0-0.9,0.1-1.4,0.2c-0.4,0.1-0.8,0.3-1.2,0.6
				c-0.3,0.3-0.6,0.6-0.8,1c-0.2,0.4-0.3,0.9-0.3,1.4s0.1,1,0.3,1.4c0.2,0.4,0.5,0.7,0.8,1c0.3,0.3,0.7,0.5,1.2,0.6
				c0.4,0.1,0.9,0.2,1.4,0.2c0.5,0,0.9-0.1,1.3-0.2c0.4-0.1,0.8-0.4,1.2-0.6c0.3-0.3,0.6-0.6,0.8-1
				C361.8,119.1,361.9,118.6,361.9,118.1z"/>
			<path class="st0" d="M367.2,114c0.3-0.2,0.7-0.4,1-0.5c0.3-0.1,0.7-0.2,1-0.3c0.3-0.1,0.6-0.1,0.9-0.1c0.3,0,0.5,0,0.8,0
				c1.3,0,2.3,0.2,3,0.7c0.7,0.5,1,1.2,1,2.2c0,0.3,0,0.6-0.1,0.9c-0.1,0.3-0.3,0.6-0.5,0.8c0.4,0.2,0.7,0.5,0.9,1
				c0.2,0.4,0.3,0.9,0.3,1.3c0,0.6-0.1,1.2-0.4,1.6c-0.3,0.4-0.6,0.8-1,1c-0.4,0.3-0.9,0.4-1.5,0.6c-0.5,0.1-1.1,0.2-1.7,0.2
				c-0.4,0-0.8,0-1.3-0.1c-0.4-0.1-0.9-0.2-1.3-0.3c-0.4-0.1-0.8-0.3-1.2-0.6c-0.4-0.2-0.7-0.5-0.9-0.7l1.1-1.7
				c0.6,0.6,1.1,0.9,1.8,1.1c0.6,0.2,1.2,0.3,1.8,0.3c0.4,0,0.7,0,1-0.1c0.3,0,0.6-0.1,0.8-0.2c0.2-0.1,0.4-0.2,0.6-0.4
				c0.1-0.2,0.2-0.4,0.2-0.7c0-0.2,0-0.4-0.1-0.6c-0.1-0.1-0.2-0.3-0.3-0.3c-0.1-0.1-0.3-0.1-0.5-0.2c-0.2,0-0.4,0-0.6,0h-2v-1.9h2
				c0.3,0,0.6-0.1,0.7-0.3c0.2-0.2,0.2-0.4,0.2-0.6c0-0.4-0.2-0.6-0.5-0.8c-0.4-0.2-0.9-0.2-1.6-0.2c-0.1,0-0.3,0-0.5,0
				c-0.2,0-0.4,0.1-0.7,0.1c-0.2,0.1-0.5,0.1-0.7,0.2c-0.2,0.1-0.5,0.2-0.7,0.3L367.2,114z"/>
			<path class="st0" d="M380.9,123H379v-9.7h1.9v3.9c0.3-0.2,0.7-0.2,1.1-0.2c0.4,0,0.9,0,1.4,0.1c0.5,0.1,1,0.1,1.5,0.1
				c0.2,0,0.4,0,0.6,0c0.2,0,0.4-0.1,0.6-0.2v-3.7h1.9v9.7h-1.9V119c-0.2,0.1-0.4,0.2-0.6,0.2c-0.2,0-0.4,0-0.6,0
				c-0.5,0-1,0-1.5-0.1c-0.5-0.1-0.9-0.1-1.4-0.1c-0.2,0-0.4,0-0.6,0c-0.2,0-0.4,0.1-0.6,0.2V123z"/>
			<path class="st0" d="M394.9,113.1h2.1l5.2,9.9h-2.1l-0.8-1.5h-1.2c-0.6,0-1.2,0.1-1.8,0.1c-0.6,0.1-1.1,0.2-1.6,0.4
				c-0.5,0.1-0.9,0.3-1.2,0.4s-0.5,0.3-0.6,0.4l-0.1,0.1h-2l4.6-8.7L394.9,113.1z M398.4,119.8l-1.9-3.6l-2.3,4.4
				c0.3-0.2,0.8-0.3,1.4-0.5c0.6-0.2,1.5-0.3,2.5-0.3H398.4z"/>
			<path class="st0" d="M406.9,123H405v-9.7h1.9v3.9c0.3-0.2,0.7-0.2,1.1-0.2c0.4,0,0.9,0,1.4,0.1s1,0.1,1.5,0.1c0.2,0,0.4,0,0.6,0
				c0.2,0,0.4-0.1,0.6-0.2v-3.7h1.9v9.7h-1.9V119c-0.2,0.1-0.4,0.2-0.6,0.2c-0.2,0-0.4,0-0.6,0c-0.5,0-1,0-1.5-0.1
				c-0.5-0.1-0.9-0.1-1.4-0.1c-0.2,0-0.4,0-0.6,0c-0.2,0-0.4,0.1-0.6,0.2V123z"/>
			<path class="st0" d="M426.1,113.4h1.9v9.7h-1.9v-7l-5.6,7h-1.9v-9.7h1.9v7L426.1,113.4z"/>
			<path class="st0" d="M434.4,121.1h6.1v1.9h-8v-9.7h7.6v1.9h-5.7v2.4c0.4-0.2,0.9-0.4,1.4-0.5c0.5-0.1,1.1-0.1,1.6-0.1h1.4v1.9
				h-1.4c-0.4,0-0.8,0-1.1,0c-0.3,0-0.5,0-0.8,0.1c-0.2,0-0.4,0.1-0.6,0.2c-0.2,0.1-0.4,0.2-0.6,0.3V121.1z"/>
		</g>
	</g>
</g>
</svg>
