<?xml version="1.0" encoding="utf-8"?>
<!-- Generator: Adobe Illustrator 21.1.0, SVG Export Plug-In . SVG Version: 6.00 Build 0)  -->
<svg version="1.1" id="Layer_1" xmlns="http://www.w3.org/2000/svg" xmlns:xlink="http://www.w3.org/1999/xlink" x="0px" y="0px"
	 viewBox="0 0 448.3 146.6" style="enable-background:new 0 0 448.3 146.6;" xml:space="preserve">
<style type="text/css">
	.st0{fill:#474561;}
	.st1{fill:#812435;}
</style>
<g>
	<g>
		<g>
			<path class="st0" d="M56.7,75.6c0,0.9-0.8,1.5-1.7,1.5h-1.6c-0.9,0-1.6-0.7-1.6-1.6v0c0-0.9,0.7-1.6,1.6-1.6h1.7
				C56,73.9,56.7,74.7,56.7,75.6z"/>
			<path class="st0" d="M30.1,97.5c-0.1,0.8-0.9,1.3-1.7,1.3h-1.2c-0.9,0-1.6-0.7-1.6-1.6v0c0-0.9,0.7-1.6,1.6-1.6h1.3
				C29.5,95.6,30.3,96.5,30.1,97.5z"/>
			<path class="st0" d="M48.6,75.5L48.6,75.5c0,0.9-0.7,1.6-1.6,1.6H13.3c-0.9,0-1.7,0.4-2.1,1.2c-2,3.1-3.5,6.8-4.2,11.1
				c-0.3,1.6-0.4,3.2-0.4,4.6c0,0.8,0.7,1.5,1.5,1.5h12.9c0.9,0,1.6,0.7,1.6,1.6v0c0,0.9-0.7,1.6-1.6,1.6H8.3
				c-0.8,0-1.4,0.7-1.2,1.5c2.5,10.5,11,16.1,14.1,17.8C16.7,115.6,0,105.4,0,87.1c0-27.8,39.1-29.6,41.7-56.2
				C43.6,11,24.8,1,22.9,0C25,1,48.3,12.1,48.3,32.4c0,1.5-0.1,2.9-0.2,4.3c-0.1,0.7,0.4,1.2,1.1,1.2l5.3,0c0.9,0,1.6,0.8,1.6,1.7
				c0,0.9-0.8,1.5-1.7,1.5h-5.6c-0.9,0-1.7,0.6-2,1.5c-1,3-2.4,5.6-4.1,7.9c-0.6,0.8,0,1.9,0.9,1.9H51c0.9,0,1.6,0.6,1.7,1.5
				c0,0.5-0.2,0.9-0.5,1.2c-0.3,0.3-0.7,0.5-1.1,0.5H39.2c-0.8,0-1.6,0.3-2.2,0.8c-0.7,0.6-1.4,1.2-2.1,1.7
				c-0.6,0.5-0.3,1.4,0.5,1.4h3c0.9,0,1.6,0.7,1.6,1.6v0c0,0.9-0.7,1.6-1.6,1.6h-8.5c-0.9,0-1.8,0.3-2.5,0.8
				c-3.9,2.7-7.9,5.5-11.3,8.8c-0.6,0.6-0.2,1.7,0.7,1.7H47C47.9,73.9,48.6,74.7,48.6,75.5z"/>
			<path class="st0" d="M44.8,59.5h7.9c0.9,0,1.6,0.7,1.6,1.6v0c0,0.9-0.7,1.6-1.6,1.6h-7.9c-0.9,0-1.6-0.7-1.6-1.6v0
				C43.2,60.2,43.9,59.5,44.8,59.5z"/>
			<path class="st0" d="M61.3,61.4c-0.1,0.8-0.9,1.3-1.7,1.3h-0.6c-0.9,0-1.6-0.7-1.6-1.6v0c0-0.9,0.7-1.6,1.6-1.6h0.6
				C60.7,59.5,61.5,60.4,61.3,61.4z"/>
			<path class="st0" d="M63.4,54c-0.1,0.8-0.8,1.5-1.7,1.5l-4.3,0c-0.9,0-1.6-0.7-1.6-1.6v0c0-0.9,0.7-1.6,1.6-1.6h4.3
				c0.4,0,0.8,0.2,1.1,0.5C63.3,53.1,63.5,53.6,63.4,54z"/>
		</g>
		<path class="st1" d="M28.4,68.2c0-0.9,0.8-1.5,1.7-1.5h0.6c0.9,0,1.6,0.7,1.6,1.6l0,0c0,0.9-0.7,1.6-1.6,1.6H30
			C29,69.9,28.3,69.2,28.4,68.2z"/>
		<path class="st1" d="M18,81.1h0.8c0.9,0,1.6,0.7,1.6,1.6l0,0c0,0.9-0.7,1.6-1.6,1.6h-0.9c-0.9,0-1.6-0.8-1.6-1.7
			C16.4,81.8,17.2,81.1,18,81.1z"/>
		<path class="st1" d="M29.6,82.7L29.6,82.7c0,0.9-0.7,1.6-1.6,1.6h-2.7c-0.9,0-1.6-0.7-1.6-1.6l0,0c0-0.9,0.7-1.6,1.6-1.6H28
			C28.8,81.1,29.6,81.9,29.6,82.7z"/>
		<path class="st1" d="M50.1,146.6h-1.5c-0.2,0-0.4,0-0.6,0c-14.3-0.5-23.4-10-23.4-25.6c0-4.7,1.9-12,3-13.8c0.3-0.5,0-1.2-0.7-1.2
			H14.6c-0.9,0-1.6-0.8-1.6-1.7c0-0.9,0.8-1.5,1.7-1.5h15.2c0.7,0,1.4-0.3,1.9-0.8c3.2-3.3,7.1-6.3,11.2-9.3
			c0.5-0.4,0.2-1.2-0.4-1.2H13.7c-0.9,0-1.6-0.8-1.6-1.7c0-0.9,0.8-1.5,1.7-1.5h34c0.6,0,1.3-0.2,1.8-0.6c1-0.7,1.9-1.5,2.8-2.2
			c0.5-0.4,0.2-1.2-0.4-1.2H34.4c-0.9,0-1.6-0.7-1.6-1.6c0-0.9,0.7-1.6,1.6-1.6h21.7c0.8,0,1.6-0.3,2.1-0.9c2.6-2.7,4.8-5.6,6.5-8.9
			c0.3-0.7-0.2-1.4-0.9-1.4H37c-0.9,0-1.6-0.7-1.6-1.6c0-0.9,0.7-1.6,1.6-1.6h28.3c0.8,0,1.4-0.5,1.6-1.2c0.6-2.2,0.9-4.6,0.9-7.2
			c0-3.3-0.4-6.2-1.1-8.7c-0.2-0.8-0.9-1.3-1.7-1.3H51.6c-0.4,0-0.8-0.2-1.1-0.5c-0.3-0.3-0.5-0.8-0.5-1.2c0.1-0.9,0.8-1.5,1.7-1.5
			h11.8c0.7,0,1.2-0.8,0.8-1.4c-5-9.3-13.8-11.8-13.8-11.8s14.2,1.3,21,14.3c3.3,6.4,2.3,11.1,3.1,14.2c1.3,4.8,4.2,5.6,6.2,7.3
			c2.1,1.7,4.5,2.5,2.3,5.2s-3.9,2.2-3.9,5c0,2.9,2.8,3.2,2.8,3.2s-0.1,1.8-0.8,2.6c-1,1-1.7,1.1-1.7,1.1s1.2,0.1,1.9,1
			c0.6,0.8,0.6,1.6,0.6,1.6s-1.6,1-1.9,1.9c-0.3,0.9,0,3.2,0.3,4.1c0.3,0.9-0.1,6.2-6,6.5c-5.8,0.3-39.2-1.4-43.6,18.8
			C25.7,139.1,44.1,146.6,50.1,146.6z"/>
	</g>
	<g>
		<path class="st0" d="M107.4,38c2.2-2.2,5.3-3.6,8.7-3.6c7.7,0,12.2,5,12.2,11.7c0,6.8-5.3,12.2-12.2,12.2c-3.6,0-7-1.5-9.3-4.1
			l2-2.8c1.6,2.2,4.3,3.6,7.2,3.6c4,0,7.7-2.6,8.7-6.4c-1.3-0.6-2.7-0.8-4.1-0.8h-7.3v-3.4h7.3c1.5,0,2.9,0.1,4.3,0.9
			c-0.6-4.4-3.3-7.5-8.8-7.5c-2.6,0-5,1-6.6,2.7L107.4,38z"/>
		<path class="st0" d="M146.5,57.7H135V35.1h11.5c3.8,0,6.7,2.2,6.7,6.2c0,1.9-0.7,3.6-2,4.5c1.6,0.7,3.1,2.7,3.1,5.8
			C154.3,56,150.3,57.7,146.5,57.7z M138.3,45.3c1.4-0.8,2.8-0.9,4.3-0.9h3.9c2,0,3.4-1,3.4-3.1c0-2.2-1.4-2.9-3.4-2.9h-8.2V45.3z
			 M138.3,54.4h8.5c1.9,0,4.2-1,4.2-3.3c0-2.6-2.3-3.3-4.5-3.3h-3.9c-1.5,0-2.9,0.2-4.3,0.9V54.4z"/>
		<path class="st0" d="M171.9,58.2c-6.9,0-12.2-5.3-12.2-12.2c0-6.7,5.7-11.7,12.2-11.7c6.7,0,12.2,5.3,12.2,12
			C184.1,53.1,178.5,58.2,171.9,58.2z M171.9,37.7c-5,0-8.9,3.6-8.9,8.7c0,4.9,4.2,8.5,9,8.5c4.9,0,8.9-3.8,8.9-8.7
			C180.9,41.3,176.8,37.7,171.9,37.7z"/>
		<path class="st0" d="M206.3,57.7V38.4h-6.5c-0.6,5.9-1.9,12.9-5.6,17.2c-1.6,1.9-3.9,2.1-5.1,2.1h-0.6v-3.3h0.6
			c1,0,2.3-0.2,3.9-2.9c2.4-3.9,3.1-8.5,3.6-13.1h-2.6l-1.4-3.3h17.1v22.7H206.3z"/>
		<path class="st0" d="M235.8,58.2c-6.1,0-11-4.6-11.6-10.7h-3.1v10.1h-3.3V35.1h3.3v9.2h3.1c0.9-5.9,5.9-9.8,11.6-9.8
			c6.5,0,11.7,5.1,11.7,11.8C247.5,53.1,242.3,58.2,235.8,58.2z M235.8,37.7c-4.9,0-8.6,3.4-8.6,8.5c0,4.9,4.1,8.7,8.6,8.7
			c4.8,0,8.6-3.8,8.6-8.7C244.4,41.3,240.4,37.7,235.8,37.7z"/>
		<path class="st0" d="M300.3,35.1h3.3v22.7h-3.3V40.3L287,57.7h-3.3V35.1h3.3v17.5L300.3,35.1z"/>
		<path class="st0" d="M322.5,58.2c-6.9,0-12.2-5.3-12.2-12.2c0-6.7,5.7-11.7,12.2-11.7c6.7,0,12.2,5.3,12.2,12
			C334.7,53.1,329.1,58.2,322.5,58.2z M322.5,37.7c-5,0-8.9,3.6-8.9,8.7c0,4.9,4.2,8.5,9,8.5c4.9,0,8.9-3.8,8.9-8.7
			C331.4,41.3,327.3,37.7,322.5,37.7z"/>
		<path class="st0" d="M344.7,57.7h-3.3V35.1h3.3v9.3c0.9-0.5,1.9-0.6,2.9-0.6c1.3,0,5.3,0.7,7.4,0.7c0.9,0,2.1-0.2,3.1-0.6v-8.8
			h3.3v22.7H358V47.2c-1,0.4-2.1,0.6-3.1,0.6c-2.1,0-6-0.7-7.4-0.7c-1,0-2,0.2-2.9,0.6V57.7z"/>
		<path class="st0" d="M386.1,35.1h3.3v22.7h-3.3V40.3l-13.3,17.5h-3.3V35.1h3.3v17.5L386.1,35.1z"/>
		<path class="st0" d="M401,57.7h-3.3V35.1h3.3v9.3h1.5c1.4,0,2.9-0.2,4.3-0.9l5.7-8.4h4L409,45.7l4.1,6.1c1.5,2.3,2.7,2.6,3.7,2.6
			c0.2,0,0.5,0,0.7,0v3.4c-2.6,0-4.6,0.4-7-3.6l-4.3-7c-1.1,0.5-2.2,0.6-3.3,0.6H401V57.7z"/>
		<path class="st0" d="M430.4,34.7h3.6l10.9,23.1h-3.7l-1.5-3.3h-6.9c-4.1,0-6.3,1.3-6.9,2.2l-0.6,1.1h-3.6l9.8-20.3L430.4,34.7z
			 M438.2,51.1l-5-9.6l-5,10.8c0.8-0.7,2.7-1.3,5.8-1.3H438.2z"/>
		<path class="st0" d="M446.6,74.7H278c-1.2,0-2-1.3-1.5-2.4v0c0.3-0.6,0.9-0.9,1.5-0.9h168.6c0.6,0,1.2,0.4,1.5,1v0
			C448.6,73.5,447.8,74.7,446.6,74.7z"/>
		<path class="st1" d="M272.9,54.4V35.1h-3.3v19.4h-12.1V35.1h-3.3v22.7h17.9L266,70.5c-0.3,0.5-0.8,0.9-1.4,0.9h-15.7c0,0,0,0,0,0
			H108.5c-0.6,0-1.2,0.4-1.5,0.9c-0.5,1.1,0.3,2.4,1.5,2.4h1.4v0h0.8h0c0.3,0,0.7,0,1,0c0.4,0,0.7,0,1,0h0l151.2,0l1.2,0
			c1.4,0,2.7-0.8,3.3-2.1l8.7-18.2H272.9z"/>
		<g>
			<path class="st0" d="M118.1,99.4v-8.5h-5.8v8.5h-2.1V88.8h9.9v10.6H118.1z"/>
			<path class="st0" d="M134.6,98.2c-0.6,0.5-1.3,0.9-2,1.1c-0.7,0.3-1.5,0.4-2.4,0.4c-0.8,0-1.6-0.1-2.3-0.4
				c-0.7-0.3-1.4-0.6-2-1.1c-0.6-0.5-1-1.1-1.4-1.8c-0.3-0.7-0.5-1.5-0.5-2.4c0-0.9,0.2-1.7,0.5-2.4c0.4-0.7,0.8-1.3,1.4-1.8
				c0.6-0.5,1.3-0.8,2-1.1c0.7-0.2,1.5-0.4,2.3-0.4c0.8,0,1.5,0.1,2.2,0.3c0.7,0.2,1.3,0.5,1.9,1l-1.4,1.6c-0.4-0.3-0.8-0.5-1.3-0.6
				c-0.4-0.1-0.9-0.2-1.4-0.2c-0.5,0-1,0.1-1.5,0.2c-0.5,0.1-0.9,0.4-1.3,0.6c-0.4,0.3-0.7,0.7-0.9,1.1c-0.2,0.4-0.3,1-0.3,1.6
				c0,0.6,0.1,1.1,0.3,1.6c0.2,0.4,0.5,0.8,0.9,1.1c0.4,0.3,0.8,0.5,1.3,0.6c0.5,0.1,1,0.2,1.5,0.2c0.6,0,1.1-0.1,1.7-0.3
				c0.5-0.2,1-0.5,1.4-0.8L134.6,98.2z"/>
			<path class="st0" d="M146.6,88.8h2.1v10.6h-2.1v-7.6l-6.2,7.6h-2.1V88.8h2.1v7.6L146.6,88.8z"/>
			<path class="st0" d="M155,99.4h-2.9l4.5-5.6l-3.9-5h2.9l2.5,3.2l2.6-3.2h2.8l-4,5l4.4,5.6H161l-3-3.8L155,99.4z"/>
			<path class="st0" d="M178.9,94c0,0.9-0.2,1.7-0.5,2.4c-0.4,0.7-0.8,1.3-1.4,1.8c-0.6,0.5-1.2,0.9-2,1.1c-0.8,0.3-1.5,0.4-2.3,0.4
				c-0.8,0-1.6-0.1-2.3-0.4c-0.8-0.3-1.4-0.6-2-1.1c-0.6-0.5-1-1.1-1.4-1.8c-0.3-0.7-0.5-1.5-0.5-2.4c0-0.9,0.2-1.7,0.5-2.4
				c0.4-0.7,0.8-1.3,1.4-1.8c0.6-0.5,1.3-0.8,2-1.1c0.8-0.2,1.5-0.4,2.3-0.4c0.8,0,1.6,0.1,2.3,0.3c0.8,0.2,1.4,0.6,2,1
				c0.6,0.5,1,1,1.4,1.7C178.7,92.3,178.9,93.1,178.9,94z M176.6,94c0-0.6-0.1-1.1-0.3-1.5s-0.5-0.8-0.9-1.1
				c-0.4-0.3-0.8-0.5-1.3-0.6c-0.5-0.1-1-0.2-1.5-0.2c-0.5,0-1,0.1-1.5,0.2c-0.5,0.1-0.9,0.3-1.3,0.6c-0.4,0.3-0.7,0.6-0.9,1.1
				c-0.2,0.4-0.3,1-0.3,1.6c0,0.6,0.1,1.1,0.3,1.6c0.2,0.4,0.5,0.8,0.9,1.1c0.4,0.3,0.8,0.5,1.3,0.6c0.5,0.1,1,0.2,1.5,0.2
				c0.5,0,1-0.1,1.5-0.2c0.5-0.2,0.9-0.4,1.3-0.7c0.4-0.3,0.7-0.7,0.9-1.1C176.5,95.1,176.6,94.6,176.6,94z"/>
			<path class="st0" d="M182.7,90.9l-0.9-2.1h10v10.6h-2.2v-8.5h-3c-0.1,0.6-0.2,1.3-0.3,2c-0.1,0.7-0.3,1.4-0.4,2
				c-0.2,0.7-0.4,1.3-0.7,1.9c-0.3,0.6-0.6,1.1-1,1.6c-0.2,0.2-0.4,0.4-0.6,0.5c-0.2,0.1-0.4,0.2-0.6,0.3c-0.2,0.1-0.4,0.1-0.6,0.1
				c-0.2,0-0.3,0-0.5,0h-1.1v-2.1h0.6c0.2,0,0.5-0.1,0.7-0.2s0.5-0.5,0.8-0.9c0.3-0.4,0.5-0.8,0.6-1.2c0.2-0.4,0.3-0.8,0.4-1.2
				c0.1-0.4,0.2-0.9,0.2-1.3c0.1-0.4,0.1-0.9,0.1-1.4H182.7z"/>
			<path class="st0" d="M208.2,94c0,0.9-0.2,1.7-0.5,2.4c-0.4,0.7-0.8,1.3-1.4,1.8c-0.6,0.5-1.2,0.9-2,1.1c-0.8,0.3-1.5,0.4-2.3,0.4
				c-0.8,0-1.6-0.1-2.3-0.4c-0.8-0.3-1.4-0.6-2-1.1c-0.6-0.5-1-1.1-1.4-1.8c-0.3-0.7-0.5-1.5-0.5-2.4c0-0.9,0.2-1.7,0.5-2.4
				c0.4-0.7,0.8-1.3,1.4-1.8c0.6-0.5,1.3-0.8,2-1.1c0.8-0.2,1.5-0.4,2.3-0.4c0.8,0,1.6,0.1,2.3,0.3s1.4,0.6,2,1c0.6,0.5,1,1,1.4,1.7
				C208.1,92.3,208.2,93.1,208.2,94z M206,94c0-0.6-0.1-1.1-0.3-1.5s-0.5-0.8-0.9-1.1c-0.4-0.3-0.8-0.5-1.3-0.6
				c-0.5-0.1-1-0.2-1.5-0.2c-0.5,0-1,0.1-1.5,0.2c-0.5,0.1-0.9,0.3-1.3,0.6c-0.4,0.3-0.7,0.6-0.9,1.1c-0.2,0.4-0.3,1-0.3,1.6
				c0,0.6,0.1,1.1,0.3,1.6c0.2,0.4,0.5,0.8,0.9,1.1c0.4,0.3,0.8,0.5,1.3,0.6c0.5,0.1,1,0.2,1.5,0.2c0.5,0,1-0.1,1.5-0.2
				c0.5-0.2,0.9-0.4,1.3-0.7c0.4-0.3,0.7-0.7,0.9-1.1C205.9,95.1,206,94.6,206,94z"/>
			<path class="st0" d="M214.2,90.9v8.5h-2.1V88.8h7.7v2.1H214.2z"/>
			<path class="st0" d="M231.9,88.8h2.1v10.6h-2.1v-7.6l-6.2,7.6h-2.1V88.8h2.1v7.6L231.9,88.8z"/>
			<path class="st0" d="M241.9,97.7c-0.2,0.4-0.5,0.7-0.7,0.9c-0.2,0.2-0.5,0.4-0.7,0.5c-0.3,0.1-0.5,0.2-0.8,0.2
				c-0.3,0-0.6,0-0.9,0h-0.9v-2.1h1.1c0.2,0,0.4-0.1,0.6-0.2c0.2-0.1,0.5-0.4,0.8-0.9l0.4-0.7c-0.9-0.2-1.6-0.6-2-1.1
				c-0.4-0.6-0.7-1.3-0.7-2.1c0-0.5,0.1-1,0.3-1.4c0.2-0.4,0.4-0.8,0.8-1.1c0.3-0.3,0.7-0.5,1.2-0.7c0.4-0.2,0.9-0.3,1.5-0.3h6.5
				v10.6H246v-3.1c-0.2-0.1-0.4-0.2-0.6-0.3c-0.2-0.1-0.4-0.1-0.6-0.2c-0.2-0.1-0.4-0.1-0.7-0.1c-0.3,0-0.6,0-1-0.1L241.9,97.7z
				 M246,90.9l-3.6,0c-0.2,0-0.5,0-0.7,0c-0.2,0-0.4,0.1-0.6,0.2c-0.2,0.1-0.3,0.2-0.5,0.4c-0.1,0.2-0.2,0.4-0.2,0.7
				s0.1,0.5,0.2,0.7c0.1,0.2,0.3,0.3,0.5,0.4c0.2,0.1,0.4,0.1,0.6,0.2c0.2,0,0.5,0,0.7,0c0.7,0,1.4,0,2,0.1c0.6,0.1,1.1,0.2,1.6,0.5
				V90.9z"/>
			<path class="st0" d="M266.9,88.8h2.1v10.6h-2.1v-7.6l-6.2,7.6h-2.1V88.8h2.1v7.6L266.9,88.8z"/>
			<path class="st0" d="M289,98.2c-0.6,0.5-1.3,0.9-2,1.1c-0.7,0.3-1.5,0.4-2.4,0.4c-0.8,0-1.6-0.1-2.3-0.4c-0.7-0.3-1.4-0.6-2-1.1
				s-1-1.1-1.4-1.8c-0.3-0.7-0.5-1.5-0.5-2.4c0-0.9,0.2-1.7,0.5-2.4c0.4-0.7,0.8-1.3,1.4-1.8c0.6-0.5,1.3-0.8,2-1.1
				c0.7-0.2,1.5-0.4,2.3-0.4c0.8,0,1.5,0.1,2.2,0.3c0.7,0.2,1.3,0.5,1.9,1l-1.4,1.6c-0.4-0.3-0.8-0.5-1.3-0.6
				c-0.4-0.1-0.9-0.2-1.4-0.2c-0.5,0-1,0.1-1.5,0.2c-0.5,0.1-0.9,0.4-1.3,0.6c-0.4,0.3-0.7,0.7-0.9,1.1c-0.2,0.4-0.3,1-0.3,1.6
				c0,0.6,0.1,1.1,0.3,1.6c0.2,0.4,0.5,0.8,0.9,1.1c0.4,0.3,0.8,0.5,1.3,0.6c0.5,0.1,1,0.2,1.5,0.2c0.6,0,1.1-0.1,1.7-0.3
				c0.5-0.2,1-0.5,1.4-0.8L289,98.2z"/>
			<path class="st0" d="M295.2,88.5h2.3l5.7,10.8h-2.3l-0.8-1.6h-1.3c-0.7,0-1.3,0.1-1.9,0.2c-0.6,0.1-1.2,0.2-1.7,0.4
				c-0.5,0.2-1,0.3-1.3,0.5s-0.6,0.3-0.7,0.4l-0.1,0.1h-2.2l5.1-9.5L295.2,88.5z M299,95.9l-2.1-3.9l-2.5,4.8
				c0.3-0.2,0.9-0.4,1.6-0.6c0.7-0.2,1.6-0.3,2.7-0.3H299z"/>
			<path class="st0" d="M318.4,90.5v8.9h-2.3v-6.2l-3.7,5l-3.7-5v6.2h-2.3v-8.9l-1-1.7h2.6l4.5,6l4.5-6h2.6L318.4,90.5z"/>
			<path class="st0" d="M334.4,94c0,0.9-0.2,1.7-0.5,2.4c-0.4,0.7-0.8,1.3-1.4,1.8c-0.6,0.5-1.2,0.9-2,1.1c-0.8,0.3-1.5,0.4-2.3,0.4
				c-0.8,0-1.6-0.1-2.3-0.4c-0.8-0.3-1.4-0.6-2-1.1c-0.6-0.5-1-1.1-1.4-1.8c-0.3-0.7-0.5-1.5-0.5-2.4c0-0.9,0.2-1.7,0.5-2.4
				c0.4-0.7,0.8-1.3,1.4-1.8c0.6-0.5,1.3-0.8,2-1.1c0.8-0.2,1.5-0.4,2.3-0.4c0.8,0,1.6,0.1,2.3,0.3s1.4,0.6,2,1c0.6,0.5,1,1,1.4,1.7
				C334.2,92.3,334.4,93.1,334.4,94z M332.2,94c0-0.6-0.1-1.1-0.3-1.5s-0.5-0.8-0.9-1.1c-0.4-0.3-0.8-0.5-1.3-0.6s-1-0.2-1.5-0.2
				c-0.5,0-1,0.1-1.5,0.2c-0.5,0.1-0.9,0.3-1.3,0.6c-0.4,0.3-0.7,0.6-0.9,1.1c-0.2,0.4-0.3,1-0.3,1.6c0,0.6,0.1,1.1,0.3,1.6
				c0.2,0.4,0.5,0.8,0.9,1.1c0.4,0.3,0.8,0.5,1.3,0.6c0.5,0.1,1,0.2,1.5,0.2c0.5,0,1-0.1,1.5-0.2c0.5-0.2,0.9-0.4,1.3-0.7
				c0.4-0.3,0.7-0.7,0.9-1.1C332,95.1,332.2,94.6,332.2,94z"/>
			<path class="st0" d="M346.1,99.4v-8.5h-5.8v8.5h-2.1V88.8h9.9v10.6H346.1z"/>
			<path class="st0" d="M364.6,94c0,0.9-0.2,1.7-0.5,2.4c-0.4,0.7-0.8,1.3-1.4,1.8c-0.6,0.5-1.2,0.9-2,1.1c-0.8,0.3-1.5,0.4-2.3,0.4
				s-1.6-0.1-2.3-0.4c-0.8-0.3-1.4-0.6-2-1.1c-0.6-0.5-1-1.1-1.4-1.8c-0.3-0.7-0.5-1.5-0.5-2.4c0-0.9,0.2-1.7,0.5-2.4
				c0.4-0.7,0.8-1.3,1.4-1.8c0.6-0.5,1.3-0.8,2-1.1c0.8-0.2,1.5-0.4,2.3-0.4c0.8,0,1.6,0.1,2.3,0.3s1.4,0.6,2,1c0.6,0.5,1,1,1.4,1.7
				C364.4,92.3,364.6,93.1,364.6,94z M362.4,94c0-0.6-0.1-1.1-0.3-1.5s-0.5-0.8-0.9-1.1c-0.4-0.3-0.8-0.5-1.3-0.6
				c-0.5-0.1-1-0.2-1.5-0.2c-0.5,0-1,0.1-1.5,0.2c-0.5,0.1-0.9,0.3-1.3,0.6c-0.4,0.3-0.7,0.6-0.9,1.1c-0.2,0.4-0.3,1-0.3,1.6
				c0,0.6,0.1,1.1,0.3,1.6c0.2,0.4,0.5,0.8,0.9,1.1c0.4,0.3,0.8,0.5,1.3,0.6c0.5,0.1,1,0.2,1.5,0.2c0.5,0,1-0.1,1.5-0.2
				c0.5-0.2,0.9-0.4,1.3-0.7c0.4-0.3,0.7-0.7,0.9-1.1C362.3,95.1,362.4,94.6,362.4,94z"/>
			<path class="st0" d="M368.1,89.5c0.4-0.2,0.7-0.4,1.1-0.5c0.4-0.1,0.7-0.2,1.1-0.3c0.4-0.1,0.7-0.1,1-0.2c0.3,0,0.6,0,0.8,0
				c1.4,0,2.5,0.3,3.3,0.8c0.8,0.5,1.1,1.4,1.1,2.4c0,0.3-0.1,0.7-0.2,1c-0.1,0.4-0.3,0.7-0.6,0.9c0.4,0.2,0.7,0.6,0.9,1.1
				c0.2,0.5,0.3,0.9,0.3,1.4c0,0.7-0.1,1.3-0.4,1.7c-0.3,0.5-0.7,0.8-1.1,1.1c-0.5,0.3-1,0.5-1.6,0.6c-0.6,0.1-1.2,0.2-1.8,0.2
				c-0.4,0-0.9,0-1.4-0.1c-0.5-0.1-1-0.2-1.4-0.4c-0.4-0.2-0.9-0.4-1.3-0.6c-0.4-0.2-0.7-0.5-1-0.8l1.2-1.8c0.6,0.6,1.3,1,1.9,1.2
				c0.7,0.2,1.3,0.3,2,0.3c0.4,0,0.8,0,1.1-0.1c0.4,0,0.7-0.1,0.9-0.2c0.3-0.1,0.5-0.3,0.6-0.5c0.1-0.2,0.2-0.5,0.2-0.8
				c0-0.2,0-0.4-0.1-0.6c-0.1-0.2-0.2-0.3-0.4-0.4c-0.1-0.1-0.3-0.1-0.5-0.2c-0.2,0-0.4-0.1-0.6-0.1h-2.2v-2.1h2.2
				c0.4,0,0.6-0.1,0.8-0.3c0.2-0.2,0.3-0.4,0.3-0.7c0-0.4-0.2-0.7-0.6-0.9c-0.4-0.2-1-0.3-1.7-0.3c-0.1,0-0.3,0-0.5,0
				c-0.2,0-0.5,0.1-0.7,0.1c-0.3,0.1-0.5,0.1-0.8,0.2c-0.3,0.1-0.5,0.2-0.8,0.3L368.1,89.5z"/>
			<path class="st0" d="M383.1,99.4H381V88.8h2.1V93c0.4-0.2,0.8-0.3,1.2-0.3c0.4,0,0.9,0.1,1.5,0.2c0.6,0.1,1.1,0.2,1.7,0.2
				c0.2,0,0.5,0,0.7-0.1c0.2,0,0.4-0.1,0.7-0.2v-4h2.1v10.6h-2.1v-4.4c-0.2,0.1-0.4,0.2-0.6,0.2c-0.2,0-0.4,0.1-0.6,0.1
				c-0.6,0-1.1,0-1.6-0.1c-0.5-0.1-1-0.1-1.6-0.1c-0.2,0-0.5,0-0.7,0.1c-0.2,0-0.4,0.1-0.7,0.2V99.4z"/>
			<path class="st0" d="M398.4,88.5h2.3l5.7,10.8h-2.3l-0.8-1.6H402c-0.7,0-1.3,0.1-1.9,0.2c-0.6,0.1-1.2,0.2-1.7,0.4
				c-0.5,0.2-1,0.3-1.3,0.5s-0.6,0.3-0.7,0.4l-0.1,0.1H394l5.1-9.5L398.4,88.5z M402.2,95.9l-2.1-3.9l-2.5,4.8
				c0.3-0.2,0.9-0.4,1.6-0.6c0.7-0.2,1.6-0.3,2.7-0.3H402.2z"/>
			<path class="st0" d="M411.5,99.4h-2.1V88.8h2.1V93c0.4-0.2,0.8-0.3,1.2-0.3c0.4,0,0.9,0.1,1.5,0.2c0.6,0.1,1.1,0.2,1.7,0.2
				c0.2,0,0.5,0,0.7-0.1c0.2,0,0.4-0.1,0.7-0.2v-4h2.1v10.6h-2.1v-4.4c-0.2,0.1-0.4,0.2-0.6,0.2c-0.2,0-0.4,0.1-0.6,0.1
				c-0.6,0-1.1,0-1.6-0.1c-0.5-0.1-1-0.1-1.6-0.1c-0.2,0-0.5,0-0.7,0.1c-0.2,0-0.4,0.1-0.7,0.2V99.4z"/>
			<path class="st0" d="M432.6,88.8h2.1v10.6h-2.1v-7.6l-6.2,7.6h-2.1V88.8h2.1v7.6L432.6,88.8z"/>
			<path class="st0" d="M441.6,97.2h6.6v2.1h-8.7V88.8h8.3v2.1h-6.3v2.6c0.5-0.3,1-0.4,1.5-0.5c0.6-0.1,1.2-0.1,1.8-0.1h1.6V95h-1.6
				c-0.5,0-0.9,0-1.2,0c-0.3,0-0.6,0.1-0.8,0.1c-0.2,0-0.4,0.1-0.6,0.2c-0.2,0.1-0.4,0.2-0.6,0.3V97.2z"/>
		</g>
	</g>
</g>
</svg>
