<?xml version="1.0" encoding="utf-8"?>
<!-- Generator: Adobe Illustrator 23.0.3, SVG Export Plug-In . SVG Version: 6.00 Build 0)  -->
<svg version="1.1" id="Layer_1" xmlns="http://www.w3.org/2000/svg" xmlns:xlink="http://www.w3.org/1999/xlink" x="0px" y="0px"
	 viewBox="0 0 1080 560" style="enable-background:new 0 0 1080 560;" xml:space="preserve">
<style type="text/css">
	.st0{fill:url(#SVGID_1_);}
	.st1{fill:#464362;}
	.st2{fill:#961F33;}
</style>
<g>
	<g>
		<g>
			<linearGradient id="SVGID_1_" gradientUnits="userSpaceOnUse" x1="91.2738" y1="444.5303" x2="92.6759" y2="444.5303">
				<stop  offset="0" style="stop-color:#333F4B"/>
				<stop  offset="1" style="stop-color:#C1272D"/>
			</linearGradient>
			<path class="st0" d="M91.27,444.19c0.9,0.45,1.4,0.68,1.4,0.68S92.18,444.64,91.27,444.19z"/>
			<path class="st1" d="M217.12,288.46c-0.17,3.15-3,5.52-6.15,5.52h-5.69c-3.22,0-5.83-2.61-5.83-5.83v0
				c0-3.22,2.61-5.83,5.83-5.83h6.02C214.61,282.33,217.29,285.1,217.12,288.46z"/>
			<path class="st1" d="M120.52,367.91c-0.52,2.82-3.19,4.74-6.06,4.74h-4.31c-3.22,0-5.83-2.61-5.83-5.83v0
				c0-3.22,2.61-5.83,5.83-5.83h4.64C118.37,361,121.19,364.23,120.52,367.91z"/>
			<path class="st1" d="M187.81,288.14v0.02c0,3.2-2.62,5.82-5.82,5.82H59.24c-3.15,0-6.11,1.6-7.82,4.27
				c-7.26,11.38-12.68,24.56-15.31,40.45c-0.98,5.91-1.45,11.53-1.48,16.9c-0.03,2.98,2.42,5.4,5.42,5.4h46.81
				c3.2,0,5.82,2.62,5.82,5.82v0.02c0,3.2-2.62,5.82-5.82,5.82H41.37c-2.8,0-4.95,2.61-4.3,5.37c8.99,38.13,40.14,58.48,51.46,64.74
				C71.9,433.92,11,396.92,11,330.06c0-101.07,142.07-107.5,151.58-204.47c7.07-72.07-61.49-108.7-68.46-112.22
				c7.8,3.55,92.42,43.95,92.42,117.8c0,5.47-0.3,10.65-0.87,15.56c-0.28,2.38,1.58,4.46,3.97,4.46l19.38,0
				c3.33,0,5.99,2.79,5.82,6.15c-0.17,3.15-3,5.5-6.15,5.5h-20.34c-3.38,0-6.34,2.18-7.38,5.38c-3.6,10.89-8.78,20.3-15.05,28.67
				c-2.07,2.79-0.12,6.74,3.34,6.74h27.42c3.11,0,5.86,2.33,6.06,5.43c0.11,1.78-0.55,3.37-1.69,4.52
				c-1.06,1.05-2.51,1.71-4.11,1.71h-43.36c-2.96,0-5.78,1.11-8.03,3.05c-2.49,2.16-5.05,4.27-7.66,6.32
				c-2.18,1.71-0.99,5.21,1.79,5.21h11.01c3.22,0,5.83,2.61,5.83,5.83v0c0,3.22-2.61,5.83-5.83,5.83h-31.06
				c-3.24,0-6.41,0.98-9.07,2.82c-14.33,9.9-28.65,19.88-40.96,31.88c-2.28,2.23-0.75,6.1,2.44,6.1h109.96
				C185.19,282.33,187.81,284.94,187.81,288.14z"/>
			<path class="st1" d="M173.99,229.87h28.77c3.22,0,5.83,2.61,5.83,5.83v0c0,3.22-2.61,5.83-5.83,5.83h-28.77
				c-3.22,0-5.83-2.61-5.83-5.83v0C168.17,232.48,170.78,229.87,173.99,229.87z"/>
			<path class="st1" d="M234.13,236.74c-0.49,2.84-3.19,4.79-6.06,4.79h-2.03c-3.22,0-5.83-2.61-5.83-5.83v0
				c0-3.22,2.61-5.83,5.83-5.83h2.36C231.96,229.87,234.78,233.06,234.13,236.74z"/>
			<path class="st1" d="M241.79,209.96c-0.25,3.07-3.02,5.33-6.1,5.33l-15.47,0c-3.22,0-5.83-2.61-5.83-5.83v0
				c0-3.22,2.61-5.83,5.83-5.83H236c1.6,0,3.06,0.64,4.11,1.71C241.28,206.51,241.94,208.17,241.79,209.96z"/>
		</g>
		<path class="st2" d="M114.16,261.61c0.17-3.15,3-5.52,6.15-5.52h2.01c3.22,0,5.83,2.61,5.83,5.83l0,0c0,3.22-2.61,5.83-5.83,5.83
			h-2.34C116.65,267.74,113.99,264.97,114.16,261.61z"/>
		<path class="st2" d="M76.62,308.54h3c3.22,0,5.83,2.61,5.83,5.83v0c0,3.22-2.61,5.83-5.83,5.83h-3.33c-3.33,0-5.99-2.77-5.82-6.13
			C70.63,310.91,73.46,308.54,76.62,308.54z"/>
		<path class="st2" d="M118.5,314.37L118.5,314.37c0,3.22-2.61,5.83-5.83,5.83h-9.75c-3.22,0-5.83-2.61-5.83-5.83v0
			c0-3.22,2.61-5.83,5.83-5.83h9.75C115.89,308.54,118.5,311.15,118.5,314.37z"/>
		<path class="st2" d="M622.74,493.59l-22.77,47.58c-1.6,3.33-4.93,5.44-8.62,5.44l-3.2,0.02l-394.82-0.02h-5.31
			c-0.74-0.02-1.47-0.02-2.21-0.08c-52.13-1.96-85.04-36.45-85.04-93c0-17.16,6.74-43.69,10.83-50.35c1.14-1.88-0.18-4.32-2.39-4.32
			H64.14c-3.33,0-6-2.77-5.82-6.13c0.15-3.15,2.97-5.52,6.15-5.52h55.18c2.57,0,5.03-1.02,6.79-2.85
			c11.51-11.97,25.8-22.82,40.64-33.75c1.8-1.32,0.86-4.19-1.37-4.19h-105c-3.3,0-6-2.77-5.82-6.15c0.18-3.15,3-5.52,6.15-5.52
			h123.85c2.34,0,4.63-0.76,6.48-2.19c3.48-2.64,6.91-5.36,10.29-8.08c1.75-1.45,0.74-4.3-1.52-4.3h-64.18
			c-3.2,0-5.82-2.62-5.82-5.82c0-3.23,2.62-5.85,5.82-5.85h79.07c2.92,0,5.72-1.2,7.75-3.3c9.35-9.68,17.49-20.26,23.51-32.23
			c1.22-2.39-0.56-5.26-3.25-5.26h-97.42c-3.23,0-5.82-2.59-5.82-5.82c0-3.23,2.59-5.82,5.82-5.82h102.83c2.75,0,5.13-1.88,5.8-4.52
			c2.03-8.11,3.15-16.78,3.15-26.15c0-11.89-1.47-22.42-3.94-31.67c-0.74-2.77-3.28-4.68-6.13-4.68h-48.52
			c-1.6,0-3.05-0.66-4.12-1.7c-1.14-1.14-1.8-2.75-1.7-4.52c0.2-3.1,2.95-5.44,6.07-5.44h42.95c2.59,0,4.32-2.77,3.08-5.06
			c-18.22-33.91-50.27-43.03-50.27-43.03s51.54,4.7,76.35,51.98c12.15,23.18,8.23,40.39,11.41,51.72
			c4.85,17.33,15.1,20.49,22.67,26.56c7.6,6.1,16.22,9.13,8.36,18.76c-7.85,9.63-14.31,7.9-14.31,18.3
			c0,10.4,10.34,11.79,10.34,11.79s-0.25,6.61-3.08,9.51c-3.66,3.79-6.07,4.17-6.07,4.17s4.52,0.46,6.81,3.51
			c2.29,3.05,2.19,5.69,2.19,5.69s-5.95,3.53-7.09,6.76s-0.18,11.59,0.97,14.84c1.12,3.2-0.38,22.6-21.68,23.74
			c-21.25,1.14-142.76-5.01-158.55,68.22c-18.83,74.42,40.67,93.07,62.65,93.07h403.54c1.6,0,3.05-0.91,3.74-2.34l16.11-33.37H562.4
			v-59.17h8.57v50.53h31.64v-50.53h8.64v50.53H622.74z"/>
		<path class="st2" d="M193.28,546.61c-0.89,0.02-1.78,0.02-2.69,0.02c-0.84,0-1.7,0-2.54-0.02H193.28z"/>
	</g>
	<g>
		<path class="st1" d="M179.09,450.68c5.79-5.79,13.88-9.36,22.76-9.36c20.15,0,31.88,13.01,31.88,30.46
			c0,17.84-13.88,31.8-31.81,31.8c-9.52,0-18.24-4.04-24.19-10.71l5.31-7.22c4.28,5.71,11.1,9.28,18.79,9.28
			c10.55,0,20.15-6.82,22.68-16.81c-3.33-1.67-7.06-2.06-10.63-2.06h-19.03v-8.8h19.03c3.81,0,7.62,0.32,11.1,2.3
			c-1.59-11.58-8.72-19.51-23.08-19.51c-6.74,0-13.01,2.7-17.29,7.14L179.09,450.68z"/>
		<path class="st1" d="M281.17,502.23H251.2v-59.17h29.98c9.99,0,17.45,5.79,17.45,16.18c0,5.08-1.82,9.44-5.31,11.66
			c4.13,1.9,8.17,6.98,8.17,15.15C301.48,497.79,291.01,502.23,281.17,502.23z M259.76,469.87c3.57-2.06,7.37-2.38,11.26-2.38h10.15
			c5.31,0,8.8-2.7,8.8-8.17c0-5.63-3.65-7.53-8.8-7.53h-21.41V469.87z M259.76,493.59h22.29c4.84,0,10.86-2.7,10.86-8.65
			c0-6.9-6.03-8.65-11.74-8.65h-10.15c-3.81,0-7.69,0.48-11.26,2.38V493.59z"/>
		<path class="st1" d="M347.57,503.58c-17.92,0-31.8-13.96-31.8-31.8c0-17.45,14.91-30.46,31.88-30.46
			c17.53,0,31.81,13.72,31.81,31.41C379.46,490.18,364.7,503.58,347.57,503.58z M347.57,450.05c-13.16,0-23.32,9.44-23.32,22.76
			c0,12.77,11.03,22.13,23.4,22.13c12.69,0,23.24-9.83,23.24-22.68C370.89,459.25,360.18,450.05,347.57,450.05z"/>
		<path class="st1" d="M437.21,502.23v-50.44h-17.05c-1.51,15.39-5.08,33.55-14.59,44.89c-4.28,5.08-10.23,5.55-13.4,5.55h-1.59
			v-8.65h1.59c2.7,0,5.95-0.56,10.31-7.53c6.34-10.15,8.09-22.13,9.36-34.26h-6.82l-3.73-8.72h44.57v59.17H437.21z"/>
		<path class="st1" d="M514.23,503.58c-15.94,0-28.63-11.9-30.38-27.84h-8.01v26.49h-8.57v-59.17h8.57v23.95h8.17
			c2.3-15.31,15.47-25.7,30.3-25.7c16.89,0,30.61,13.24,30.61,30.93C544.93,490.26,531.36,503.58,514.23,503.58z M514.23,450.05
			c-12.69,0-22.45,8.88-22.45,22.21c0,12.77,10.63,22.68,22.52,22.68c12.61,0,22.37-9.83,22.37-22.68
			C536.68,459.25,526.37,450.05,514.23,450.05z"/>
		<path class="st1" d="M682.81,443.07h8.57v59.17h-8.57v-45.6l-34.82,45.6h-8.57v-59.17h8.57v45.6L682.81,443.07z"/>
		<path class="st1" d="M740.64,503.58c-17.92,0-31.8-13.96-31.8-31.8c0-17.45,14.91-30.46,31.88-30.46
			c17.53,0,31.81,13.72,31.81,31.41C772.52,490.18,757.77,503.58,740.64,503.58z M740.64,450.05c-13.16,0-23.32,9.44-23.32,22.76
			c0,12.77,11.03,22.13,23.4,22.13c12.69,0,23.24-9.83,23.24-22.68C763.96,459.25,753.25,450.05,740.64,450.05z"/>
		<path class="st1" d="M798.55,502.23h-8.57v-59.17h8.57v24.27c2.38-1.19,5-1.59,7.53-1.59c3.49,0,13.88,1.74,19.27,1.74
			c2.46,0,5.47-0.4,8.01-1.51v-22.92h8.65v59.17h-8.65v-27.52c-2.54,1.11-5.55,1.51-8.01,1.51c-5.39,0-15.78-1.74-19.27-1.74
			c-2.54,0-5.16,0.4-7.53,1.59V502.23z"/>
		<path class="st1" d="M906.82,443.07h8.57v59.17h-8.57v-45.6l-34.82,45.6h-8.57v-59.17h8.57v45.6L906.82,443.07z"/>
		<path class="st1" d="M945.47,502.23h-8.65v-59.17h8.65v24.35h3.96c3.73,0,7.61-0.4,11.1-2.3l14.99-22.05h10.39l-19.43,27.84
			l10.63,15.94c3.97,5.95,7.06,6.66,9.75,6.66c0.64,0,1.27-0.08,1.9-0.08v8.8c-6.9,0-11.9,0.95-18.4-9.36l-11.34-18.16
			c-2.78,1.19-5.71,1.51-8.57,1.51h-5V502.23z"/>
		<path class="st1" d="M1022.25,442.04h9.52l28.47,60.2h-9.68l-3.89-8.65h-18c-10.79,0-16.58,3.41-17.92,5.87l-1.51,2.77h-9.36
			l25.62-52.9L1022.25,442.04z M1042.8,484.86l-12.93-24.98l-13.09,28.31c2.14-1.82,6.98-3.33,15.07-3.33H1042.8z"/>
		<path class="st1" d="M188.02,546.61h-2.21v-0.08C186.55,546.58,187.28,546.58,188.02,546.61z"/>
		<path class="st1" d="M1064.66,546.61H624.4c-3.19,0-5.28-3.33-3.91-6.2h0c0.72-1.51,2.24-2.46,3.91-2.46h440.26
			c1.68,0,3.22,0.98,3.93,2.5l0,0C1069.93,543.32,1067.83,546.61,1064.66,546.61z"/>
	</g>
</g>
</svg>
