<svg xmlns="http://www.w3.org/2000/svg" width="26" height="26" viewBox="0 0 26 26"><g><g><path fill="#fc4c3b" d="M11.989 8.089c-.29-1.3-.29-2.311 0-3.178.144 0 .144-.144.144-.144l.145.144v.145c.144.144.144.722 0 1.444v.289c0 .433-.145.722-.29 1.3.145 0 .145 0 0 0zm-4.334 9.966c-.866 1.734-1.733 2.6-2.6 2.745.145-.433.867-1.445 1.878-2.311.145-.145.434-.29.722-.434.145 0 .145 0 0 0zm13.434-2.022v.145h-.434c-.722 0-1.733-.29-2.744-.722v-.145h.289c2.022 0 2.6.433 2.744.578 0 .144.145.144.145.144zM26 2.89V23.11C26 24.7 24.7 26 23.111 26H2.889a2.897 2.897 0 0 1-2.89-2.889V2.889C0 1.3 1.3 0 2.89 0H23.11C24.7 0 26 1.3 26 2.889zm-3.9 13.289c0-.29 0-.578-.144-.867-.434-.722-1.59-1.011-3.323-1.011-.578 0-1.155.144-1.878.144-.577-.289-.866-.577-1.3-.866-.866-.867-1.733-2.167-2.31-3.756v-.144c.577-1.878 1.01-4.19 0-5.2-.29-.145-.578-.29-.867-.29h-.29c-.577 0-1.01.579-1.155 1.156-.577 2.023-.289 3.034.29 4.767-.434 1.3-.867 2.744-1.59 4.189-.577 1.011-1.01 1.878-1.444 2.6-.578.289-1.011.578-1.3.722-1.734 1.011-2.6 2.311-2.745 3.033 0 .29 0 .434.145.723v.144l.722.434c.144.144.289.144.578.144 1.155 0 2.6-1.445 4.333-4.478.145-.144.145-.144.289-.144 1.444-.578 3.322-.867 5.778-1.156 1.444.722 3.178 1.011 4.333 1.011.578 0 1.011-.144 1.3-.289.29-.289.434-.722.578-.866zm-7.8-1.445c.144.145.289.29.578.434-1.156.144-2.89.577-4.767 1.3h-.289c.289-.578.578-1.011.867-1.59.578-1.3 1.155-2.455 1.444-3.466.578 1.3 1.445 2.456 2.167 3.322z"/></g></g></svg>