<svg xmlns="http://www.w3.org/2000/svg" width="59" height="59" viewBox="0 0 59 59"><g><g><path fill="#4d4ce0" d="M1.454 36.766a3.001 3.001 0 0 1-1.427-1.842c-.157-1.013.59-2.025 1.302-2.892a38.069 38.069 0 0 0 4.298-6.993c.076-.134.132-.277.167-.427-.004-.27-.319-.581-.8-1.022a3.758 3.758 0 0 1-1.431-2.199 3.29 3.29 0 0 1 .26-1.643c.175-.465.38-.913.576-1.362.35-.719.63-1.469.84-2.24l.098-.415c.226-1.063.517-2.112.87-3.14a18.84 18.84 0 0 1 3.941-6.434c2.198-2.325 5.417-3.88 9.847-4.764A65.554 65.554 0 0 1 29.497.028c6.055-.302 11.24 1.499 16.788 5.842.774.603 1.5 1.264 2.173 1.978a.983.983 0 1 1-1.432 1.348 17.187 17.187 0 0 0-1.948-1.776c-5.152-4.032-9.934-5.703-15.48-5.429-3.1.218-6.18.663-9.216 1.33-3.968.79-6.926 2.198-8.805 4.188a16.867 16.867 0 0 0-3.526 5.763c-.325.951-.593 1.92-.8 2.904l-.098.419a14.365 14.365 0 0 1-.961 2.592c-.186.415-.37.828-.53 1.25-.095.211-.147.44-.154.672.044.32.423.665.815 1.03a3.441 3.441 0 0 1 1.436 2.458 2.931 2.931 0 0 1-.378 1.329 39.694 39.694 0 0 1-4.5 7.312c-.748.912-.908 1.274-.908 1.423.18.176.376.336.585.477.257.18.528.337.81.471.838.429 1.986 1.017 2.221 2.217.14.743.049 1.51-.262 2.2-.172.364-.347.679-.501.95-.05.085-.1.18-.148.265.407.328.963.745 1.199.918a.982.982 0 0 1 .188 1.4c-.146.19-.273.394-.379.608l.203.117a3.257 3.257 0 0 1 1.82 2.012 4.303 4.303 0 0 1-.086 2.092c-.045.205-.092.41-.118.616-.057.595.021 1.195.231 1.755a1.74 1.74 0 0 0 2.022 1.31 76.286 76.286 0 0 0 8.449-2.556h.007c1.023-.348 1.951-.672 2.682-.928.68-.238 1.193-.417 1.46-.503 4.083-1.293 4.911-2.769 4.888-3.78a.983.983 0 0 1 .959-1.007h.018c.533 0 .97.426.982.96.057 2.453-2.047 4.371-6.256 5.704-.255.081-.75.254-1.409.484l-.884.31a15.682 15.682 0 0 1 3.458 6.28l22.283-.062-.066-.099c-.283-.41-.537-.84-.761-1.284a20.621 20.621 0 0 1-1.22-3.078 35.107 35.107 0 0 1-1.235-6.164 18.69 18.69 0 0 1 .714-7.695.983.983 0 1 1 1.846.681 16.698 16.698 0 0 0-.612 6.772c.212 1.97.6 3.917 1.162 5.818.293.961.664 1.896 1.11 2.798.187.369.4.724.635 1.064a7.6 7.6 0 0 1 .995 1.868.986.986 0 0 1-.935 1.279L23.369 59a.983.983 0 0 1-.954-.747c-.364-1.484-1.762-5.437-3.975-6.737a74.355 74.355 0 0 1-8.283 2.48 3.889 3.889 0 0 1-.806.087 3.681 3.681 0 0 1-3.475-2.68 5.854 5.854 0 0 1-.324-2.649 8.89 8.89 0 0 1 .148-.787c.12-.381.153-.784.098-1.18-.075-.309-.303-.463-.884-.793a8.434 8.434 0 0 1-.68-.418 1.42 1.42 0 0 1-.583-.968 2.48 2.48 0 0 1 .32-1.419c-.334-.257-.7-.54-.913-.738-.908-.742-.305-1.808.054-2.444.133-.233.286-.504.432-.818a1.71 1.71 0 0 0 .117-.997c-.05-.254-.763-.618-1.188-.836a7.03 7.03 0 0 1-1.019-.59zm9.525-19.269a.982.982 0 1 1-1.912-.45l.098-.425c.19-.9.432-1.789.727-2.661A14.932 14.932 0 0 1 13 8.869a12.156 12.156 0 0 1 5.385-3.02.982.982 0 1 1 .571 1.88 10.288 10.288 0 0 0-4.527 2.49 12.992 12.992 0 0 0-2.696 4.425 21.788 21.788 0 0 0-.657 2.43l-.099.427zm-2.13 4.135a.984.984 0 1 1 .002-1.967.984.984 0 0 1-.001 1.967zm44.615-10.72c.485 2.376.613 4.811.376 7.224a22.546 22.546 0 0 1 4.246-.02c.526.06.91.528.866 1.057-.032.354-.786 8.662-6.487 13.358-4.096 3.361-9.607 3.845-12.437 3.845-.658 0-1.149-.026-1.465-.047a.957.957 0 0 1-.269.054.976.976 0 0 1-.244-.049c-.35.025-.885.054-1.573.054-2.872 0-8.278-.503-12.363-3.86-5.705-4.69-6.454-12.999-6.484-13.351a.983.983 0 0 1 .867-1.058 22.873 22.873 0 0 1 4.25.013 24.319 24.319 0 0 1 .373-7.217.982.982 0 0 1 1.153-.738 24.057 24.057 0 0 1 8.47 3.835 25.626 25.626 0 0 1 4.853-7.814.882.882 0 0 1 .706-.3c.263 0 .516.106.7.295a25.536 25.536 0 0 1 4.912 7.768 24.102 24.102 0 0 1 8.397-3.788.983.983 0 0 1 1.153.74zm-1.638 7.5c.236-2.013.205-4.05-.092-6.056a21.582 21.582 0 0 0-7.646 3.958 13.29 13.29 0 0 0-2.606 2.937 15.315 15.315 0 0 0-2.204 7.56c.016.359.026.71.026 1.053a16.932 16.932 0 0 1 3.896-5.503.82.82 0 0 1 .04-.042l.012-.013.022-.021c.155-.145.31-.278.476-.411a17.176 17.176 0 0 1 8.076-3.463zM38.309 8.376a23.989 23.989 0 0 0-3.957 6.972 14.244 14.244 0 0 1 3.936 6.077 14.11 14.11 0 0 1 4.017-6.146 23.895 23.895 0 0 0-3.996-6.903zm-13.455 3.981a23.12 23.12 0 0 0-.098 6.047 17.434 17.434 0 0 1 8.089 3.494c.154.122.291.261.439.394a.91.91 0 0 1 .159.143 17.082 17.082 0 0 1 3.839 5.41c.002-.336.01-.682.026-1.04a15.354 15.354 0 0 0-2.21-7.55 13.076 13.076 0 0 0-2.528-2.877 21.508 21.508 0 0 0-7.716-4.02zm.51 18.65c3.983 3.275 9.617 3.473 11.871 3.397-.375-2.243-1.655-7.722-5.638-10.996-3.984-3.273-9.612-3.468-11.872-3.396.375 2.244 1.667 7.732 5.639 10.995zm31.49-10.996a23.004 23.004 0 0 0-4.02.225 16.104 16.104 0 0 0-7.847 3.17c-.106.087-.204.17-.302.255a17.75 17.75 0 0 0-5.021 9.149c-.005.021-.013.043-.013.063a22.267 22.267 0 0 0-.305 1.53c2.243.08 7.857-.099 11.87-3.392 3.985-3.278 5.268-8.762 5.639-11z"/></g></g></svg>