<svg xmlns="http://www.w3.org/2000/svg" width="59" height="59" viewBox="0 0 59 59"><g><g><path fill="#4d4ce0" d="M50.499 29.45a.982.982 0 0 1-.475-1.303c.8-1.713 1.22-3.578 1.234-5.468a29.116 29.116 0 0 0-.484-5.765.982.982 0 1 1 1.932-.367 31.16 31.16 0 0 1 .518 6.162 15.105 15.105 0 0 1-1.417 6.265.982.982 0 0 1-1.308.475zM1.455 36.784a2.999 2.999 0 0 1-1.427-1.841c-.158-1.012.59-2.023 1.302-2.89a38.025 38.025 0 0 0 4.301-6.987c.076-.134.133-.277.167-.426-.003-.27-.319-.581-.8-1.021a3.753 3.753 0 0 1-1.432-2.197 3.283 3.283 0 0 1 .26-1.643c.175-.464.38-.912.577-1.36.349-.718.63-1.467.84-2.238l.098-.415c.226-1.063.517-2.112.871-3.14a18.817 18.817 0 0 1 3.944-6.429c2.2-2.322 5.42-3.876 9.853-4.76 1.026-.206 2.057-.403 3.094-.59a.983.983 0 0 1 .351 1.93c-1.026.19-2.042.384-3.058.59-3.97.788-6.93 2.196-8.81 4.184a16.847 16.847 0 0 0-3.529 5.759c-.325.95-.593 1.918-.8 2.9l-.099.42c-.236.891-.558 1.76-.961 2.59-.186.414-.371.826-.531 1.248a1.77 1.77 0 0 0-.154.672c.045.32.423.664.816 1.029a3.437 3.437 0 0 1 1.437 2.456 2.926 2.926 0 0 1-.379 1.328 39.642 39.642 0 0 1-4.503 7.306c-.749.91-.909 1.272-.909 1.422.181.176.377.335.586.476.257.18.529.337.811.47.838.429 1.987 1.017 2.223 2.216.14.742.048 1.51-.262 2.199-.173.363-.348.677-.503.948-.049.085-.1.18-.147.265.406.328.963.744 1.2.917a.98.98 0 0 1 .187 1.4c-.146.19-.272.393-.379.607l.204.116a3.259 3.259 0 0 1 1.82 2.01 4.292 4.292 0 0 1-.085 2.091c-.045.205-.092.41-.118.616a3.91 3.91 0 0 0 .231 1.753 1.74 1.74 0 0 0 2.023 1.31 76.44 76.44 0 0 0 8.455-2.555h.007a306.58 306.58 0 0 0 2.684-.927 84.252 84.252 0 0 1 1.46-.503c4.088-1.292 4.916-2.766 4.893-3.777a.983.983 0 0 1 .96-1.005h.017c.534-.001.97.425.983.958.057 2.45-2.048 4.368-6.26 5.7-.255.08-.751.254-1.41.483l-.885.31a15.661 15.661 0 0 1 3.46 6.275l22.3-.062-.066-.099c-.283-.41-.538-.838-.762-1.283-.489-.991-.897-2.02-1.22-3.076a35.05 35.05 0 0 1-1.239-6.162 18.59 18.59 0 0 1 1.442-9.648c.236-.551.515-1.084.833-1.592a.983.983 0 0 1 1.705.057.983.983 0 0 1-.034.985 9.34 9.34 0 0 0-.696 1.327 16.627 16.627 0 0 0-1.298 8.632 32.96 32.96 0 0 0 1.163 5.814c.293.96.665 1.895 1.11 2.796.187.368.4.723.636 1.063.417.572.753 1.2.996 1.866a.983.983 0 0 1-.936 1.278L23.386 59a.984.984 0 0 1-.954-.746c-.365-1.483-1.764-5.432-3.979-6.731A74.594 74.594 0 0 1 10.164 54a3.87 3.87 0 0 1-.806.086 3.682 3.682 0 0 1-3.478-2.678 5.84 5.84 0 0 1-.323-2.646c.033-.261.089-.524.147-.786.12-.381.153-.784.099-1.18-.076-.308-.303-.462-.886-.792a8.463 8.463 0 0 1-.68-.418 1.418 1.418 0 0 1-.583-.967 2.474 2.474 0 0 1 .32-1.417c-.334-.257-.701-.54-.914-.738-.908-.741-.305-1.806.054-2.442.134-.233.287-.504.433-.818.137-.313.178-.66.116-.995-.05-.254-.763-.618-1.188-.835a7.035 7.035 0 0 1-1.02-.59zM38.172 1.28a24.906 24.906 0 0 1 5.248 2.584.982.982 0 1 1-1.057 1.657 22.969 22.969 0 0 0-4.838-2.385.985.985 0 0 1-.32-1.672c.267-.23.635-.3.967-.184zM10.988 17.532a.982.982 0 1 1-1.915-.45l.099-.424c.19-.9.432-1.788.727-2.66a14.919 14.919 0 0 1 3.111-5.087 12.173 12.173 0 0 1 5.39-3.017.983.983 0 1 1 .571 1.88 10.297 10.297 0 0 0-4.53 2.486 12.977 12.977 0 0 0-2.699 4.422 21.753 21.753 0 0 0-.657 2.427l-.099.427zm-2.132 4.13a.983.983 0 1 1 0-1.966.983.983 0 0 1 0 1.967zm27.527-6.877a.983.983 0 1 1 0 1.965c-1.629 0-2.949 1.32-2.949 2.948a.983.983 0 0 1-1.966 0 4.92 4.92 0 0 1 4.915-4.913zM54.08 31.489a4.914 4.914 0 1 1 0 9.825 4.915 4.915 0 0 1-4.915-4.913 4.86 4.86 0 0 1 .748-2.575l-7.815-7.388a8.806 8.806 0 0 1-6.665 2.05l-1.201 5.411a3.951 3.951 0 0 1-2.671 7.374 3.952 3.952 0 0 1 .753-7.806l1.203-5.412a8.883 8.883 0 0 1-4.755-3.894L24.398 26.1a6.018 6.018 0 0 1-3.854 7.188 6.023 6.023 0 0 1-7.484-3.25 6.022 6.022 0 0 1 10.543-5.734l4.347-1.933a8.831 8.831 0 0 1 4.257-10.465l-.853-2.12a4.98 4.98 0 0 1-.87.087A4.902 4.902 0 1 1 29.063.274a4.907 4.907 0 0 1 5.857 2.614 4.901 4.901 0 0 1-1.737 6.171l.854 2.123a8.781 8.781 0 0 1 8.597 2.26l3.342-2.675a5.869 5.869 0 0 1 1.846-7.73 5.877 5.877 0 0 1 7.86 1.189 5.868 5.868 0 0 1-.523 7.929 5.877 5.877 0 0 1-7.95.144l-3.354 2.683a8.77 8.77 0 0 1-.41 10.021l7.812 7.388a4.88 4.88 0 0 1 2.822-.902zM27.535 4.959a2.947 2.947 0 0 0 2.95 2.948 2.92 2.92 0 0 0 1.087-.216h.006a2.946 2.946 0 0 0-1.47-5.66 2.95 2.95 0 0 0-2.573 2.928zm-8.848 26.53a3.931 3.931 0 1 0 0-7.86 3.931 3.931 0 1 0 0 7.86zm13.764 7.86a1.965 1.965 0 1 0 .002-3.931 1.965 1.965 0 0 0-.002 3.93zM51.13 3.977a3.931 3.931 0 1 0 0 7.86 3.931 3.931 0 1 0 0-7.86zM29.5 19.697a6.888 6.888 0 0 0 6.882 6.878 6.88 6.88 0 0 0 6.882-6.877 6.88 6.88 0 0 0-6.882-6.878 6.88 6.88 0 0 0-6.881 6.878zM54.08 39.35a2.948 2.948 0 1 0 .002-5.897 2.948 2.948 0 0 0-.002 5.897z"/></g></g></svg>