<svg xmlns="http://www.w3.org/2000/svg" width="59" height="59" viewBox="0 0 59 59"><g><g><path fill="#4d4ce0" d="M5.538 48.769c.035-.258.09-.514.149-.78.122-.385.158-.792.106-1.192-.078-.302-.303-.455-.88-.785a7.436 7.436 0 0 1-.688-.424 1.407 1.407 0 0 1-.578-.954c-.04-.494.071-.99.317-1.422a18.345 18.345 0 0 1-.907-.726c-.908-.764-.33-1.79.054-2.468.132-.23.282-.496.427-.802.134-.31.172-.654.109-.987-.049-.26-.757-.62-1.181-.835a7.328 7.328 0 0 1-1.024-.59 3.039 3.039 0 0 1-1.422-1.83c-.15-1.016.588-2.022 1.29-2.88a37.97 37.97 0 0 0 4.298-6.996c.076-.132.135-.274.172-.42-.003-.282-.319-.593-.8-1.033a3.753 3.753 0 0 1-1.433-2.187 3.303 3.303 0 0 1 .265-1.65c.175-.465.378-.92.581-1.374.348-.712.626-1.455.833-2.22l.08-.343c.227-1.087.523-2.158.885-3.207a18.64 18.64 0 0 1 3.936-6.42c2.193-2.312 5.41-3.87 9.838-4.761A65.772 65.772 0 0 1 29.457.127a22.501 22.501 0 0 1 12.337 2.861.982.982 0 1 1-.952 1.72A20.303 20.303 0 0 0 29.56 2.09a64.029 64.029 0 0 0-9.206 1.32c-4.015.81-6.89 2.178-8.792 4.186a16.696 16.696 0 0 0-3.52 5.75 24.23 24.23 0 0 0-.82 2.97l-.08.347c-.233.886-.552 1.75-.951 2.574a21.66 21.66 0 0 0-.537 1.265c-.1.215-.153.45-.157.688.041.302.42.646.814 1.009a3.42 3.42 0 0 1 1.436 2.454 2.84 2.84 0 0 1-.384 1.332 39.595 39.595 0 0 1-4.484 7.291c-.755.925-.91 1.283-.91 1.43.181.171.376.329.582.47.258.18.53.338.813.472.84.428 1.99 1.015 2.218 2.219a3.62 3.62 0 0 1-.264 2.194c-.17.351-.342.659-.492.925-.051.088-.11.192-.158.285.403.322.964.742 1.199.917a.98.98 0 0 1 .19 1.393c-.146.19-.272.394-.377.61l.21.12a3.246 3.246 0 0 1 1.81 2.01c.14.696.109 1.416-.093 2.097-.044.204-.09.406-.118.61a3.806 3.806 0 0 0 .238 1.733 1.736 1.736 0 0 0 2.02 1.316 81.6 81.6 0 0 0 8.439-2.547c.947-.323 1.812-.626 2.515-.871.763-.267 1.34-.47 1.63-.562 4.076-1.28 4.904-2.755 4.88-3.766a.982.982 0 0 1 .96-1.004.967.967 0 0 1 1.007.958c.057 2.451-2.047 4.364-6.255 5.685-.283.088-.838.283-1.575.541l-.724.253a15.649 15.649 0 0 1 3.461 6.271l22.25-.068-.072-.109c-.28-.403-.532-.827-.755-1.265a21.134 21.134 0 0 1-1.217-3.085 34.297 34.297 0 0 1-1.228-6.149 18.223 18.223 0 0 1 .118-5.196.985.985 0 1 1 1.942.32 16.27 16.27 0 0 0-.108 4.64 32.43 32.43 0 0 0 1.157 5.807 19.27 19.27 0 0 0 1.112 2.813c.185.36.395.707.627 1.04.419.576.754 1.209.995 1.88a.98.98 0 0 1-.938 1.268L23.342 59a.984.984 0 0 1-.956-.75c-.364-1.479-1.763-5.423-3.972-6.723a80.133 80.133 0 0 1-8.264 2.474 4.028 4.028 0 0 1-.804.084 3.668 3.668 0 0 1-3.48-2.68 5.734 5.734 0 0 1-.328-2.636zm5.449-31.205a.984.984 0 1 1-1.916-.446l.099-.425c.19-.9.433-1.788.727-2.659a14.915 14.915 0 0 1 3.114-5.089 12.203 12.203 0 0 1 5.391-3.014.986.986 0 0 1 1.246 1.16.982.982 0 0 1-.671.718 10.3 10.3 0 0 0-4.536 2.485 12.954 12.954 0 0 0-2.7 4.418 21.706 21.706 0 0 0-.657 2.426l-.099.425zm-2.133 4.128a.983.983 0 0 1-.984-.982.983.983 0 0 1 1.967 0c0 .543-.44.982-.983.982zm41.289 8.575a3.012 3.012 0 0 1-2.813 2.349 3.023 3.023 0 0 1-.866 2.016 2.979 2.979 0 0 1-2.008.883 2.982 2.982 0 0 1-2.876 2.896 3.023 3.023 0 0 1-.866 2.018 3.008 3.008 0 0 1-4.274 0L20.866 24.743l-.006-.005-.231-.234c-.008-.008-.01-.018-.017-.025a10.882 10.882 0 0 1 .259-15.11 10.76 10.76 0 0 1 7.647-3.188 10.76 10.76 0 0 1 7.647 3.189.981.981 0 0 1-.443 1.653.984.984 0 0 1-.955-.272 8.791 8.791 0 0 0-12.499 0 8.921 8.921 0 0 0-.004 12.61l15.58 15.693a1.06 1.06 0 0 0 1.475 0 1.078 1.078 0 0 0 0-1.514L27.34 25.475a.982.982 0 0 1 .007-1.389.986.986 0 0 1 1.392.007l11.978 12.062a1.038 1.038 0 0 0 1.476 0 1.078 1.078 0 0 0 0-1.513l-9.854-9.931a2.99 2.99 0 0 1-2.116-.884 3.04 3.04 0 0 1 0-4.278l10.285-10.35c.007-.008.009-.018.015-.025.089-.089.178-.176.27-.262 4.237-4.028 10.93-3.912 15.025.261a10.881 10.881 0 0 1 .259 15.108c-.02.023-.042.044-.063.066l-.008.01-.179.186zm-18.524-9.335c-.4.422-.394 1.085.014 1.5a1.034 1.034 0 0 0 1.477 0l2.06-2.075 2.865-2.886 2.245-2.264a.984.984 0 0 1 1.464.071 6.262 6.262 0 0 0 3.926 2.142 4.975 4.975 0 0 0 3.715-1.731.985.985 0 0 1 1.404 1.38 6.78 6.78 0 0 1-5.223 2.312 7.632 7.632 0 0 1-4.585-2.085l-.869.875 9.235 9.3c.133.136.253.284.358.442l4.873-4.909.055-.056a8.922 8.922 0 0 0-.213-12.393 8.752 8.752 0 0 0-12.274-.217zm13.45 12.33a1.078 1.078 0 0 0-.004-1.512l-.008-.014-9.205-9.275-1.358 1.369c-.05.046-.1.079-.148.121l9.248 9.311c.41.402 1.066.402 1.475 0zm1.404-2.892c.411.396 1.063.393 1.47-.005a1.078 1.078 0 0 0 0-1.512l-9.22-9.286-1.488 1.5z"/></g></g></svg>