<svg xmlns="http://www.w3.org/2000/svg" width="59" height="59" viewBox="0 0 59 59"><g><g><path fill="#4d4ce0" d="M1.454 36.79a3.009 3.009 0 0 1-1.428-1.84c-.156-1.012.592-2.023 1.303-2.89a37.92 37.92 0 0 0 4.302-6.985c.075-.134.132-.277.167-.427-.004-.27-.322-.581-.803-1.022a3.78 3.78 0 0 1-1.438-2.187 3.423 3.423 0 0 1 .267-1.649c.177-.464.38-.912.576-1.358.351-.72.634-1.469.844-2.24.246-1.203.57-2.389.968-3.55a18.776 18.776 0 0 1 3.944-6.427c2.198-2.322 5.42-3.876 9.852-4.76A65.673 65.673 0 0 1 29.517.093a23.906 23.906 0 0 1 3.417.068.985.985 0 1 1-.183 1.96 21.493 21.493 0 0 0-3.131-.066 63.843 63.843 0 0 0-9.224 1.328c-3.971.788-6.93 2.194-8.81 4.184a16.85 16.85 0 0 0-3.527 5.756 26.394 26.394 0 0 0-.885 3.25c-.239.918-.568 1.81-.982 2.663-.185.414-.371.826-.531 1.246-.097.22-.151.459-.16.699.043.29.419.634.817.999a3.437 3.437 0 0 1 1.442 2.456 2.909 2.909 0 0 1-.38 1.327 39.641 39.641 0 0 1-4.497 7.304c-.748.91-.908 1.271-.908 1.42.182.177.379.337.59.478.256.179.528.336.81.47.838.428 1.987 1.016 2.223 2.214.141.742.05 1.51-.262 2.198-.171.36-.348.679-.502.95-.05.084-.102.179-.148.264.412.328.964.745 1.198.917a.984.984 0 0 1 .19 1.399c-.146.19-.273.394-.38.61l.212.12a3.254 3.254 0 0 1 1.815 2.005 4.28 4.28 0 0 1-.098 2.115c-.045.2-.092.407-.12.603a3.919 3.919 0 0 0 .243 1.74 1.75 1.75 0 0 0 2.025 1.308 76.6 76.6 0 0 0 8.448-2.554h.007c1.023-.347 1.948-.67 2.679-.925.68-.239 1.199-.419 1.466-.505 4.086-1.3 4.915-2.771 4.892-3.776a.983.983 0 0 1 .959-1.005.966.966 0 0 1 1.004.954c.058 2.44-2.048 4.356-6.258 5.697-.257.087-.755.26-1.416.492l-.885.307a15.667 15.667 0 0 1 3.462 6.272l22.297-.066-.066-.098a10.802 10.802 0 0 1-.761-1.277 20.46 20.46 0 0 1-1.22-3.077 34.846 34.846 0 0 1-1.24-6.162 18.57 18.57 0 0 1 1.441-9.646 23.703 23.703 0 0 1 2.894-4.602c.57-.768 1.16-1.562 1.67-2.368a13.25 13.25 0 0 0 1.77-4.175.983.983 0 0 1 1.915.444 15.197 15.197 0 0 1-2.025 4.784c-.55.865-1.162 1.69-1.752 2.485a21.954 21.954 0 0 0-2.67 4.217 16.62 16.62 0 0 0-1.292 8.626 33.066 33.066 0 0 0 1.164 5.81c.294.96.665 1.896 1.11 2.797.188.368.4.722.636 1.06.418.574.753 1.202.996 1.867a.983.983 0 0 1-.936 1.277L23.385 59a.983.983 0 0 1-.954-.745c-.365-1.483-1.765-5.432-3.979-6.73a74.44 74.44 0 0 1-8.288 2.478 4.007 4.007 0 0 1-.803.085 3.684 3.684 0 0 1-3.483-2.682 5.767 5.767 0 0 1-.333-2.646c.037-.261.093-.516.151-.772.124-.383.16-.79.108-1.189-.08-.303-.307-.457-.885-.786a8.545 8.545 0 0 1-.688-.427 1.418 1.418 0 0 1-.577-.963 2.47 2.47 0 0 1 .32-1.417 14.92 14.92 0 0 1-.914-.737c-.908-.743-.306-1.806.054-2.44.132-.234.286-.505.433-.82.137-.311.177-.658.115-.993-.05-.255-.762-.619-1.187-.836a7.14 7.14 0 0 1-1.021-.59zm10.29-22.103c-.3.9-.544 1.817-.732 2.745l-1.92-.425c.206-1.014.475-2.016.807-2.997a14.891 14.891 0 0 1 3.114-5.096c1.596-1.685 4.214-2.9 7.782-3.609a.983.983 0 1 1 .382 1.927c-3.16.628-5.425 1.649-6.736 3.034a12.947 12.947 0 0 0-2.697 4.42zM32.31 5.563a1.966 1.966 0 0 1 1.928-1.572h2.32c.13.001.26.016.387.042l.884-.884a1.779 1.779 0 0 1 2.21-.245l1.92 1.286c.37-.185.752-.343 1.143-.476l.445-2.233A1.77 1.77 0 0 1 45.288.06h1.848a1.768 1.768 0 0 1 1.742 1.428l.445 2.222c.39.133.772.292 1.142.476l1.897-1.267a1.785 1.785 0 0 1 2.236.229l1.307 1.307c.59.587.692 1.505.246 2.208l-1.288 1.918c.184.369.342.75.474 1.141l2.235.445a1.77 1.77 0 0 1 1.42 1.74v1.846a1.768 1.768 0 0 1-1.429 1.742l-2.224.443c-.133.391-.292.772-.476 1.142l1.268 1.895a1.784 1.784 0 0 1-.228 2.235l-1.308 1.306a1.77 1.77 0 0 1-1.256.521c-.338 0-.668-.095-.954-.276l-1.482-.992c-.272.53-.77.906-1.353 1.024l-2.937.59a11.754 11.754 0 0 1-.689 1.653l1.664 2.482c.522.785.413 1.83-.26 2.49l-1.631 1.63c-.658.66-1.69.767-2.47.257l-2.495-1.67c-.534.27-1.087.501-1.656.688l-.59 2.938a1.967 1.967 0 0 1-1.927 1.572h-2.32a1.965 1.965 0 0 1-1.93-1.576l-.589-2.936a11.612 11.612 0 0 1-1.656-.687l-2.484 1.662c-.785.52-1.829.41-2.491-.258l-1.632-1.63a1.964 1.964 0 0 1-.257-2.469l1.671-2.494a11.67 11.67 0 0 1-.687-1.654l-2.942-.59a1.965 1.965 0 0 1-1.573-1.926v-2.318c0-.935.659-1.742 1.577-1.927l2.938-.59c.186-.568.416-1.12.687-1.654l-1.663-2.481a1.964 1.964 0 0 1 .26-2.491l1.632-1.63a1.967 1.967 0 0 1 2.47-.256l2.495 1.67a11.676 11.676 0 0 1 1.656-.688zm15.03 3.853c.66.659.766 1.69.253 2.47l-1.671 2.493c.272.533.502 1.087.688 1.654l1.492.295a3.907 3.907 0 0 0-1.221-7.374l.459.46zm-8.92-4.082c.027.076.05.154.067.233l.59 2.934c.569.187 1.122.417 1.655.688l2.482-1.662a1.998 1.998 0 0 1 1.377-.303 5.682 5.682 0 0 1 1.75-.286 5.877 5.877 0 1 1 4.1 10.114c.435.375.687.921.687 1.496v1.004l2.19 1.465 1.092-1.09-1.508-2.246a.981.981 0 0 1-.028-1.05 7.182 7.182 0 0 0 .751-1.797.983.983 0 0 1 .758-.707l2.649-.528v-1.536l-2.655-.527a.982.982 0 0 1-.756-.707 7.189 7.189 0 0 0-.753-1.798.982.982 0 0 1 .029-1.05l1.507-2.246-1.091-1.09-2.247 1.507a.984.984 0 0 1-1.05.034 7.214 7.214 0 0 0-1.8-.751.982.982 0 0 1-.707-.757l-.528-2.652h-1.537l-.528 2.647a.983.983 0 0 1-.708.756 7.2 7.2 0 0 0-1.8.751.984.984 0 0 1-1.05-.028l-2.246-1.51zM33.53 9.47a.981.981 0 0 1-.702.754 9.692 9.692 0 0 0-2.321.963.984.984 0 0 1-1.04-.033l-2.978-1.994-1.64 1.646 1.99 2.972a.981.981 0 0 1 .034 1.04 9.652 9.652 0 0 0-.963 2.319.985.985 0 0 1-.755.706l-3.52.706v2.318l3.517.704a.985.985 0 0 1 .755.706c.219.812.542 1.591.963 2.32a.981.981 0 0 1-.033 1.039l-1.996 2.975 1.648 1.638 2.974-1.989a.984.984 0 0 1 1.04-.033c.73.42 1.51.744 2.322.963.359.097.633.389.706.754l.707 3.517h2.32l.704-3.514a.982.982 0 0 1 .707-.754 9.679 9.679 0 0 0 2.321-.963.985.985 0 0 1 1.04.033l2.978 1.994 1.638-1.646-1.99-2.972a.982.982 0 0 1-.032-1.04c.42-.728.744-1.507.963-2.32a.985.985 0 0 1 .755-.705l3.52-.707v-2.319l-3.517-.702a.983.983 0 0 1-.755-.706 9.703 9.703 0 0 0-.963-2.32.98.98 0 0 1 .033-1.039l1.995-2.975-1.647-1.638-2.975 1.989a.982.982 0 0 1-1.04.033 9.707 9.707 0 0 0-2.32-.963.98.98 0 0 1-.708-.754l-.707-3.517h-2.32zm1.868 17.115a6.886 6.886 0 0 1-6.88-6.877 6.879 6.879 0 0 1 6.88-6.876 6.88 6.88 0 0 1 6.882 6.876 6.879 6.879 0 0 1-6.882 6.877zm0-11.788a4.92 4.92 0 0 0-4.915 4.911 4.914 4.914 0 0 0 4.915 4.912c2.715 0 4.915-2.199 4.915-4.912 0-2.712-2.2-4.911-4.915-4.911zm0 5.893a.983.983 0 1 1 0-1.965.983.983 0 0 1 0 1.965zm-26.542.983a.983.983 0 1 1-.001-1.966.983.983 0 0 1 0 1.966z"/></g></g></svg>