<svg xmlns="http://www.w3.org/2000/svg" width="59" height="59" viewBox="0 0 59 59"><g><g><path fill="#4d4ce0" d="M1.455 36.796a2.998 2.998 0 0 1-1.427-1.84c-.158-1.011.59-2.022 1.302-2.888a38.01 38.01 0 0 0 4.301-6.984c.076-.134.133-.277.167-.426-.003-.27-.319-.58-.8-1.021a3.75 3.75 0 0 1-1.432-2.195 3.277 3.277 0 0 1 .26-1.642c.175-.464.38-.912.577-1.36.349-.718.63-1.467.84-2.237l.098-.415c.226-1.061.517-2.108.871-3.135a18.809 18.809 0 0 1 3.944-6.426c2.2-2.321 5.42-3.874 9.853-4.758A65.735 65.735 0 0 1 29.52.106c4.46-.226 8.89.833 12.763 3.05V1.057c0-.542.44-.981.983-.981h12.78c1.63 0 2.95 1.319 2.95 2.946v12.766c0 .543-.44.983-.983.983h-5.408a.984.984 0 0 1-.786-1.572 1.475 1.475 0 1 0-2.36 0 .982.982 0 0 1-.786 1.572h-4.424a1.965 1.965 0 0 1-1.966-1.964v-4.42a.983.983 0 0 1 1.567-.786c.397.297.915.376 1.382.212.47-.163.825-.554.94-1.038a1.482 1.482 0 0 0-.284-1.27 1.517 1.517 0 0 0-2.032-.26.982.982 0 0 1-1.573-.785v-.951a21.167 21.167 0 0 0-12.663-3.44c-3.102.216-6.184.66-9.222 1.326-3.971.788-6.931 2.195-8.812 4.183a16.836 16.836 0 0 0-3.527 5.755c-.326.95-.594 1.918-.801 2.9l-.099.418c-.236.892-.558 1.76-.961 2.59-.186.413-.371.826-.531 1.247-.095.212-.147.44-.154.672.045.32.423.663.816 1.028a3.436 3.436 0 0 1 1.437 2.455 2.924 2.924 0 0 1-.379 1.327 39.62 39.62 0 0 1-4.503 7.303c-.748.91-.909 1.272-.909 1.42.18.176.377.336.586.477.257.18.529.336.811.47.838.429 1.987 1.016 2.223 2.214a3.68 3.68 0 0 1-.263 2.198c-.172.363-.347.677-.502.948-.049.085-.1.18-.147.265.406.328.963.744 1.2.916a.98.98 0 0 1 .187 1.4c-.146.19-.272.392-.379.606l.204.116a3.259 3.259 0 0 1 1.82 2.01c.145.693.116 1.41-.085 2.09-.045.204-.092.409-.118.615-.058.594.02 1.193.231 1.752a1.739 1.739 0 0 0 2.017 1.309 76.538 76.538 0 0 0 8.456-2.553h.006c1.024-.348 1.953-.672 2.684-.927a82.83 82.83 0 0 1 1.46-.502c4.088-1.291 4.916-2.765 4.893-3.776a.983.983 0 0 1 1.966-.046c.057 2.449-2.048 4.365-6.26 5.696-.255.082-.751.254-1.41.484l-.885.309a15.652 15.652 0 0 1 3.46 6.272l22.3-.062-.066-.098c-.283-.41-.538-.839-.762-1.284a20.567 20.567 0 0 1-1.22-3.074 35.018 35.018 0 0 1-1.237-6.157 18.563 18.563 0 0 1 .524-7.003H22.62a2.948 2.948 0 0 1-2.949-2.945V10.878a2.948 2.948 0 0 1 2.95-2.946H35.4c.543 0 .983.44.983.983v3.963a3.443 3.443 0 0 1 3.027 1.076 3.436 3.436 0 0 1 .819 3.104 3.412 3.412 0 0 1-2.23 2.473c-.519.177-1.072.23-1.616.152v2.98h2.985a3.438 3.438 0 0 1 3.405-3.928 3.439 3.439 0 0 1 3.406 3.928h3.968c.543 0 .983.44.983.983v12.767a2.948 2.948 0 0 1-2.949 2.945h-2.448a16.563 16.563 0 0 0-.64 6.765 32.956 32.956 0 0 0 1.164 5.808c.293.96.664 1.895 1.11 2.795.187.368.4.723.636 1.062.417.573.753 1.201.996 1.866a.982.982 0 0 1-.936 1.277L23.386 59a.984.984 0 0 1-.954-.747c-.365-1.481-1.764-5.43-3.979-6.727a74.575 74.575 0 0 1-8.289 2.477 3.915 3.915 0 0 1-.806.086 3.682 3.682 0 0 1-3.478-2.677 5.833 5.833 0 0 1-.323-2.645c.033-.26.089-.524.147-.786.12-.38.153-.783.099-1.178-.076-.309-.303-.463-.886-.793a8.516 8.516 0 0 1-.68-.417 1.418 1.418 0 0 1-.583-.967 2.472 2.472 0 0 1 .32-1.416c-.335-.257-.701-.54-.914-.737-.908-.742-.305-1.806.054-2.442.134-.232.287-.503.433-.817.137-.313.178-.659.116-.995-.05-.254-.763-.617-1.188-.835a7.025 7.025 0 0 1-1.02-.589zm20.182-14.133h2.984a3.434 3.434 0 0 1 1.264-3.185 3.443 3.443 0 0 1 2.922-.657 3.414 3.414 0 0 1 2.474 2.23c.177.518.23 1.07.153 1.612h2.983v-4.42a.983.983 0 0 1 1.564-.789c.397.299.917.38 1.385.216.47-.163.825-.555.94-1.039a1.48 1.48 0 0 0-.284-1.27 1.517 1.517 0 0 0-2.032-.26.983.983 0 0 1-1.573-.785v-4.42H22.619a.982.982 0 0 0-.982.982zm0 13.75c0 .542.44.981.982.981h11.798v-2.981a3.436 3.436 0 1 1 0-6.804v-2.981h-4.424a.983.983 0 0 1-.792-1.564c.301-.395.383-.915.217-1.383a1.453 1.453 0 0 0-1.038-.939 1.487 1.487 0 0 0-1.273.283 1.473 1.473 0 0 0-.26 2.031.984.984 0 0 1-.786 1.571h-4.424zm14.2-4.322c.336.167.548.51.546.884v4.42h11.798c.543 0 .983-.44.983-.983V24.628h-4.428a.982.982 0 1 1-.787-1.571 1.473 1.473 0 0 0-2.172-1.975 1.473 1.473 0 0 0-.187 1.974.98.98 0 0 1-.787 1.572H36.38v4.419a.981.981 0 0 1-1.573.786 1.476 1.476 0 0 0-1.975.187 1.472 1.472 0 0 0 0 1.982 1.476 1.476 0 0 0 1.975.187.988.988 0 0 1 1.031-.098zm8.411-27.07a3.436 3.436 0 0 1 3.845 4.18 3.414 3.414 0 0 1-2.228 2.473 3.49 3.49 0 0 1-1.617.152v2.98h2.985a3.44 3.44 0 0 1 3.406-3.929 3.44 3.44 0 0 1 3.405 3.93h2.985V3.022a.982.982 0 0 0-.983-.982H44.248zM10.985 17.548a.983.983 0 1 1-1.919-.432l.099-.433c.192-.9.438-1.79.734-2.662a14.78 14.78 0 0 1 3.122-5.093 10.21 10.21 0 0 1 3.3-2.243.984.984 0 0 1 1.407.994.982.982 0 0 1-.603.797 8.298 8.298 0 0 0-2.674 1.8 12.839 12.839 0 0 0-2.705 4.419 22.15 22.15 0 0 0-.662 2.427zM8.856 21.68a.983.983 0 1 1 0-1.966.983.983 0 0 1 0 1.966z"/></g></g></svg>