<svg xmlns="http://www.w3.org/2000/svg" width="47" height="45" viewBox="0 0 47 45"><g><g><path fill="#fff" d="M44.941 20.596v1.916c-.003 6.01-2.344 11.66-6.59 15.907a22.31 22.31 0 0 1-15.88 6.58h-.013c-6.002-.003-11.644-2.346-15.885-6.599A22.367 22.367 0 0 1 0 22.487 22.367 22.367 0 0 1 6.591 6.581C10.834 2.337 16.474 0 22.471 0h.013a22.31 22.31 0 0 1 9.132 1.948 1.902 1.902 0 0 1 .962 2.51 1.898 1.898 0 0 1-2.507.963 18.535 18.535 0 0 0-7.59-1.62h-.01c-4.984 0-9.67 1.943-13.197 5.47a18.587 18.587 0 0 0-5.477 13.218c-.006 10.31 8.367 18.703 18.663 18.709h.011c4.984 0 9.67-1.942 13.196-5.47a18.587 18.587 0 0 0 5.477-13.217v-1.915a1.9 1.9 0 1 1 3.797 0zm1.501-15.28l-22.629 22.66c-.37.37-.856.556-1.342.556a1.89 1.89 0 0 1-1.343-.557l-6.171-6.18a1.903 1.903 0 0 1 0-2.688 1.896 1.896 0 0 1 2.685 0l4.829 4.836L43.757 2.628a1.897 1.897 0 0 1 2.685 0 1.903 1.903 0 0 1 0 2.689z"/></g></g></svg>