<svg xmlns="http://www.w3.org/2000/svg" width="59" height="59" viewBox="0 0 59 59"><g><g><path fill="#4d4ce0" d="M1.453 36.786a3.018 3.018 0 0 1-1.427-1.842c-.156-1.012.588-2.021 1.3-2.888a37.986 37.986 0 0 0 4.298-6.989c.074-.134.13-.278.166-.428-.003-.27-.318-.58-.798-1.022a3.754 3.754 0 0 1-1.431-2.196 3.316 3.316 0 0 1 .257-1.641c.178-.466.38-.913.576-1.36.35-.718.633-1.468.841-2.24l.099-.413c.225-1.062.516-2.11.87-3.136a18.838 18.838 0 0 1 3.938-6.43c2.197-2.324 5.415-3.875 9.841-4.76A65.287 65.287 0 0 1 29.48.077a24.79 24.79 0 0 1 2.31-.01c.014 0 .024.008.038.008.194-.007.384-.03.58-.03 1.925.001 3.827.41 5.583 1.198a.687.687 0 0 1 .085.022 28.527 28.527 0 0 1 8.18 4.651 16.371 16.371 0 0 1 5.867 8.45 27.36 27.36 0 0 1 .752 3.77 13.761 13.761 0 0 1 5.426 15.419 13.748 13.748 0 0 1-13.132 9.722c-.063 0-.124-.01-.188-.01-.066.95-.048 1.903.054 2.85.212 1.967.6 3.912 1.16 5.81.294.96.665 1.896 1.109 2.797.189.368.401.722.636 1.063a7.58 7.58 0 0 1 .995 1.866.984.984 0 0 1-.935 1.278L23.356 59a.983.983 0 0 1-.954-.746c-.364-1.481-1.762-5.432-3.973-6.73A73.917 73.917 0 0 1 10.151 54a3.85 3.85 0 0 1-.806.086 3.676 3.676 0 0 1-3.472-2.678 5.85 5.85 0 0 1-.322-2.646c.032-.26.09-.523.147-.786.119-.381.152-.784.097-1.18-.076-.307-.303-.461-.883-.792a8.076 8.076 0 0 1-.681-.418 1.418 1.418 0 0 1-.582-.967 2.472 2.472 0 0 1 .32-1.418c-.335-.256-.7-.54-.913-.737-.908-.742-.306-1.805.054-2.441.132-.234.286-.505.432-.819.137-.312.177-.658.115-.993-.05-.255-.761-.618-1.186-.837a7.071 7.071 0 0 1-1.018-.589zm55.502-7.263c-.012-6.349-5.042-11.549-11.382-11.767a13.77 13.77 0 0 1-3.944 6.224 2.948 2.948 0 0 1-1.801 5.53 2.946 2.946 0 0 1-2.501-2.877c-1.2.464-2.46.755-3.74.865a11.69 11.69 0 0 0 2.226 9.242 11.673 11.673 0 0 0 8.355 4.523h.016c.327.028.655.05.988.05 6.505-.006 11.775-5.281 11.783-11.79zM32.408 2.011c-6.504.007-11.775 5.282-11.782 11.791 0 6.512 5.275 11.79 11.782 11.79 6.508 0 11.783-5.278 11.783-11.79s-5.275-11.79-11.783-11.79zm8.837 24.564a.983.983 0 1 0-1.965 0 .983.983 0 0 0 1.965 0zm8.992-11.67a14.253 14.253 0 0 0-5.192-7.44c-.26-.205-.524-.402-.786-.598a13.359 13.359 0 0 1 1.734 8.941c1.626.094 3.222.477 4.713 1.132a23.382 23.382 0 0 0-.47-2.036zM2.879 33.256c-.749.914-.908 1.277-.912 1.424.181.176.378.335.588.476.256.18.527.337.81.47.838.43 1.985 1.016 2.221 2.216.14.743.05 1.51-.262 2.2-.17.359-.347.677-.501.948-.05.085-.1.18-.148.265.406.328.963.743 1.198.917a.982.982 0 0 1 .188 1.399c-.145.189-.272.393-.379.608.068.04.136.078.205.117a3.26 3.26 0 0 1 1.816 2.008 4.302 4.302 0 0 1-.084 2.091c-.045.206-.091.41-.118.617a3.922 3.922 0 0 0 .23 1.753 1.746 1.746 0 0 0 2.027 1.31 76.112 76.112 0 0 0 8.444-2.555c1.04-.35 1.981-.683 2.717-.94a73.01 73.01 0 0 1 1.422-.492c4.083-1.29 4.91-2.766 4.887-3.777a.982.982 0 1 1 1.964-.046c.057 2.456-2.046 4.37-6.253 5.7-.252.08-.735.249-1.375.472l-.922.322a15.685 15.685 0 0 1 3.456 6.274l22.27-.06c-.021-.034-.043-.066-.064-.098a10.85 10.85 0 0 1-.763-1.285c-.487-.99-.895-2.02-1.218-3.076a34.98 34.98 0 0 1-1.235-6.16 17.942 17.942 0 0 1-.085-3.265 13.762 13.762 0 0 1-11.576-13.567c.006-.672.06-1.342.163-2.007a13.723 13.723 0 0 1-12.392-9.911 13.737 13.737 0 0 1 5.235-14.986c-1.423.228-2.8.49-4.062.748-3.967.789-6.922 2.195-8.801 4.186a16.867 16.867 0 0 0-3.523 5.757c-.327.95-.596 1.92-.805 2.904l-.097.417a14.393 14.393 0 0 1-.961 2.593c-.186.412-.37.825-.53 1.246a1.821 1.821 0 0 0-.153.674c.043.318.422.662.815 1.026a3.432 3.432 0 0 1 1.434 2.457 2.908 2.908 0 0 1-.379 1.326 39.634 39.634 0 0 1-4.492 7.304zm6.913-14.994a.982.982 0 0 1-.73-1.18l.098-.425c.189-.9.431-1.788.726-2.66a14.914 14.914 0 0 1 3.107-5.093 12.167 12.167 0 0 1 5.38-3.018.983.983 0 0 1 .573 1.88 10.264 10.264 0 0 0-4.526 2.488 12.96 12.96 0 0 0-2.694 4.421 21.993 21.993 0 0 0-.657 2.424l-.098.43a.982.982 0 0 1-1.179.733zm-.948 3.4a.982.982 0 1 1 0-1.966.982.982 0 0 1 0 1.965zM27.5 13.801a2.947 2.947 0 0 1 0-5.895 2.946 2.946 0 0 1 2.945 2.947 2.947 2.947 0 0 1-2.945 2.948zm0-3.93a.982.982 0 1 0 0 1.964.982.982 0 0 0 0-1.964zm9.818 3.93a2.947 2.947 0 0 1 0-5.895 2.946 2.946 0 0 1 2.946 2.947 2.947 2.947 0 0 1-2.946 2.948zm0-3.93a.982.982 0 1 0 .002 1.964.982.982 0 0 0-.002-1.964zm-8.836 6.878a3.928 3.928 0 1 0 7.855 0 .982.982 0 1 1 1.964 0 5.894 5.894 0 0 1-5.892 5.895 5.893 5.893 0 0 1-5.89-5.895.982.982 0 1 1 1.963 0zm21.6 12.773a2.947 2.947 0 1 1 .004-5.894 2.947 2.947 0 0 1-.004 5.894zm0-3.93a.983.983 0 1 0 .003 1.965.983.983 0 0 0-.003-1.966zm-4.909 5.895a5.9 5.9 0 0 1 5.892 5.895.983.983 0 0 1-1.964 0 3.929 3.929 0 0 0-7.855 0 .983.983 0 1 1-1.964 0 5.898 5.898 0 0 1 5.891-5.895z"/></g></g></svg>