<svg xmlns="http://www.w3.org/2000/svg" width="108" height="108" viewBox="0 0 108 108"><g><g clip-path="url(#clip-3229)"><path fill="#fff" d="M54 108C24.225 108 0 83.775 0 54S24.224 0 54 0s54 24.225 54 54-24.224 54-54 54z"/></g><g clip-path="url(#clip-3229)"><path fill="#99a1ba" d="M78.03 39.837a6.223 6.223 0 1 1-12.443 0 6.223 6.223 0 0 1 12.443 0zm-35.776 0a6.223 6.223 0 1 1-12.446 0 6.223 6.223 0 0 1 12.446 0zM58.758 85.93h-8.641c-10.944 0-19.848-8.794-19.848-19.607a2.564 2.564 0 0 1 5.128 0c0 8.12 6.465 14.48 14.72 14.48h8.641c8.255 0 14.72-6.255 14.72-14.241a2.564 2.564 0 0 1 5.128 0c0 10.86-8.718 19.368-19.848 19.368zM54.001 108C24.224 108 0 83.775 0 54S24.224 0 54 0s54 24.225 54 54-24.224 54-54 54zM54 5.129c-26.95 0-48.873 21.923-48.873 48.87 0 26.95 21.924 48.872 48.873 48.872 26.947 0 48.87-21.923 48.87-48.872 0-26.947-21.923-48.87-48.87-48.87z"/></g></g></svg>