<svg xmlns="http://www.w3.org/2000/svg" width="26" height="18" viewBox="0 0 26 18"><g><g><path fill="#fc4c3b" d="M26 6.78v4.438c0 2.814-.45 4.44-1.506 5.434-1.029.971-2.62 1.367-5.49 1.367H6.99c-5.913 0-6.995-2.29-6.995-6.801V6.78c0-2.329 0-4.011.912-5.153C1.842.457 3.604-.02 6.99-.02h12.015c3.31 0 5.043.448 5.981 1.548C25.929 2.633 26 4.325 26 6.781zm-8.86 2.098a.825.825 0 0 0-.452-.732l-5.456-2.793a.849.849 0 0 0-.822.027.825.825 0 0 0-.403.707v5.603c0 .289.153.557.404.707a.847.847 0 0 0 .823.026l5.456-2.81a.826.826 0 0 0 .45-.735z"/></g></g></svg>