<svg xmlns="http://www.w3.org/2000/svg" width="26" height="26" viewBox="0 0 26 26"><g><g><path fill="#1965be" d="M26 3.583v19.684a.544.544 0 0 1-.542.546H15.166v1.64a.543.543 0 0 1-.624.54L.458 23.808a.545.545 0 0 1-.459-.54V4.677a.546.546 0 0 1 .42-.539L14.503.858a.549.549 0 0 1 .663.538v1.64h10.292c.3 0 .542.245.542.547zM11.524 9.619l-.012-.003a.535.535 0 0 0-.657.378L9.208 15.81 7.562 9.993a.562.562 0 0 0-1.041 0l-1.647 5.816-1.646-5.815a.54.54 0 0 0-.69-.386.548.548 0 0 0-.352.687l2.167 7.655a.562.562 0 0 0 1.041 0l1.647-5.816 1.647 5.816a.542.542 0 0 0 .52.396.542.542 0 0 0 .52-.396l2.168-7.655a.548.548 0 0 0-.372-.676zm13.393-5.49h-9.75v2.188h8.125c.299 0 .541.244.541.546a.544.544 0 0 1-.541.547h-8.126v2.187h8.126c.299 0 .541.245.541.547a.544.544 0 0 1-.541.547h-8.126v2.187h8.126c.299 0 .541.245.541.547a.544.544 0 0 1-.541.546h-8.126v2.188h8.126c.299 0 .541.244.541.546a.544.544 0 0 1-.541.547h-8.126v2.187h8.126c.299 0 .541.245.541.547a.544.544 0 0 1-.541.547h-8.126v2.187h9.75z"/></g></g></svg>